{
.appVersion = "122";
DisplayStrings = (
"ABDEFGHIJKLMNÑOPQRSTUVWXYZ/space Æ/space/OE/space |/space/dagger \0121234567890\012\012\01200010203040506070809\012\01210111213141516171819\012\01220212223242526272829\012\01230313233343536373839\012\01240414243444546474849\012\01250515253545556575859\012\01260616263646566676869\012\01270717273747576777879\012\01280818283848586878889\012\01290919293949596979899\012\012\012AAABACADAEAFAGAHA\012\012AIAJAKALAMANAOAPA\012\012AQARASATAUAVAWAXAYAZ\012\012AARON/space ABANDON/space ACADEMY/space \012ADAM/space \012\012AENEAS/space AFFIRM/space FANG/space BAG/space GAUGE\012\012AHOY/space HANDSOME/space AILEEN\012MARTIAN/space \012\012TAJIK/space JACOBTAKE\012KAART\012ALONSO\012\012LAMDA/space \012AMORE\012MARS\012AND\012NASA\012\012SHAOLIN\012MOAN\012APOLLO\012PANAMA/space \012AQUA/space \012QAHIR\012ARABIC\012ASSASSIN\012LATIN/space \012ISTANBUR\012AUNT\012JUANITA/space \012AVION\012ADVANCE\012SAW\012WAND\012SAX\012XAVIER\012CRAYON/space \012YARD\012AZUR\012CABEZA\012FRIPON\012FOOT\012C/OE UR\012\012AÆA/OE A\012\012CARO/dagger E\012HE|O\012\012CHICA\012\012TENGO/space 19/space ANOS\012\012",
A,
"",
"Ñ"
);
date = "2025-03-20 12:28:50 +0000";
familyName = "nouvelle Fonte";
featurePrefixes = (
{
automatic = 1;
code = "languagesystem DFLT dflt;\012";
name = Languagesystems;
}
);
fontMaster = (
{
ascender = 840;
capHeight = 840;
descender = 0;
id = "A0C7B77B-63B8-469F-86AF-83BC364D87BB";
weightValue = 0;
widthValue = 0;
xHeight = 840;
}
);
glyphs = (
{
glyphname = A;
lastChange = "2025-03-21 16:47:07 +0000";
layers = (
{
layerId = "A0C7B77B-63B8-469F-86AF-83BC364D87BB";
paths = (
{
closed = 1;
nodes = (
"431 196 OFFCURVE",
"431 179 OFFCURVE",
"442 175 CURVE SMOOTH",
"467 167 OFFCURVE",
"515 200 OFFCURVE",
"535 190 CURVE SMOOTH",
"583 173 OFFCURVE",
"530 128 OFFCURVE",
"530 95 CURVE SMOOTH",
"530 67 OFFCURVE",
"574 29 OFFCURVE",
"550 10 CURVE SMOOTH",
"540 1 OFFCURVE",
"526 3 OFFCURVE",
"515 14 CURVE SMOOTH",
"487 45 OFFCURVE",
"511 91 OFFCURVE",
"511 124 CURVE SMOOTH",
"511 186 OFFCURVE",
"433 138 OFFCURVE",
"402 138 CURVE SMOOTH",
"378 141 OFFCURVE",
"351 154 OFFCURVE",
"378 179 CURVE SMOOTH",
"383 186 OFFCURVE",
"431 198 OFFCURVE",
"410 220 CURVE SMOOTH",
"396 237 OFFCURVE",
"272 158 OFFCURVE",
"307 242 CURVE SMOOTH",
"316 263 OFFCURVE",
"372 327 OFFCURVE",
"416 347 CURVE SMOOTH",
"453 364 OFFCURVE",
"498 410 OFFCURVE",
"505 447 CURVE SMOOTH",
"509 465 OFFCURVE",
"505 498 OFFCURVE",
"507 513 CURVE SMOOTH",
"511 563 OFFCURVE",
"515 623 OFFCURVE",
"493 674 CURVE SMOOTH",
"479 709 OFFCURVE",
"441 753 OFFCURVE",
"406 764 CURVE SMOOTH",
"357 780 OFFCURVE",
"325 774 OFFCURVE",
"274 778 CURVE SMOOTH",
"197 784 OFFCURVE",
"164 799 OFFCURVE",
"90 742 CURVE SMOOTH",
"31 696 OFFCURVE",
"-2 615 OFFCURVE",
"38 576 CURVE SMOOTH",
"79 535 OFFCURVE",
"311 578 OFFCURVE",
"323 578 CURVE SMOOTH",
"390 576 OFFCURVE",
"465 555 OFFCURVE",
"472 506 CURVE SMOOTH",
"481 451 OFFCURVE",
"457 425 OFFCURVE",
"404 408 CURVE SMOOTH",
"264 369 OFFCURVE",
"84 472 OFFCURVE",
"31 329 CURVE SMOOTH",
"-13 214 OFFCURVE",
"36 165 OFFCURVE",
"36 65 CURVE SMOOTH",
"38 -23 OFFCURVE",
"-26 -13 OFFCURVE",
"-21 78 CURVE SMOOTH",
"-17 149 OFFCURVE",
"-7 138 OFFCURVE",
"-5 249 CURVE SMOOTH",
"-2 292 OFFCURVE",
"-35 349 OFFCURVE",
"-23 404 CURVE SMOOTH",
"-7 478 OFFCURVE",
"108 438 OFFCURVE",
"157 434 CURVE SMOOTH",
"205 430 OFFCURVE",
"376 425 OFFCURVE",
"410 457 CURVE SMOOTH",
"431 476 OFFCURVE",
"409 504 OFFCURVE",
"388 519 CURVE SMOOTH",
"355 541 OFFCURVE",
"162 531 OFFCURVE",
"95 528 CURVE SMOOTH",
"36 528 OFFCURVE",
"23 511 OFFCURVE",
"-15 547 CURVE SMOOTH",
"-48 582 OFFCURVE",
"-21 668 OFFCURVE",
"25 714 CURVE SMOOTH",
"55 747 OFFCURVE",
"95 782 OFFCURVE",
"114 795 CURVE SMOOTH",
"181 839 OFFCURVE",
"303 851 OFFCURVE",
"378 823 CURVE SMOOTH",
"426 804 OFFCURVE",
"428 776 OFFCURVE",
"465 747 CURVE SMOOTH",
"489 729 OFFCURVE",
"526 718 OFFCURVE",
"542 690 CURVE SMOOTH",
"578 625 OFFCURVE",
"522 563 OFFCURVE",
"532 487 CURVE SMOOTH",
"535 451 OFFCURVE",
"552 432 OFFCURVE",
"540 408 CURVE SMOOTH",
"522 367 OFFCURVE",
"412 305 OFFCURVE",
"400 279 CURVE SMOOTH",
"394 265 OFFCURVE",
"400 251 OFFCURVE",
"412 242 CURVE SMOOTH",
"437 227 OFFCURVE",
"450 267 OFFCURVE",
"477 249 CURVE SMOOTH",
"511 224 OFFCURVE",
"472 212 OFFCURVE",
"442 200 CURVE SMOOTH"
);
}
);
width = 637;
}
);
unicode = 0041;
},
{
glyphname = AE;
lastChange = "2025-03-20 13:56:42 +0000";
layers = (
{
layerId = "A0C7B77B-63B8-469F-86AF-83BC364D87BB";
paths = (
{
closed = 1;
nodes = (
"568 35 OFFCURVE",
"519 75 OFFCURVE",
"519 75 CURVE",
"516 80 OFFCURVE",
"515 85 OFFCURVE",
"515 91 CURVE SMOOTH",
"515 92 OFFCURVE",
"515 93 OFFCURVE",
"516 96 CURVE SMOOTH",
"519 127 OFFCURVE",
"564 165 OFFCURVE",
"521 183 CURVE SMOOTH",
"502 191 OFFCURVE",
"454 158 OFFCURVE",
"431 166 CURVE SMOOTH",
"419 170 OFFCURVE",
"419 187 OFFCURVE",
"431 192 CURVE SMOOTH",
"461 203 OFFCURVE",
"498 214 OFFCURVE",
"464 238 CURVE SMOOTH",
"438 257 OFFCURVE",
"426 218 OFFCURVE",
"403 232 CURVE SMOOTH",
"390 239 OFFCURVE",
"384 254 OFFCURVE",
"391 268 CURVE SMOOTH",
"400 288 OFFCURVE",
"472 331 OFFCURVE",
"508 367 CURVE SMOOTH",
"516 376 OFFCURVE",
"526 385 OFFCURVE",
"529 397 CURVE SMOOTH",
"530 405 OFFCURVE",
"530 413 OFFCURVE",
"529 421 CURVE SMOOTH",
"526 431 OFFCURVE",
"533 440 OFFCURVE",
"542 442 CURVE SMOOTH",
"583 448 OFFCURVE",
"656 462 OFFCURVE",
"657 519 CURVE SMOOTH",
"660 560 OFFCURVE",
"607 558 OFFCURVE",
"546 551 CURVE SMOOTH",
"537 550 OFFCURVE",
"530 559 OFFCURVE",
"531 569 CURVE SMOOTH",
"541 601 OFFCURVE",
"546 632 OFFCURVE",
"527 663 CURVE SMOOTH",
"527 663 OFFCURVE",
"527 663 OFFCURVE",
"527 664 CURVE SMOOTH",
"521 677 OFFCURVE",
"476 787 OFFCURVE",
"626 766 CURVE SMOOTH",
"662 760 OFFCURVE",
"723 740 OFFCURVE",
"755 762 CURVE SMOOTH",
"772 772 OFFCURVE",
"773 798 OFFCURVE",
"755 806 CURVE SMOOTH",
"727 820 OFFCURVE",
"664 783 OFFCURVE",
"626 782 CURVE SMOOTH",
"576 779 OFFCURVE",
"510 821 OFFCURVE",
"483 795 CURVE SMOOTH",
"461 775 OFFCURVE",
"471 737 OFFCURVE",
"483 701 CURVE",
"472 706 OFFCURVE",
"462 712 OFFCURVE",
"454 718 CURVE SMOOTH",
"419 747 OFFCURVE",
"417 774 OFFCURVE",
"369 793 CURVE SMOOTH",
"298 820 OFFCURVE",
"182 808 OFFCURVE",
"118 766 CURVE SMOOTH",
"99 754 OFFCURVE",
"60 718 OFFCURVE",
"31 689 CURVE SMOOTH",
"-13 643 OFFCURVE",
"-37 558 OFFCURVE",
"-5 525 CURVE SMOOTH",
"29 490 OFFCURVE",
"44 508 OFFCURVE",
"99 509 CURVE SMOOTH",
"164 511 OFFCURVE",
"348 520 OFFCURVE",
"380 498 CURVE SMOOTH",
"399 486 OFFCURVE",
"419 458 OFFCURVE",
"400 439 CURVE SMOOTH",
"368 407 OFFCURVE",
"205 413 OFFCURVE",
"159 417 CURVE SMOOTH",
"112 421 OFFCURVE",
"4 461 OFFCURVE",
"-14 388 CURVE SMOOTH",
"-25 336 OFFCURVE",
"6 278 OFFCURVE",
"5 239 CURVE SMOOTH",
"2 130 OFFCURVE",
"-7 141 OFFCURVE",
"-11 73 CURVE SMOOTH",
"-17 -15 OFFCURVE",
"44 -24 OFFCURVE",
"44 62 CURVE SMOOTH",
"43 157 OFFCURVE",
"-3 205 OFFCURVE",
"37 318 CURVE SMOOTH",
"87 454 OFFCURVE",
"261 355 OFFCURVE",
"395 393 CURVE SMOOTH",
"446 407 OFFCURVE",
"469 432 OFFCURVE",
"460 488 CURVE SMOOTH",
"452 533 OFFCURVE",
"381 552 OFFCURVE",
"317 555 CURVE SMOOTH",
"306 555 OFFCURVE",
"83 513 OFFCURVE",
"44 554 CURVE SMOOTH",
"8 592 OFFCURVE",
"39 670 OFFCURVE",
"94 714 CURVE SMOOTH",
"164 768 OFFCURVE",
"197 756 OFFCURVE",
"269 749 CURVE SMOOTH",
"318 744 OFFCURVE",
"350 752 OFFCURVE",
"396 736 CURVE SMOOTH",
"430 724 OFFCURVE",
"462 678 OFFCURVE",
"481 648 CURVE SMOOTH",
"506 609 OFFCURVE",
"480 558 OFFCURVE",
"522 529 CURVE SMOOTH",
"531 524 OFFCURVE",
"542 519 OFFCURVE",
"558 517 CURVE SMOOTH",
"575 516 OFFCURVE",
"577 488 OFFCURVE",
"558 484 CURVE SMOOTH",
"519 477 OFFCURVE",
"506 488 OFFCURVE",
"494 473 CURVE SMOOTH",
"485 465 OFFCURVE",
"495 446 OFFCURVE",
"492 428 CURVE SMOOTH",
"488 393 OFFCURVE",
"441 349 OFFCURVE",
"406 332 CURVE SMOOTH",
"364 313 OFFCURVE",
"311 251 OFFCURVE",
"302 231 CURVE SMOOTH",
"268 151 OFFCURVE",
"387 226 OFFCURVE",
"400 211 CURVE SMOOTH",
"421 191 OFFCURVE",
"376 177 OFFCURVE",
"369 170 CURVE SMOOTH",
"344 146 OFFCURVE",
"369 133 OFFCURVE",
"392 133 CURVE SMOOTH",
"422 131 OFFCURVE",
"498 177 OFFCURVE",
"498 118 CURVE SMOOTH",
"498 107 OFFCURVE",
"495 93 OFFCURVE",
"492 80 CURVE SMOOTH",
"488 60 OFFCURVE",
"479 22 OFFCURVE",
"496 7 CURVE SMOOTH",
"507 -2 OFFCURVE",
"537 3 OFFCURVE",
"542 3 CURVE SMOOTH",
"565 4 OFFCURVE",
"597 16 OFFCURVE",
"616 21 CURVE SMOOTH",
"656 31 OFFCURVE",
"661 23 OFFCURVE",
"695 18 CURVE SMOOTH",
"735 11 OFFCURVE",
"769 7 OFFCURVE",
"768 34 CURVE SMOOTH",
"766 73 OFFCURVE",
"687 58 OFFCURVE",
"654 53 CURVE SMOOTH"
);
}
);
width = 838;
}
);
unicode = 00C6;
},
{
glyphname = B;
lastChange = "2025-03-21 16:47:30 +0000";
layers = (
{
layerId = "A0C7B77B-63B8-469F-86AF-83BC364D87BB";
paths = (
{
closed = 1;
nodes = (
"509 92 OFFCURVE",
"481 104 OFFCURVE",
"470 95 CURVE",
"455 82 OFFCURVE",
"459 44 OFFCURVE",
"443 25 CURVE",
"420 -4 OFFCURVE",
"389 -1 OFFCURVE",
"354 1 CURVE",
"292 1 OFFCURVE",
"206 29 OFFCURVE",
"145 25 CURVE",
"113 23 OFFCURVE",
"19 -1 OFFCURVE",
"-4 1 CURVE",
"-60 4 OFFCURVE",
"-4 92 OFFCURVE",
"-4 108 CURVE",
"-4 124 OFFCURVE",
"-26 136 OFFCURVE",
"-28 152 CURVE",
"-32 220 OFFCURVE",
"49 218 OFFCURVE",
"81 257 CURVE",
"90 266 OFFCURVE",
"78 282 OFFCURVE",
"66 276 CURVE",
"39 268 OFFCURVE",
"-7 255 OFFCURVE",
"-17 280 CURVE",
"-39 325 OFFCURVE",
"94 394 OFFCURVE",
"120 423 CURVE",
"135 442 OFFCURVE",
"201 519 OFFCURVE",
"161 534 CURVE",
"94 545 OFFCURVE",
"64 393 OFFCURVE",
"9 394 CURVE",
"-9 396 OFFCURVE",
"-22 406 OFFCURVE",
"-26 420 CURVE",
"-43 487 OFFCURVE",
"-2 557 OFFCURVE",
"5 618 CURVE",
"10 676 OFFCURVE",
"-22 693 OFFCURVE",
"-26 742 CURVE",
"-32 789 OFFCURVE",
"-2 831 OFFCURVE",
"51 837 CURVE",
"99 843 OFFCURVE",
"163 827 OFFCURVE",
"210 829 CURVE",
"264 829 OFFCURVE",
"317 850 OFFCURVE",
"380 829 CURVE",
"445 810 OFFCURVE",
"429 765 OFFCURVE",
"468 747 CURVE",
"506 733 OFFCURVE",
"528 722 OFFCURVE",
"533 668 CURVE",
"533 633 OFFCURVE",
"528 617 OFFCURVE",
"526 592 CURVE",
"524 562 OFFCURVE",
"533 543 OFFCURVE",
"518 505 CURVE",
"481 412 OFFCURVE",
"384 475 OFFCURVE",
"321 461 CURVE",
"303 457 OFFCURVE",
"309 432 OFFCURVE",
"326 436 CURVE",
"402 446 OFFCURVE",
"406 425 OFFCURVE",
"429 402 CURVE",
"477 357 OFFCURVE",
"533 333 OFFCURVE",
"533 289 CURVE",
"535 274 OFFCURVE",
"528 241 OFFCURVE",
"531 228 CURVE",
"539 181 OFFCURVE",
"556 159 OFFCURVE",
"533 124 CURVE"
);
},
{
closed = 1;
nodes = (
"510 227 OFFCURVE",
"532 258 OFFCURVE",
"491 302 CURVE SMOOTH",
"479 314 OFFCURVE",
"422 402 OFFCURVE",
"370 406 CURVE SMOOTH",
"332 409 OFFCURVE",
"264 361 OFFCURVE",
"242 414 CURVE SMOOTH",
"231 444 OFFCURVE",
"252 476 OFFCURVE",
"282 490 CURVE SMOOTH",
"332 518 OFFCURVE",
"360 492 OFFCURVE",
"408 498 CURVE SMOOTH",
"445 501 OFFCURVE",
"494 535 OFFCURVE",
"509 570 CURVE SMOOTH",
"525 609 OFFCURVE",
"498 622 OFFCURVE",
"486 656 CURVE SMOOTH",
"470 706 OFFCURVE",
"479 722 OFFCURVE",
"430 757 CURVE SMOOTH",
"355 810 OFFCURVE",
"182 821 OFFCURVE",
"95 804 CURVE SMOOTH",
"67 800 OFFCURVE",
"43 784 OFFCURVE",
"32 757 CURVE SMOOTH",
"0 698 OFFCURVE",
"28 665 OFFCURVE",
"24 604 CURVE SMOOTH",
"21 554 OFFCURVE",
"-18 402 OFFCURVE",
"60 492 CURVE SMOOTH",
"95 531 OFFCURVE",
"157 644 OFFCURVE",
"214 565 CURVE SMOOTH",
"250 514 OFFCURVE",
"206 461 OFFCURVE",
"170 428 CURVE SMOOTH",
"157 416 OFFCURVE",
"81 364 OFFCURVE",
"60 331 CURVE SMOOTH",
"53 320 OFFCURVE",
"64 305 OFFCURVE",
"74 308 CURVE SMOOTH",
"112 318 OFFCURVE",
"173 361 OFFCURVE",
"176 310 CURVE SMOOTH",
"180 264 OFFCURVE",
"84 236 OFFCURVE",
"56 196 CURVE SMOOTH",
"30 154 OFFCURVE",
"-14 114 OFFCURVE",
"21 73 CURVE SMOOTH",
"64 25 OFFCURVE",
"144 53 OFFCURVE",
"199 55 CURVE SMOOTH",
"275 57 OFFCURVE",
"325 34 OFFCURVE",
"401 68 CURVE SMOOTH",
"456 92 OFFCURVE",
"453 120 OFFCURVE",
"472 164 CURVE SMOOTH",
"479 177 OFFCURVE",
"500 203 OFFCURVE",
"509 222 CURVE SMOOTH"
);
}
);
width = 625;
}
);
unicode = 0042;
},
{
glyphname = C;
lastChange = "2025-03-20 14:04:32 +0000";
layers = (
{
layerId = "A0C7B77B-63B8-469F-86AF-83BC364D87BB";
paths = (
{
closed = 1;
nodes = (
"397 773 OFFCURVE",
"427 737 OFFCURVE",
"438 724 CURVE SMOOTH",
"460 698 OFFCURVE",
"499 700 OFFCURVE",
"509 665 CURVE SMOOTH",
"518 637 OFFCURVE",
"507 619 OFFCURVE",
"508 593 CURVE SMOOTH",
"508 569 OFFCURVE",
"551 498 OFFCURVE",
"515 488 CURVE SMOOTH",
"460 471 OFFCURVE",
"489 568 OFFCURVE",
"489 590 CURVE SMOOTH",
"491 644 OFFCURVE",
"466 644 OFFCURVE",
"428 701 CURVE SMOOTH",
"417 718 OFFCURVE",
"360 755 OFFCURVE",
"303 763 CURVE SMOOTH",
"290 765 OFFCURVE",
"270 767 OFFCURVE",
"257 765 CURVE SMOOTH",
"242 764 OFFCURVE",
"191 761 OFFCURVE",
"145 738 CURVE SMOOTH",
"107 720 OFFCURVE",
"73 682 OFFCURVE",
"64 674 CURVE SMOOTH",
"24 640 OFFCURVE",
"34 623 OFFCURVE",
"29 578 CURVE SMOOTH",
"26 554 OFFCURVE",
"14 480 OFFCURVE",
"35 467 CURVE SMOOTH",
"84 435 OFFCURVE",
"170 587 OFFCURVE",
"208 606 CURVE SMOOTH",
"245 625 OFFCURVE",
"282 614 OFFCURVE",
"279 569 CURVE SMOOTH",
"275 504 OFFCURVE",
"86 342 OFFCURVE",
"75 333 CURVE SMOOTH",
"57 318 OFFCURVE",
"44 311 OFFCURVE",
"53 298 CURVE",
"64 279 OFFCURVE",
"93 301 OFFCURVE",
"117 310 CURVE SMOOTH",
"137 318 OFFCURVE",
"157 301 OFFCURVE",
"152 281 CURVE SMOOTH",
"142 238 OFFCURVE",
"71 205 OFFCURVE",
"52 181 CURVE SMOOTH",
"18 137 OFFCURVE",
"75 134 OFFCURVE",
"91 98 CURVE",
"126 57 OFFCURVE",
"223 41 OFFCURVE",
"272 46 CURVE SMOOTH",
"309 50 OFFCURVE",
"348 78 OFFCURVE",
"377 94 CURVE SMOOTH",
"391 102 OFFCURVE",
"428 107 OFFCURVE",
"442 115 CURVE SMOOTH",
"485 141 OFFCURVE",
"497 208 OFFCURVE",
"484 255 CURVE SMOOTH",
"480 267 OFFCURVE",
"477 278 OFFCURVE",
"472 290 CURVE SMOOTH",
"464 311 OFFCURVE",
"479 334 OFFCURVE",
"501 333 CURVE SMOOTH",
"528 332 OFFCURVE",
"510 295 OFFCURVE",
"512 269 CURVE SMOOTH",
"515 240 OFFCURVE",
"532 210 OFFCURVE",
"523 175 CURVE SMOOTH",
"515 145 OFFCURVE",
"472 127 OFFCURVE",
"455 107 CURVE SMOOTH",
"442 91 OFFCURVE",
"446 77 OFFCURVE",
"440 60 CURVE SMOOTH",
"419 -6 OFFCURVE",
"337 14 OFFCURVE",
"271 27 CURVE SMOOTH",
"193 41 OFFCURVE",
"198 -1 OFFCURVE",
"131 9 CURVE SMOOTH",
"89 15 OFFCURVE",
"103 56 OFFCURVE",
"75 89 CURVE SMOOTH",
"52 115 OFFCURVE",
"-20 122 OFFCURVE",
"-19 169 CURVE SMOOTH",
"-18 226 OFFCURVE",
"75 216 OFFCURVE",
"98 257 CURVE SMOOTH",
"103 267 OFFCURVE",
"96 276 OFFCURVE",
"82 275 CURVE SMOOTH",
"61 273 OFFCURVE",
"6 213 OFFCURVE",
"-16 259 CURVE SMOOTH",
"-29 290 OFFCURVE",
"23 323 OFFCURVE",
"43 342 CURVE SMOOTH",
"89 387 OFFCURVE",
"163 434 OFFCURVE",
"204 485 CURVE SMOOTH",
"219 504 OFFCURVE",
"270 571 OFFCURVE",
"214 567 CURVE SMOOTH",
"190 565 OFFCURVE",
"97 472 OFFCURVE",
"80 450 CURVE SMOOTH",
"66 431 OFFCURVE",
"42 378 OFFCURVE",
"24 374 CURVE SMOOTH",
"-49 359 OFFCURVE",
"-1 487 OFFCURVE",
"1 520 CURVE SMOOTH",
"2 566 OFFCURVE",
"-30 601 OFFCURVE",
"-17 643 CURVE SMOOTH",
"-8 671 OFFCURVE",
"63 695 OFFCURVE",
"79 715 CURVE SMOOTH",
"88 727 OFFCURVE",
"94 744 OFFCURVE",
"105 758 CURVE SMOOTH",
"143 804 OFFCURVE",
"185 778 OFFCURVE",
"233 779 CURVE SMOOTH",
"276 781 OFFCURVE",
"346 816 OFFCURVE",
"382 785 CURVE SMOOTH"
);
}
);
width = 589;
}
);
unicode = 0043;
},
{
glyphname = D;
lastChange = "2025-03-21 16:47:46 +0000";
layers = (
{
layerId = "A0C7B77B-63B8-469F-86AF-83BC364D87BB";
paths = (
{
closed = 1;
nodes = (
"377 2 OFFCURVE",
"346 -5 OFFCURVE",
"305 5 CURVE",
"282 9 OFFCURVE",
"259 19 OFFCURVE",
"241 24 CURVE",
"207 32 OFFCURVE",
"172 16 OFFCURVE",
"140 8 CURVE",
"98 -2 OFFCURVE",
"-5 -6 OFFCURVE",
"-19 34 CURVE",
"-32 70 OFFCURVE",
"-9 81 OFFCURVE",
"-7 101 CURVE",
"-7 124 OFFCURVE",
"-24 136 OFFCURVE",
"-22 158 CURVE",
"-19 180 OFFCURVE",
"2 191 OFFCURVE",
"23 207 CURVE",
"35 217 OFFCURVE",
"71 250 OFFCURVE",
"76 255 CURVE",
"82 264 OFFCURVE",
"84 281 OFFCURVE",
"71 285 CURVE",
"46 292 OFFCURVE",
"10 243 OFFCURVE",
"-18 259 CURVE",
"-24 263 OFFCURVE",
"-29 270 OFFCURVE",
"-30 279 CURVE",
"-31 301 OFFCURVE",
"21 337 OFFCURVE",
"30 344 CURVE",
"77 380 OFFCURVE",
"187 495 OFFCURVE",
"228 538 CURVE",
"259 572 OFFCURVE",
"246 621 OFFCURVE",
"194 594 CURVE",
"152 572 OFFCURVE",
"119 522 OFFCURVE",
"92 482 CURVE",
"77 458 OFFCURVE",
"38 391 OFFCURVE",
"-3 394 CURVE",
"-62 399 OFFCURVE",
"-2 556 OFFCURVE",
"-2 598 CURVE",
"-2 689 OFFCURVE",
"-86 825 OFFCURVE",
"59 839 CURVE",
"110 843 OFFCURVE",
"138 821 OFFCURVE",
"180 819 CURVE",
"242 816 OFFCURVE",
"354 861 OFFCURVE",
"405 826 CURVE",
"433 805 OFFCURVE",
"437 760 OFFCURVE",
"467 743 CURVE",
"477 736 OFFCURVE",
"504 723 OFFCURVE",
"518 710 CURVE",
"536 692 OFFCURVE",
"542 656 OFFCURVE",
"543 633 CURVE",
"544 573 OFFCURVE",
"526 520 OFFCURVE",
"526 459 CURVE",
"526 383 OFFCURVE",
"526 365 OFFCURVE",
"524 289 CURVE",
"524 268 OFFCURVE",
"543 203 OFFCURVE",
"539 177 CURVE",
"532 129 OFFCURVE",
"473 110 OFFCURVE",
"447 81 CURVE",
"430 64 OFFCURVE",
"419 52 OFFCURVE",
"405 35 CURVE"
);
},
{
closed = 1;
nodes = (
"482 162 OFFCURVE",
"492 182 OFFCURVE",
"495 203 CURVE SMOOTH",
"501 250 OFFCURVE",
"502 320 OFFCURVE",
"506 401 CURVE SMOOTH",
"512 523 OFFCURVE",
"498 642 OFFCURVE",
"495 658 CURVE SMOOTH",
"485 690 OFFCURVE",
"460 723 OFFCURVE",
"444 736 CURVE SMOOTH",
"418 760 OFFCURVE",
"299 799 OFFCURVE",
"263 802 CURVE SMOOTH",
"215 807 OFFCURVE",
"99 797 OFFCURVE",
"56 774 CURVE SMOOTH",
"30 760 OFFCURVE",
"14 730 OFFCURVE",
"11 713 CURVE SMOOTH",
"6 686 OFFCURVE",
"10 579 OFFCURVE",
"15 550 CURVE SMOOTH",
"20 512 OFFCURVE",
"27 471 OFFCURVE",
"66 503 CURVE SMOOTH",
"104 534 OFFCURVE",
"126 583 OFFCURVE",
"152 611 CURVE SMOOTH",
"204 672 OFFCURVE",
"264 666 OFFCURVE",
"287 606 CURVE SMOOTH",
"310 544 OFFCURVE",
"214 469 OFFCURVE",
"173 445 CURVE SMOOTH",
"139 424 OFFCURVE",
"67 350 OFFCURVE",
"61 337 CURVE SMOOTH",
"55 327 OFFCURVE",
"63 308 OFFCURVE",
"73 306 CURVE SMOOTH",
"97 302 OFFCURVE",
"117 344 OFFCURVE",
"148 315 CURVE SMOOTH",
"184 278 OFFCURVE",
"73 217 OFFCURVE",
"55 204 CURVE SMOOTH",
"20 179 OFFCURVE",
"-10 110 OFFCURVE",
"29 70 CURVE SMOOTH",
"58 40 OFFCURVE",
"127 47 OFFCURVE",
"182 47 CURVE SMOOTH",
"212 46 OFFCURVE",
"241 46 OFFCURVE",
"269 47 CURVE SMOOTH",
"304 49 OFFCURVE",
"378 52 OFFCURVE",
"407 73 CURVE SMOOTH",
"421 84 OFFCURVE",
"451 117 OFFCURVE",
"471 145 CURVE SMOOTH"
);
}
);
width = 623;
}
);
unicode = 0044;
},
{
glyphname = E;
lastChange = "2025-03-21 16:48:09 +0000";
layers = (
{
layerId = "A0C7B77B-63B8-469F-86AF-83BC364D87BB";
paths = (
{
closed = 1;
nodes = (
"-4 86 OFFCURVE",
"55 119 OFFCURVE",
"67 125 CURVE SMOOTH",
"109 143 OFFCURVE",
"103 176 OFFCURVE",
"75 200 CURVE SMOOTH",
"36 233 OFFCURVE",
"-35 258 OFFCURVE",
"-30 308 CURVE SMOOTH",
"-27 344 OFFCURVE",
"44 330 OFFCURVE",
"49 350 CURVE SMOOTH",
"57 382 OFFCURVE",
"-2 369 OFFCURVE",
"-11 402 CURVE SMOOTH",
"-16 415 OFFCURVE",
"-4 433 OFFCURVE",
"-3 447 CURVE SMOOTH",
"-1 465 OFFCURVE",
"-55 487 OFFCURVE",
"13 494 CURVE SMOOTH",
"59 499 OFFCURVE",
"118 491 OFFCURVE",
"165 492 CURVE SMOOTH",
"194 493 OFFCURVE",
"276 491 OFFCURVE",
"318 499 CURVE SMOOTH",
"338 503 OFFCURVE",
"335 532 OFFCURVE",
"317 534 CURVE SMOOTH",
"249 540 OFFCURVE",
"152 539 OFFCURVE",
"94 526 CURVE SMOOTH",
"76 522 OFFCURVE",
"62 520 OFFCURVE",
"39 518 CURVE SMOOTH",
"-50 509 OFFCURVE",
"-2 606 OFFCURVE",
"1 656 CURVE SMOOTH",
"4 700 OFFCURVE",
"-55 790 OFFCURVE",
"-16 828 CURVE SMOOTH",
"11 855 OFFCURVE",
"135 819 OFFCURVE",
"168 817 CURVE SMOOTH",
"222 813 OFFCURVE",
"290 812 OFFCURVE",
"343 814 CURVE SMOOTH",
"382 816 OFFCURVE",
"511 852 OFFCURVE",
"541 838 CURVE SMOOTH",
"560 828 OFFCURVE",
"559 803 OFFCURVE",
"541 791 CURVE SMOOTH",
"507 768 OFFCURVE",
"411 781 OFFCURVE",
"373 785 CURVE SMOOTH",
"301 792 OFFCURVE",
"183 798 OFFCURVE",
"116 792 CURVE SMOOTH",
"78 788 OFFCURVE",
"43 784 OFFCURVE",
"28 749 CURVE SMOOTH",
"14 718 OFFCURVE",
"11 631 OFFCURVE",
"16 598 CURVE SMOOTH",
"26 534 OFFCURVE",
"200 561 OFFCURVE",
"247 564 CURVE SMOOTH",
"331 569 OFFCURVE",
"423 593 OFFCURVE",
"421 535 CURVE SMOOTH",
"418 456 OFFCURVE",
"278 462 OFFCURVE",
"228 467 CURVE SMOOTH",
"185 471 OFFCURVE",
"118 476 OFFCURVE",
"76 473 CURVE SMOOTH",
"41 470 OFFCURVE",
"23 463 OFFCURVE",
"16 450 CURVE SMOOTH",
"7 429 OFFCURVE",
"43 397 OFFCURVE",
"66 390 CURVE SMOOTH",
"89 383 OFFCURVE",
"100 367 OFFCURVE",
"91 343 CURVE SMOOTH",
"75 308 OFFCURVE",
"30 315 OFFCURVE",
"36 291 CURVE SMOOTH",
"54 231 OFFCURVE",
"130 221 OFFCURVE",
"150 186 CURVE SMOOTH",
"189 117 OFFCURVE",
"59 104 OFFCURVE",
"62 66 CURVE SMOOTH",
"64 26 OFFCURVE",
"366 55 OFFCURVE",
"440 58 CURVE SMOOTH",
"473 60 OFFCURVE",
"548 84 OFFCURVE",
"557 43 CURVE SMOOTH",
"565 2 OFFCURVE",
"504 1 OFFCURVE",
"481 0 CURVE",
"431 -1 OFFCURVE",
"345 20 OFFCURVE",
"290 26 CURVE SMOOTH",
"250 30 OFFCURVE",
"155 21 OFFCURVE",
"114 10 CURVE SMOOTH",
"81 3 OFFCURVE",
"34 -2 OFFCURVE",
"2 3 CURVE SMOOTH",
"-30 9 OFFCURVE",
"-37 52 OFFCURVE",
"-19 71 CURVE SMOOTH"
);
}
);
width = 638;
}
);
unicode = 0045;
},
{
glyphname = F;
lastChange = "2025-03-21 16:48:27 +0000";
layers = (
{
layerId = "A0C7B77B-63B8-469F-86AF-83BC364D87BB";
paths = (
{
closed = 1;
nodes = (
"567 832 OFFCURVE",
"576 810 OFFCURVE",
"563 793 CURVE SMOOTH",
"546 770 OFFCURVE",
"427 791 OFFCURVE",
"405 796 CURVE SMOOTH",
"344 807 OFFCURVE",
"101 806 OFFCURVE",
"67 779 CURVE SMOOTH",
"58 771 OFFCURVE",
"47 759 OFFCURVE",
"37 736 CURVE SMOOTH",
"25 706 OFFCURVE",
"22 644 OFFCURVE",
"29 627 CURVE SMOOTH",
"54 564 OFFCURVE",
"90 553 OFFCURVE",
"146 558 CURVE SMOOTH",
"214 564 OFFCURVE",
"330 597 OFFCURVE",
"398 593 CURVE SMOOTH",
"441 591 OFFCURVE",
"442 563 OFFCURVE",
"433 527 CURVE SMOOTH",
"410 443 OFFCURVE",
"297 471 OFFCURVE",
"220 477 CURVE SMOOTH",
"185 481 OFFCURVE",
"92 474 OFFCURVE",
"63 472 CURVE SMOOTH",
"34 471 OFFCURVE",
"10 433 OFFCURVE",
"53 399 CURVE SMOOTH",
"70 385 OFFCURVE",
"104 395 OFFCURVE",
"106 354 CURVE SMOOTH",
"107 322 OFFCURVE",
"67 317 OFFCURVE",
"60 306 CURVE SMOOTH",
"45 280 OFFCURVE",
"75 243 OFFCURVE",
"96 232 CURVE SMOOTH",
"128 217 OFFCURVE",
"185 216 OFFCURVE",
"185 164 CURVE SMOOTH",
"185 113 OFFCURVE",
"128 126 OFFCURVE",
"107 108 CURVE SMOOTH",
"87 90 OFFCURVE",
"60 38 OFFCURVE",
"42 14 CURVE SMOOTH",
"18 -21 OFFCURVE",
"-36 16 OFFCURVE",
"-15 53 CURVE SMOOTH",
"11 95 OFFCURVE",
"123 95 OFFCURVE",
"107 178 CURVE SMOOTH",
"93 244 OFFCURVE",
"9 234 OFFCURVE",
"-3 280 CURVE SMOOTH",
"-15 320 OFFCURVE",
"51 319 OFFCURVE",
"53 354 CURVE SMOOTH",
"55 390 OFFCURVE",
"9 397 OFFCURVE",
"1 412 CURVE SMOOTH",
"-6 425 OFFCURVE",
"10 440 OFFCURVE",
"6 455 CURVE SMOOTH",
"1 471 OFFCURVE",
"-47 500 OFFCURVE",
"0 509 CURVE SMOOTH",
"60 522 OFFCURVE",
"120 505 OFFCURVE",
"164 499 CURVE SMOOTH",
"193 495 OFFCURVE",
"310 492 OFFCURVE",
"336 502 CURVE SMOOTH",
"357 510 OFFCURVE",
"366 535 OFFCURVE",
"330 539 CURVE SMOOTH",
"283 544 OFFCURVE",
"186 545 OFFCURVE",
"137 542 CURVE SMOOTH",
"116 541 OFFCURVE",
"58 529 OFFCURVE",
"33 528 CURVE SMOOTH",
"6 526 OFFCURVE",
"-14 536 OFFCURVE",
"-17 563 CURVE SMOOTH",
"-24 615 OFFCURVE",
"20 662 OFFCURVE",
"4 724 CURVE SMOOTH",
"-3 754 OFFCURVE",
"-36 793 OFFCURVE",
"-9 826 CURVE SMOOTH",
"19 858 OFFCURVE",
"94 829 OFFCURVE",
"131 826 CURVE SMOOTH",
"217 819 OFFCURVE",
"375 812 OFFCURVE",
"460 830 CURVE SMOOTH",
"502 838 OFFCURVE",
"531 845 OFFCURVE",
"548 839 CURVE SMOOTH"
);
}
);
width = 619;
}
);
unicode = 0046;
},
{
glyphname = G;
lastChange = "2025-03-21 16:48:51 +0000";
layers = (
{
layerId = "A0C7B77B-63B8-469F-86AF-83BC364D87BB";
paths = (
{
closed = 1;
nodes = (
"502 709 OFFCURVE",
"563 732 OFFCURVE",
"547 660 CURVE SMOOTH",
"544 643 OFFCURVE",
"527 630 OFFCURVE",
"527 622 CURVE SMOOTH",
"524 593 OFFCURVE",
"568 541 OFFCURVE",
"541 528 CURVE SMOOTH",
"518 516 OFFCURVE",
"507 527 OFFCURVE",
"502 548 CURVE SMOOTH",
"496 571 OFFCURVE",
"511 599 OFFCURVE",
"512 622 CURVE SMOOTH",
"512 653 OFFCURVE",
"481 712 OFFCURVE",
"457 734 CURVE SMOOTH",
"428 760 OFFCURVE",
"406 783 OFFCURVE",
"373 794 CURVE SMOOTH",
"346 802 OFFCURVE",
"305 797 OFFCURVE",
"277 802 CURVE SMOOTH",
"221 812 OFFCURVE",
"117 776 OFFCURVE",
"74 739 CURVE SMOOTH",
"38 707 OFFCURVE",
"46 707 OFFCURVE",
"33 673 CURVE SMOOTH",
"25 650 OFFCURVE",
"-11 608 OFFCURVE",
"30 608 CURVE SMOOTH",
"67 607 OFFCURVE",
"107 668 OFFCURVE",
"142 699 CURVE SMOOTH",
"208 755 OFFCURVE",
"304 632 OFFCURVE",
"219 585 CURVE SMOOTH",
"167 557 OFFCURVE",
"119 531 OFFCURVE",
"76 488 CURVE SMOOTH",
"65 478 OFFCURVE",
"57 470 OFFCURVE",
"57 458 CURVE SMOOTH",
"54 397 OFFCURVE",
"133 473 OFFCURVE",
"157 441 CURVE SMOOTH",
"179 412 OFFCURVE",
"97 370 OFFCURVE",
"82 359 CURVE SMOOTH",
"65 348 OFFCURVE",
"27 311 OFFCURVE",
"29 290 CURVE SMOOTH",
"34 249 OFFCURVE",
"112 254 OFFCURVE",
"82 216 CURVE SMOOTH",
"61 188 OFFCURVE",
"38 198 OFFCURVE",
"34 171 CURVE SMOOTH",
"29 128 OFFCURVE",
"129 66 OFFCURVE",
"187 50 CURVE SMOOTH",
"241 33 OFFCURVE",
"359 55 OFFCURVE",
"412 86 CURVE SMOOTH",
"447 106 OFFCURVE",
"469 122 OFFCURVE",
"485 160 CURVE SMOOTH",
"492 177 OFFCURVE",
"507 219 OFFCURVE",
"508 234 CURVE SMOOTH",
"511 283 OFFCURVE",
"481 342 OFFCURVE",
"429 346 CURVE SMOOTH",
"396 348 OFFCURVE",
"317 298 OFFCURVE",
"305 354 CURVE SMOOTH",
"297 396 OFFCURVE",
"340 384 OFFCURVE",
"355 404 CURVE SMOOTH",
"362 413 OFFCURVE",
"356 430 OFFCURVE",
"368 441 CURVE SMOOTH",
"404 472 OFFCURVE",
"423 432 OFFCURVE",
"449 433 CURVE SMOOTH",
"469 433 OFFCURVE",
"507 460 OFFCURVE",
"524 458 CURVE SMOOTH",
"550 456 OFFCURVE",
"559 434 OFFCURVE",
"549 409 CURVE SMOOTH",
"531 362 OFFCURVE",
"469 415 OFFCURVE",
"436 415 CURVE SMOOTH",
"415 416 OFFCURVE",
"361 409 OFFCURVE",
"372 381 CURVE SMOOTH",
"384 351 OFFCURVE",
"488 393 OFFCURVE",
"523 359 CURVE SMOOTH",
"545 336 OFFCURVE",
"524 269 OFFCURVE",
"526 247 CURVE SMOOTH",
"528 229 OFFCURVE",
"548 197 OFFCURVE",
"547 173 CURVE SMOOTH",
"544 142 OFFCURVE",
"503 141 OFFCURVE",
"473 108 CURVE SMOOTH",
"457 89 OFFCURVE",
"469 68 OFFCURVE",
"449 51 CURVE SMOOTH",
"391 4 OFFCURVE",
"354 32 OFFCURVE",
"295 30 CURVE SMOOTH",
"232 27 OFFCURVE",
"167 -17 OFFCURVE",
"110 12 CURVE SMOOTH",
"72 30 OFFCURVE",
"96 83 OFFCURVE",
"36 115 CURVE SMOOTH",
"17 125 OFFCURVE",
"-28 139 OFFCURVE",
"-30 168 CURVE SMOOTH",
"-33 202 OFFCURVE",
"28 195 OFFCURVE",
"28 234 CURVE SMOOTH",
"28 259 OFFCURVE",
"-11 265 OFFCURVE",
"-21 281 CURVE SMOOTH",
"-50 328 OFFCURVE",
"65 339 OFFCURVE",
"81 392 CURVE SMOOTH",
"84 403 OFFCURVE",
"80 413 OFFCURVE",
"69 408 CURVE SMOOTH",
"47 396 OFFCURVE",
"10 386 OFFCURVE",
"-13 408 CURVE SMOOTH",
"-41 436 OFFCURVE",
"-3 484 OFFCURVE",
"21 500 CURVE SMOOTH",
"69 534 OFFCURVE",
"213 602 OFFCURVE",
"188 662 CURVE SMOOTH",
"184 671 OFFCURVE",
"180 672 OFFCURVE",
"171 674 CURVE SMOOTH",
"95 684 OFFCURVE",
"61 528 OFFCURVE",
"-4 534 CURVE SMOOTH",
"-35 536 OFFCURVE",
"-1 594 OFFCURVE",
"-3 610 CURVE SMOOTH",
"-5 629 OFFCURVE",
"-32 632 OFFCURVE",
"-30 667 CURVE SMOOTH",
"-29 702 OFFCURVE",
"39 727 OFFCURVE",
"54 748 CURVE SMOOTH",
"76 777 OFFCURVE",
"55 819 OFFCURVE",
"94 836 CURVE SMOOTH",
"139 854 OFFCURVE",
"187 821 OFFCURVE",
"232 819 CURVE SMOOTH",
"282 817 OFFCURVE",
"352 850 OFFCURVE",
"393 840 CURVE SMOOTH",
"441 829 OFFCURVE",
"438 768 OFFCURVE",
"467 742 CURVE SMOOTH"
);
}
);
width = 633;
}
);
unicode = 0047;
},
{
glyphname = H;
lastChange = "2025-03-21 16:49:06 +0000";
layers = (
{
layerId = "A0C7B77B-63B8-469F-86AF-83BC364D87BB";
paths = (
{
closed = 1;
nodes = (
"52 552 OFFCURVE",
"148 556 OFFCURVE",
"174 558 CURVE",
"212 564 OFFCURVE",
"301 580 OFFCURVE",
"350 580 CURVE",
"388 579 OFFCURVE",
"425 573 OFFCURVE",
"405 530 CURVE",
"385 484 OFFCURVE",
"350 470 OFFCURVE",
"335 467 CURVE",
"263 446 OFFCURVE",
"168 461 OFFCURVE",
"98 477 CURVE",
"79 482 OFFCURVE",
"13 489 OFFCURVE",
"17 439 CURVE",
"20 405 OFFCURVE",
"67 375 OFFCURVE",
"100 356 CURVE",
"129 339 OFFCURVE",
"165 329 OFFCURVE",
"165 294 CURVE",
"165 243 OFFCURVE",
"77 251 OFFCURVE",
"59 202 CURVE",
"54 191 OFFCURVE",
"57 179 OFFCURVE",
"52 167 CURVE",
"45 149 OFFCURVE",
"11 130 OFFCURVE",
"11 116 CURVE",
"12 94 OFFCURVE",
"47 34 OFFCURVE",
"22 10 CURVE",
"12 0 OFFCURVE",
"-6 0 OFFCURVE",
"-18 8 CURVE",
"-49 29 OFFCURVE",
"-8 92 OFFCURVE",
"-8 116 CURVE",
"-8 125 OFFCURVE",
"-14 139 OFFCURVE",
"-16 151 CURVE",
"-24 219 OFFCURVE",
"102 234 OFFCURVE",
"99 298 CURVE",
"96 355 OFFCURVE",
"1 347 OFFCURVE",
"-14 385 CURVE",
"-27 416 OFFCURVE",
"-1 428 OFFCURVE",
"-6 448 CURVE",
"-10 468 OFFCURVE",
"-34 477 OFFCURVE",
"-21 497 CURVE",
"-6 515 OFFCURVE",
"44 497 OFFCURVE",
"67 498 CURVE",
"157 500 OFFCURVE",
"270 489 OFFCURVE",
"320 504 CURVE",
"324 505 OFFCURVE",
"328 512 OFFCURVE",
"328 518 CURVE",
"329 526 OFFCURVE",
"322 534 OFFCURVE",
"314 536 CURVE",
"297 543 OFFCURVE",
"284 542 OFFCURVE",
"267 543 CURVE",
"221 548 OFFCURVE",
"157 544 OFFCURVE",
"111 539 CURVE",
"77 536 OFFCURVE",
"25 518 OFFCURVE",
"-6 527 CURVE",
"-58 544 OFFCURVE",
"-9 615 OFFCURVE",
"-6 649 CURVE",
"-1 701 OFFCURVE",
"-32 766 OFFCURVE",
"-30 818 CURVE",
"-24 847 OFFCURVE",
"23 851 OFFCURVE",
"27 818 CURVE",
"39 735 OFFCURVE",
"-22 647 OFFCURVE",
"33 576 CURVE"
);
},
{
closed = 1;
nodes = (
"419 370 OFFCURVE",
"357 385 OFFCURVE",
"362 424 CURVE SMOOTH",
"366 460 OFFCURVE",
"429 474 OFFCURVE",
"453 498 CURVE SMOOTH",
"458 503 OFFCURVE",
"495 539 OFFCURVE",
"497 564 CURVE SMOOTH",
"507 634 OFFCURVE",
"518 674 OFFCURVE",
"493 776 CURVE SMOOTH",
"486 798 OFFCURVE",
"493 841 OFFCURVE",
"524 840 CURVE SMOOTH",
"590 836 OFFCURVE",
"528 718 OFFCURVE",
"526 684 CURVE SMOOTH",
"522 637 OFFCURVE",
"541 598 OFFCURVE",
"533 549 CURVE SMOOTH",
"521 486 OFFCURVE",
"410 463 OFFCURVE",
"413 422 CURVE SMOOTH",
"417 379 OFFCURVE",
"531 353 OFFCURVE",
"533 311 CURVE SMOOTH",
"537 258 OFFCURVE",
"478 268 OFFCURVE",
"477 232 CURVE SMOOTH",
"474 194 OFFCURVE",
"545 204 OFFCURVE",
"533 150 CURVE SMOOTH",
"532 138 OFFCURVE",
"522 120 OFFCURVE",
"522 109 CURVE SMOOTH",
"522 92 OFFCURVE",
"548 69 OFFCURVE",
"545 27 CURVE SMOOTH",
"542 -15 OFFCURVE",
"484 -3 OFFCURVE",
"496 53 CURVE SMOOTH",
"505 95 OFFCURVE",
"523 89 OFFCURVE",
"500 149 CURVE SMOOTH",
"482 199 OFFCURVE",
"430 200 OFFCURVE",
"430 229 CURVE SMOOTH",
"431 259 OFFCURVE",
"485 237 OFFCURVE",
"485 301 CURVE SMOOTH",
"485 313 OFFCURVE",
"461 346 OFFCURVE",
"442 356 CURVE SMOOTH"
);
}
);
width = 634;
}
);
unicode = 0048;
},
{
glyphname = I;
lastChange = "2025-03-21 17:06:39 +0000";
layers = (
{
layerId = "A0C7B77B-63B8-469F-86AF-83BC364D87BB";
paths = (
{
closed = 1;
nodes = (
"111 228 OFFCURVE",
"81 160 OFFCURVE",
"81 138 CURVE SMOOTH",
"81 118 OFFCURVE",
"117 0 OFFCURVE",
"77 -1 CURVE SMOOTH",
"39 -1 OFFCURVE",
"51 72 OFFCURVE",
"65 132 CURVE SMOOTH",
"72 168 OFFCURVE",
"64 207 OFFCURVE",
"53 215 CURVE SMOOTH",
"32 234 OFFCURVE",
"-12 198 OFFCURVE",
"-19 220 CURVE SMOOTH",
"-25 237 OFFCURVE",
"10 249 OFFCURVE",
"31 263 CURVE SMOOTH",
"73 296 OFFCURVE",
"81 392 OFFCURVE",
"48 434 CURVE SMOOTH",
"30 456 OFFCURVE",
"-20 443 OFFCURVE",
"-19 482 CURVE SMOOTH",
"-19 513 OFFCURVE",
"9 518 OFFCURVE",
"32 515 CURVE SMOOTH",
"44 513 OFFCURVE",
"78 484 OFFCURVE",
"86 500 CURVE SMOOTH",
"109 545 OFFCURVE",
"-12 554 OFFCURVE",
"-16 611 CURVE SMOOTH",
"-20 666 OFFCURVE",
"35 642 OFFCURVE",
"57 682 CURVE SMOOTH",
"66 696 OFFCURVE",
"69 731 OFFCURVE",
"68 750 CURVE SMOOTH",
"68 771 OFFCURVE",
"27 838 OFFCURVE",
"79 840 CURVE SMOOTH",
"125 840 OFFCURVE",
"82 768 OFFCURVE",
"81 748 CURVE SMOOTH",
"79 713 OFFCURVE",
"106 690 OFFCURVE",
"88 655 CURVE SMOOTH",
"76 633 OFFCURVE",
"44 641 OFFCURVE",
"37 623 CURVE SMOOTH",
"16 572 OFFCURVE",
"171 543 OFFCURVE",
"163 481 CURVE SMOOTH",
"155 420 OFFCURVE",
"64 493 OFFCURVE",
"50 469 CURVE SMOOTH",
"43 454 OFFCURVE",
"72 447 OFFCURVE",
"88 439 CURVE SMOOTH",
"132 413 OFFCURVE",
"83 389 OFFCURVE",
"82 367 CURVE SMOOTH",
"81 339 OFFCURVE",
"105 320 OFFCURVE",
"97 290 CURVE SMOOTH",
"86 257 OFFCURVE",
"41 258 OFFCURVE",
"47 243 CURVE SMOOTH",
"50 237 OFFCURVE",
"74 251 OFFCURVE",
"91 240 CURVE SMOOTH"
);
}
);
width = 233;
}
);
unicode = 0049;
},
{
glyphname = J;
lastChange = "2025-03-21 16:49:41 +0000";
layers = (
{
layerId = "A0C7B77B-63B8-469F-86AF-83BC364D87BB";
paths = (
{
closed = 1;
nodes = (
"364 506 OFFCURVE",
"328 461 OFFCURVE",
"358 441 CURVE SMOOTH",
"407 408 OFFCURVE",
"478 580 OFFCURVE",
"525 572 CURVE SMOOTH",
"566 564 OFFCURVE",
"559 433 OFFCURVE",
"520 387 CURVE SMOOTH",
"498 361 OFFCURVE",
"421 329 OFFCURVE",
"420 300 CURVE SMOOTH",
"420 221 OFFCURVE",
"529 243 OFFCURVE",
"537 172 CURVE SMOOTH",
"544 117 OFFCURVE",
"474 119 OFFCURVE",
"455 88 CURVE SMOOTH",
"448 79 OFFCURVE",
"437 54 OFFCURVE",
"405 31 CURVE SMOOTH",
"347 -9 OFFCURVE",
"150 -7 OFFCURVE",
"106 31 CURVE SMOOTH",
"86 47 OFFCURVE",
"70 84 OFFCURVE",
"62 93 CURVE SMOOTH",
"49 108 OFFCURVE",
"-1 108 OFFCURVE",
"-12 150 CURVE SMOOTH",
"-18 169 OFFCURVE",
"-3 205 OFFCURVE",
"-3 216 CURVE SMOOTH",
"-1 255 OFFCURVE",
"-62 323 OFFCURVE",
"-6 331 CURVE SMOOTH",
"54 337 OFFCURVE",
"8 251 OFFCURVE",
"14 217 CURVE SMOOTH",
"18 186 OFFCURVE",
"51 131 OFFCURVE",
"69 112 CURVE SMOOTH",
"132 41 OFFCURVE",
"262 37 OFFCURVE",
"322 47 CURVE SMOOTH",
"338 50 OFFCURVE",
"390 58 OFFCURVE",
"437 92 CURVE SMOOTH",
"477 123 OFFCURVE",
"475 167 OFFCURVE",
"455 212 CURVE SMOOTH",
"435 255 OFFCURVE",
"350 223 OFFCURVE",
"365 297 CURVE SMOOTH",
"372 332 OFFCURVE",
"417 340 OFFCURVE",
"443 360 CURVE SMOOTH",
"475 385 OFFCURVE",
"519 433 OFFCURVE",
"507 473 CURVE SMOOTH",
"503 488 OFFCURVE",
"488 502 OFFCURVE",
"467 483 CURVE SMOOTH",
"452 470 OFFCURVE",
"441 451 OFFCURVE",
"427 431 CURVE SMOOTH",
"412 412 OFFCURVE",
"359 381 OFFCURVE",
"319 393 CURVE SMOOTH",
"315 394 OFFCURVE",
"269 409 OFFCURVE",
"283 464 CURVE SMOOTH",
"288 479 OFFCURVE",
"306 502 OFFCURVE",
"319 511 CURVE SMOOTH",
"350 533 OFFCURVE",
"421 579 OFFCURVE",
"445 621 CURVE SMOOTH",
"451 632 OFFCURVE",
"464 658 OFFCURVE",
"470 669 CURVE SMOOTH",
"489 706 OFFCURVE",
"519 698 OFFCURVE",
"511 742 CURVE SMOOTH",
"506 771 OFFCURVE",
"466 834 OFFCURVE",
"515 841 CURVE SMOOTH",
"563 847 OFFCURVE",
"524 768 OFFCURVE",
"526 747 CURVE SMOOTH",
"528 728 OFFCURVE",
"536 719 OFFCURVE",
"538 704 CURVE SMOOTH",
"555 601 OFFCURVE",
"431 588 OFFCURVE",
"381 527 CURVE SMOOTH"
);
}
);
width = 633;
}
);
unicode = 004A;
},
{
glyphname = K;
lastChange = "2025-03-21 16:49:56 +0000";
layers = (
{
layerId = "A0C7B77B-63B8-469F-86AF-83BC364D87BB";
paths = (
{
closed = 1;
nodes = (
"574 807 OFFCURVE",
"540 777 OFFCURVE",
"507 778 CURVE",
"485 779 OFFCURVE",
"436 807 OFFCURVE",
"416 799 CURVE",
"402 793 OFFCURVE",
"398 784 OFFCURVE",
"381 775 CURVE",
"327 747 OFFCURVE",
"320 717 OFFCURVE",
"268 667 CURVE",
"232 631 OFFCURVE",
"147 574 OFFCURVE",
"181 532 CURVE",
"197 513 OFFCURVE",
"236 516 OFFCURVE",
"226 481 CURVE",
"218 456 OFFCURVE",
"185 454 OFFCURVE",
"174 445 CURVE",
"161 434 OFFCURVE",
"159 417 OFFCURVE",
"170 404 CURVE",
"181 390 OFFCURVE",
"226 340 OFFCURVE",
"243 330 CURVE",
"316 284 OFFCURVE",
"348 343 OFFCURVE",
"390 331 CURVE",
"442 318 OFFCURVE",
"408 255 OFFCURVE",
"403 230 CURVE",
"398 200 OFFCURVE",
"423 147 OFFCURVE",
"445 126 CURVE",
"462 109 OFFCURVE",
"585 34 OFFCURVE",
"546 6 CURVE",
"507 -20 OFFCURVE",
"457 88 OFFCURVE",
"439 108 CURVE",
"409 141 OFFCURVE",
"359 115 OFFCURVE",
"376 195 CURVE",
"382 224 OFFCURVE",
"393 261 OFFCURVE",
"365 281 CURVE",
"345 295 OFFCURVE",
"287 244 OFFCURVE",
"245 271 CURVE",
"233 279 OFFCURVE",
"206 338 OFFCURVE",
"194 352 CURVE",
"173 380 OFFCURVE",
"100 389 OFFCURVE",
"100 432 CURVE",
"100 479 OFFCURVE",
"169 458 OFFCURVE",
"170 487 CURVE",
"171 516 OFFCURVE",
"126 511 OFFCURVE",
"109 532 CURVE",
"97 547 OFFCURVE",
"96 566 OFFCURVE",
"110 580 CURVE",
"141 613 OFFCURVE",
"219 656 OFFCURVE",
"255 688 CURVE",
"299 724 OFFCURVE",
"327 816 OFFCURVE",
"384 824 CURVE",
"400 826 OFFCURVE",
"415 823 OFFCURVE",
"430 826 CURVE",
"456 830 OFFCURVE",
"522 850 OFFCURVE",
"542 833 CURVE"
);
},
{
closed = 1;
nodes = (
"61 785 OFFCURVE",
"-21 602 OFFCURVE",
"32 552 CURVE SMOOTH",
"47 536 OFFCURVE",
"92 520 OFFCURVE",
"91 487 CURVE SMOOTH",
"89 454 OFFCURVE",
"44 455 OFFCURVE",
"38 430 CURVE SMOOTH",
"31 403 OFFCURVE",
"49 395 OFFCURVE",
"71 379 CURVE SMOOTH",
"91 365 OFFCURVE",
"146 349 OFFCURVE",
"149 314 CURVE SMOOTH",
"154 263 OFFCURVE",
"110 248 OFFCURVE",
"75 219 CURVE SMOOTH",
"39 190 OFFCURVE",
"15 160 OFFCURVE",
"16 116 CURVE SMOOTH",
"16 83 OFFCURVE",
"39 1 OFFCURVE",
"6 1 CURVE SMOOTH",
"-47 0 OFFCURVE",
"-2 84 OFFCURVE",
"-3 111 CURVE SMOOTH",
"-4 134 OFFCURVE",
"-32 149 OFFCURVE",
"-29 175 CURVE SMOOTH",
"-23 214 OFFCURVE",
"31 210 OFFCURVE",
"57 230 CURVE SMOOTH",
"76 245 OFFCURVE",
"82 284 OFFCURVE",
"82 308 CURVE SMOOTH",
"82 388 OFFCURVE",
"-27 361 OFFCURVE",
"-27 423 CURVE SMOOTH",
"-27 457 OFFCURVE",
"39 458 OFFCURVE",
"45 482 CURVE SMOOTH",
"52 511 OFFCURVE",
"-6 538 OFFCURVE",
"-17 552 CURVE SMOOTH",
"-42 585 OFFCURVE",
"-5 644 OFFCURVE",
"-2 679 CURVE SMOOTH",
"4 732 OFFCURVE",
"-25 750 OFFCURVE",
"-30 792 CURVE SMOOTH",
"-33 833 OFFCURVE",
"0 855 OFFCURVE",
"20 831 CURVE SMOOTH"
);
}
);
width = 635;
}
);
unicode = 004B;
},
{
glyphname = L;
lastChange = "2025-03-21 16:52:47 +0000";
layers = (
{
layerId = "A0C7B77B-63B8-469F-86AF-83BC364D87BB";
paths = (
{
closed = 1;
nodes = (
"40 710 OFFCURVE",
"30 675 OFFCURVE",
"45 659 CURVE SMOOTH",
"76 625 OFFCURVE",
"166 600 OFFCURVE",
"156 550 CURVE SMOOTH",
"151 524 OFFCURVE",
"90 493 OFFCURVE",
"73 479 CURVE SMOOTH",
"55 464 OFFCURVE",
"5 431 OFFCURVE",
"39 402 CURVE SMOOTH",
"56 388 OFFCURVE",
"92 387 OFFCURVE",
"95 373 CURVE SMOOTH",
"101 344 OFFCURVE",
"49 325 OFFCURVE",
"40 318 CURVE SMOOTH",
"33 313 OFFCURVE",
"24 308 OFFCURVE",
"18 282 CURVE SMOOTH",
"15 266 OFFCURVE",
"16 188 OFFCURVE",
"15 167 CURVE SMOOTH",
"14 144 OFFCURVE",
"5 92 OFFCURVE",
"33 70 CURVE SMOOTH",
"75 35 OFFCURVE",
"173 44 OFFCURVE",
"225 44 CURVE SMOOTH",
"280 43 OFFCURVE",
"333 44 OFFCURVE",
"388 52 CURVE SMOOTH",
"431 58 OFFCURVE",
"557 84 OFFCURVE",
"561 41 CURVE SMOOTH",
"567 -34 OFFCURVE",
"439 24 OFFCURVE",
"393 27 CURVE SMOOTH",
"323 31 OFFCURVE",
"20 -28 OFFCURVE",
"-16 21 CURVE SMOOTH",
"-43 58 OFFCURVE",
"-12 119 OFFCURVE",
"-6 158 CURVE SMOOTH",
"-2 178 OFFCURVE",
"2 224 OFFCURVE",
"-6 243 CURVE SMOOTH",
"-10 255 OFFCURVE",
"-26 281 OFFCURVE",
"-27 294 CURVE SMOOTH",
"-29 350 OFFCURVE",
"51 333 OFFCURVE",
"46 363 CURVE SMOOTH",
"41 393 OFFCURVE",
"-14 383 OFFCURVE",
"-25 411 CURVE SMOOTH",
"-49 471 OFFCURVE",
"98 457 OFFCURVE",
"92 556 CURVE SMOOTH",
"86 631 OFFCURVE",
"-35 620 OFFCURVE",
"-30 676 CURVE SMOOTH",
"-26 716 OFFCURVE",
"34 723 OFFCURVE",
"61 751 CURVE SMOOTH",
"80 772 OFFCURVE",
"107 857 OFFCURVE",
"141 840 CURVE SMOOTH",
"157 832 OFFCURVE",
"165 804 OFFCURVE",
"141 783 CURVE SMOOTH",
"115 762 OFFCURVE",
"87 748 OFFCURVE",
"62 727 CURVE SMOOTH"
);
}
);
width = 641;
}
);
unicode = 004C;
},
{
glyphname = M;
lastChange = "2025-03-21 16:52:59 +0000";
layers = (
{
layerId = "A0C7B77B-63B8-469F-86AF-83BC364D87BB";
paths = (
{
closed = 1;
nodes = (
"207 611 OFFCURVE",
"227 593 OFFCURVE",
"257 592 CURVE SMOOTH",
"291 590 OFFCURVE",
"341 660 OFFCURVE",
"352 671 CURVE SMOOTH",
"367 687 OFFCURVE",
"476 842 OFFCURVE",
"514 840 CURVE SMOOTH",
"582 836 OFFCURVE",
"525 693 OFFCURVE",
"524 661 CURVE SMOOTH",
"523 619 OFFCURVE",
"567 560 OFFCURVE",
"536 523 CURVE SMOOTH",
"520 504 OFFCURVE",
"482 518 OFFCURVE",
"482 490 CURVE SMOOTH",
"483 464 OFFCURVE",
"521 459 OFFCURVE",
"535 443 CURVE SMOOTH",
"558 417 OFFCURVE",
"546 387 OFFCURVE",
"527 370 CURVE SMOOTH",
"504 351 OFFCURVE",
"414 304 OFFCURVE",
"404 287 CURVE SMOOTH",
"392 266 OFFCURVE",
"413 248 OFFCURVE",
"429 247 CURVE SMOOTH",
"465 244 OFFCURVE",
"499 267 OFFCURVE",
"529 258 CURVE SMOOTH",
"569 247 OFFCURVE",
"517 173 OFFCURVE",
"519 146 CURVE SMOOTH",
"521 111 OFFCURVE",
"549 -14 OFFCURVE",
"507 1 CURVE SMOOTH",
"448 21 OFFCURVE",
"547 142 OFFCURVE",
"486 199 CURVE SMOOTH",
"428 253 OFFCURVE",
"354 174 OFFCURVE",
"313 209 CURVE SMOOTH",
"295 224 OFFCURVE",
"299 253 OFFCURVE",
"314 268 CURVE SMOOTH",
"350 305 OFFCURVE",
"471 370 OFFCURVE",
"486 407 CURVE SMOOTH",
"508 464 OFFCURVE",
"426 438 OFFCURVE",
"429 486 CURVE SMOOTH",
"430 514 OFFCURVE",
"494 539 OFFCURVE",
"498 572 CURVE SMOOTH",
"502 603 OFFCURVE",
"515 727 OFFCURVE",
"490 747 CURVE SMOOTH",
"478 756 OFFCURVE",
"465 750 OFFCURVE",
"457 740 CURVE SMOOTH",
"446 728 OFFCURVE",
"448 686 OFFCURVE",
"434 669 CURVE SMOOTH",
"414 643 OFFCURVE",
"369 653 OFFCURVE",
"351 628 CURVE SMOOTH",
"334 605 OFFCURVE",
"343 557 OFFCURVE",
"320 535 CURVE SMOOTH",
"254 466 OFFCURVE",
"201 578 OFFCURVE",
"170 622 CURVE SMOOTH",
"149 652 OFFCURVE",
"44 753 OFFCURVE",
"15 723 CURVE SMOOTH",
"-4 702 OFFCURVE",
"63 620 OFFCURVE",
"91 601 CURVE SMOOTH",
"117 584 OFFCURVE",
"168 576 OFFCURVE",
"165 550 CURVE SMOOTH",
"160 489 OFFCURVE",
"15 504 OFFCURVE",
"42 406 CURVE SMOOTH",
"62 333 OFFCURVE",
"178 360 OFFCURVE",
"166 289 CURVE SMOOTH",
"161 260 OFFCURVE",
"93 236 OFFCURVE",
"67 220 CURVE SMOOTH",
"35 200 OFFCURVE",
"8 157 OFFCURVE",
"7 118 CURVE SMOOTH",
"7 88 OFFCURVE",
"51 -1 OFFCURVE",
"3 1 CURVE SMOOTH",
"-56 4 OFFCURVE",
"-6 86 OFFCURVE",
"-7 111 CURVE SMOOTH",
"-8 126 OFFCURVE",
"-27 151 OFFCURVE",
"-27 169 CURVE SMOOTH",
"-29 247 OFFCURVE",
"59 207 OFFCURVE",
"84 263 CURVE SMOOTH",
"91 277 OFFCURVE",
"101 319 OFFCURVE",
"59 345 CURVE SMOOTH",
"39 357 OFFCURVE",
"-18 381 OFFCURVE",
"-27 408 CURVE SMOOTH",
"-49 470 OFFCURVE",
"44 481 OFFCURVE",
"63 493 CURVE SMOOTH",
"78 504 OFFCURVE",
"106 520 OFFCURVE",
"102 556 CURVE SMOOTH",
"100 583 OFFCURVE",
"-1 618 OFFCURVE",
"-23 669 CURVE SMOOTH",
"-36 696 OFFCURVE",
"-8 708 OFFCURVE",
"-8 730 CURVE SMOOTH",
"-9 747 OFFCURVE",
"-23 770 OFFCURVE",
"-22 790 CURVE SMOOTH",
"-21 836 OFFCURVE",
"13 851 OFFCURVE",
"32 833 CURVE SMOOTH",
"94 775 OFFCURVE",
"129 686 OFFCURVE",
"190 627 CURVE SMOOTH"
);
}
);
width = 628;
}
);
unicode = 004D;
},
{
glyphname = N;
lastChange = "2025-03-21 16:53:16 +0000";
layers = (
{
layerId = "A0C7B77B-63B8-469F-86AF-83BC364D87BB";
paths = (
{
closed = 1;
nodes = (
"313 384 OFFCURVE",
"257 357 OFFCURVE",
"287 298 CURVE SMOOTH",
"308 257 OFFCURVE",
"362 212 OFFCURVE",
"392 177 CURVE SMOOTH",
"399 168 OFFCURVE",
"481 74 OFFCURVE",
"500 80 CURVE SMOOTH",
"524 89 OFFCURVE",
"509 157 OFFCURVE",
"509 174 CURVE SMOOTH",
"511 209 OFFCURVE",
"523 282 OFFCURVE",
"489 306 CURVE SMOOTH",
"473 318 OFFCURVE",
"424 317 OFFCURVE",
"424 355 CURVE SMOOTH",
"424 397 OFFCURVE",
"487 394 OFFCURVE",
"489 421 CURVE SMOOTH",
"492 468 OFFCURVE",
"363 494 OFFCURVE",
"367 552 CURVE SMOOTH",
"368 584 OFFCURVE",
"416 600 OFFCURVE",
"437 615 CURVE SMOOTH",
"464 635 OFFCURVE",
"512 685 OFFCURVE",
"511 720 CURVE SMOOTH",
"510 744 OFFCURVE",
"467 840 OFFCURVE",
"529 840 CURVE SMOOTH",
"585 841 OFFCURVE",
"526 735 OFFCURVE",
"528 715 CURVE SMOOTH",
"530 693 OFFCURVE",
"549 679 OFFCURVE",
"542 653 CURVE SMOOTH",
"525 597 OFFCURVE",
"427 627 OFFCURVE",
"430 551 CURVE SMOOTH",
"432 514 OFFCURVE",
"468 484 OFFCURVE",
"494 465 CURVE SMOOTH",
"515 448 OFFCURVE",
"551 443 OFFCURVE",
"553 418 CURVE SMOOTH",
"557 369 OFFCURVE",
"478 384 OFFCURVE",
"478 357 CURVE SMOOTH",
"478 336 OFFCURVE",
"532 311 OFFCURVE",
"544 298 CURVE SMOOTH",
"571 266 OFFCURVE",
"530 219 OFFCURVE",
"528 180 CURVE SMOOTH",
"526 136 OFFCURVE",
"535 112 OFFCURVE",
"548 75 CURVE SMOOTH",
"576 -7 OFFCURVE",
"502 -20 OFFCURVE",
"446 40 CURVE SMOOTH",
"404 86 OFFCURVE",
"419 136 OFFCURVE",
"349 190 CURVE SMOOTH",
"298 228 OFFCURVE",
"243 213 OFFCURVE",
"245 293 CURVE SMOOTH",
"247 354 OFFCURVE",
"267 387 OFFCURVE",
"226 444 CURVE SMOOTH",
"200 478 OFFCURVE",
"169 474 OFFCURVE",
"138 496 CURVE SMOOTH",
"79 539 OFFCURVE",
"142 581 OFFCURVE",
"117 664 CURVE SMOOTH",
"112 681 OFFCURVE",
"84 703 OFFCURVE",
"68 726 CURVE SMOOTH",
"56 745 OFFCURVE",
"42 758 OFFCURVE",
"26 754 CURVE SMOOTH",
"8 750 OFFCURVE",
"17 710 OFFCURVE",
"19 693 CURVE SMOOTH",
"25 640 OFFCURVE",
"20 514 OFFCURVE",
"110 463 CURVE SMOOTH",
"138 446 OFFCURVE",
"160 442 OFFCURVE",
"160 416 CURVE SMOOTH",
"159 364 OFFCURVE",
"45 358 OFFCURVE",
"41 298 CURVE SMOOTH",
"38 248 OFFCURVE",
"107 270 OFFCURVE",
"103 228 CURVE SMOOTH",
"99 192 OFFCURVE",
"39 183 OFFCURVE",
"20 138 CURVE SMOOTH",
"-3 87 OFFCURVE",
"43 82 OFFCURVE",
"36 28 CURVE SMOOTH",
"31 -2 OFFCURVE",
"0 -10 OFFCURVE",
"-17 18 CURVE SMOOTH",
"-32 44 OFFCURVE",
"-2 84 OFFCURVE",
"-3 111 CURVE SMOOTH",
"-3 130 OFFCURVE",
"-21 138 OFFCURVE",
"-18 165 CURVE SMOOTH",
"-14 202 OFFCURVE",
"47 212 OFFCURVE",
"49 228 CURVE SMOOTH",
"53 260 OFFCURVE",
"-49 247 OFFCURVE",
"-26 305 CURVE SMOOTH",
"-11 340 OFFCURVE",
"93 361 OFFCURVE",
"100 411 CURVE SMOOTH",
"103 434 OFFCURVE",
"100 450 OFFCURVE",
"63 481 CURVE SMOOTH",
"40 501 OFFCURVE",
"-21 511 OFFCURVE",
"-29 553 CURVE SMOOTH",
"-35 593 OFFCURVE",
"-9 622 OFFCURVE",
"-4 655 CURVE SMOOTH",
"1 696 OFFCURVE",
"-20 797 OFFCURVE",
"-1 826 CURVE SMOOTH",
"25 867 OFFCURVE",
"64 775 OFFCURVE",
"74 763 CURVE SMOOTH",
"92 739 OFFCURVE",
"143 695 OFFCURVE",
"153 677 CURVE SMOOTH",
"175 635 OFFCURVE",
"126 612 OFFCURVE",
"148 559 CURVE SMOOTH",
"157 534 OFFCURVE",
"216 477 OFFCURVE",
"238 458 CURVE SMOOTH",
"250 448 OFFCURVE",
"272 433 OFFCURVE",
"282 421 CURVE SMOOTH"
);
}
);
width = 634;
}
);
unicode = 004E;
},
{
glyphname = Ntilde;
lastChange = "2025-03-25 18:54:17 +0000";
layers = (
{
layerId = "A0C7B77B-63B8-469F-86AF-83BC364D87BB";
paths = (
{
closed = 1;
nodes = (
"312 381 OFFCURVE",
"256 354 OFFCURVE",
"285 295 CURVE",
"306 254 OFFCURVE",
"360 210 OFFCURVE",
"389 175 CURVE",
"396 166 OFFCURVE",
"478 72 OFFCURVE",
"498 77 CURVE",
"521 87 OFFCURVE",
"506 153 OFFCURVE",
"507 172 CURVE",
"508 205 OFFCURVE",
"521 278 OFFCURVE",
"485 303 CURVE",
"470 315 OFFCURVE",
"422 314 OFFCURVE",
"422 351 CURVE",
"422 395 OFFCURVE",
"484 391 OFFCURVE",
"485 418 CURVE",
"489 465 OFFCURVE",
"361 490 OFFCURVE",
"364 549 CURVE",
"367 580 OFFCURVE",
"414 596 OFFCURVE",
"434 610 CURVE",
"462 632 OFFCURVE",
"511 681 OFFCURVE",
"508 716 CURVE",
"508 740 OFFCURVE",
"464 836 OFFCURVE",
"527 836 CURVE",
"582 836 OFFCURVE",
"523 730 OFFCURVE",
"526 712 CURVE",
"528 690 OFFCURVE",
"546 675 OFFCURVE",
"538 649 CURVE",
"522 593 OFFCURVE",
"424 624 OFFCURVE",
"428 547 CURVE",
"429 511 OFFCURVE",
"466 480 OFFCURVE",
"491 461 CURVE",
"513 445 OFFCURVE",
"548 439 OFFCURVE",
"550 415 CURVE",
"554 367 OFFCURVE",
"476 382 OFFCURVE",
"476 354 CURVE",
"476 332 OFFCURVE",
"530 307 OFFCURVE",
"541 295 CURVE",
"568 263 OFFCURVE",
"527 216 OFFCURVE",
"526 176 CURVE",
"523 134 OFFCURVE",
"533 110 OFFCURVE",
"545 73 CURVE",
"574 -9 OFFCURVE",
"500 -22 OFFCURVE",
"445 38 CURVE",
"401 83 OFFCURVE",
"416 134 OFFCURVE",
"347 187 CURVE",
"295 225 OFFCURVE",
"241 211 OFFCURVE",
"243 290 CURVE",
"245 351 OFFCURVE",
"265 384 OFFCURVE",
"223 441 CURVE",
"198 475 OFFCURVE",
"166 471 OFFCURVE",
"137 493 CURVE",
"77 535 OFFCURVE",
"140 578 OFFCURVE",
"116 660 CURVE",
"110 677 OFFCURVE",
"83 699 OFFCURVE",
"68 722 CURVE",
"55 741 OFFCURVE",
"41 754 OFFCURVE",
"24 750 CURVE",
"6 746 OFFCURVE",
"15 706 OFFCURVE",
"17 690 CURVE",
"24 637 OFFCURVE",
"18 511 OFFCURVE",
"108 459 CURVE",
"137 442 OFFCURVE",
"159 438 OFFCURVE",
"158 413 CURVE",
"156 361 OFFCURVE",
"44 354 OFFCURVE",
"40 295 CURVE",
"35 246 OFFCURVE",
"106 266 OFFCURVE",
"100 225 CURVE",
"96 189 OFFCURVE",
"38 180 OFFCURVE",
"18 136 CURVE",
"-5 83 OFFCURVE",
"42 80 OFFCURVE",
"33 25 CURVE",
"30 -5 OFFCURVE",
"-2 -13 OFFCURVE",
"-18 15 CURVE",
"-34 43 OFFCURVE",
"-4 81 OFFCURVE",
"-5 108 CURVE",
"-5 127 OFFCURVE",
"-22 136 OFFCURVE",
"-19 160 CURVE",
"-16 200 OFFCURVE",
"46 210 OFFCURVE",
"48 225 CURVE",
"51 256 OFFCURVE",
"-50 245 OFFCURVE",
"-27 302 CURVE",
"-12 337 OFFCURVE",
"91 358 OFFCURVE",
"98 407 CURVE",
"101 430 OFFCURVE",
"98 446 OFFCURVE",
"62 476 CURVE",
"39 497 OFFCURVE",
"-22 508 OFFCURVE",
"-29 549 CURVE",
"-37 589 OFFCURVE",
"-10 618 OFFCURVE",
"-6 652 CURVE",
"-1 693 OFFCURVE",
"-21 793 OFFCURVE",
"-3 822 CURVE",
"23 863 OFFCURVE",
"63 772 OFFCURVE",
"72 759 CURVE",
"90 735 OFFCURVE",
"141 692 OFFCURVE",
"151 673 CURVE",
"174 631 OFFCURVE",
"124 607 OFFCURVE",
"145 554 CURVE",
"155 531 OFFCURVE",
"214 474 OFFCURVE",
"236 454 CURVE",
"249 444 OFFCURVE",
"271 430 OFFCURVE",
"280 418 CURVE"
);
},
{
closed = 1;
nodes = (
"454 1038 OFFCURVE",
"431 1038 OFFCURVE",
"424 1022 CURVE SMOOTH",
"422 1012 OFFCURVE",
"429 990 OFFCURVE",
"416 957 CURVE SMOOTH",
"398 908 OFFCURVE",
"385 897 OFFCURVE",
"363 899 CURVE SMOOTH",
"326 900 OFFCURVE",
"301 949 OFFCURVE",
"290 977 CURVE SMOOTH",
"282 1000 OFFCURVE",
"281 1049 OFFCURVE",
"239 1045 CURVE SMOOTH",
"196 1043 OFFCURVE",
"213 963 OFFCURVE",
"178 924 CURVE SMOOTH",
"131 871 OFFCURVE",
"91 912 OFFCURVE",
"96 871 CURVE SMOOTH",
"101 837 OFFCURVE",
"141 870 OFFCURVE",
"160 892 CURVE SMOOTH",
"179 914 OFFCURVE",
"197 930 OFFCURVE",
"228 957 CURVE SMOOTH",
"294 1009 OFFCURVE",
"296 897 OFFCURVE",
"316 868 CURVE SMOOTH",
"325 853 OFFCURVE",
"361 824 OFFCURVE",
"398 868 CURVE SMOOTH",
"429 910 OFFCURVE",
"414 936 OFFCURVE",
"439 986 CURVE",
"439 986 OFFCURVE",
"455 1012 OFFCURVE",
"454 1022 CURVE SMOOTH"
);
}
);
width = 632;
}
);
unicode = "00D1,00F1";
},
{
glyphname = O;
lastChange = "2025-03-21 16:53:44 +0000";
layers = (
{
layerId = "A0C7B77B-63B8-469F-86AF-83BC364D87BB";
paths = (
{
closed = 1;
nodes = (
"482 501 OFFCURVE",
"471 489 OFFCURVE",
"482 476 CURVE",
"499 456 OFFCURVE",
"564 468 OFFCURVE",
"551 404 CURVE",
"543 352 OFFCURVE",
"441 361 OFFCURVE",
"426 301 CURVE",
"416 263 OFFCURVE",
"472 235 OFFCURVE",
"507 208 CURVE",
"590 139 OFFCURVE",
"482 140 OFFCURVE",
"461 88 CURVE",
"448 60 OFFCURVE",
"422 20 OFFCURVE",
"329 21 CURVE",
"240 23 OFFCURVE",
"214 -9 OFFCURVE",
"143 4 CURVE",
"96 12 OFFCURVE",
"97 63 OFFCURVE",
"69 88 CURVE",
"54 103 OFFCURVE",
"15 106 OFFCURVE",
"4 111 CURVE",
"-6 116 OFFCURVE",
"-23 130 OFFCURVE",
"-28 160 CURVE",
"-32 185 OFFCURVE",
"-32 264 OFFCURVE",
"-12 294 CURVE",
"6 323 OFFCURVE",
"52 340 OFFCURVE",
"46 363 CURVE",
"38 396 OFFCURVE",
"-31 387 OFFCURVE",
"-28 422 CURVE",
"-24 463 OFFCURVE",
"109 500 OFFCURVE",
"106 555 CURVE",
"105 577 OFFCURVE",
"72 599 OFFCURVE",
"63 603 CURVE",
"45 609 OFFCURVE",
"-14 611 OFFCURVE",
"-27 645 CURVE",
"-44 693 OFFCURVE",
"36 721 OFFCURVE",
"62 747 CURVE",
"84 773 OFFCURVE",
"116 834 OFFCURVE",
"149 840 CURVE",
"173 844 OFFCURVE",
"210 829 OFFCURVE",
"234 824 CURVE",
"245 821 OFFCURVE",
"272 816 OFFCURVE",
"285 816 CURVE",
"336 813 OFFCURVE",
"367 846 OFFCURVE",
"420 825 CURVE",
"472 806 OFFCURVE",
"455 761 OFFCURVE",
"475 738 CURVE",
"493 716 OFFCURVE",
"532 733 OFFCURVE",
"540 691 CURVE",
"546 657 OFFCURVE",
"522 650 OFFCURVE",
"530 608 CURVE",
"535 587 OFFCURVE",
"560 565 OFFCURVE",
"553 540 CURVE",
"549 523 OFFCURVE",
"530 517 OFFCURVE",
"498 506 CURVE"
);
},
{
closed = 1;
nodes = (
"182 504 OFFCURVE",
"49 491 OFFCURVE",
"40 434 CURVE SMOOTH",
"33 389 OFFCURVE",
"108 408 OFFCURVE",
"107 359 CURVE SMOOTH",
"107 321 OFFCURVE",
"19 322 OFFCURVE",
"17 281 CURVE SMOOTH",
"10 150 OFFCURVE",
"54 128 OFFCURVE",
"71 112 CURVE SMOOTH",
"169 21 OFFCURVE",
"335 42 OFFCURVE",
"349 45 CURVE SMOOTH",
"375 53 OFFCURVE",
"421 82 OFFCURVE",
"438 96 CURVE SMOOTH",
"449 106 OFFCURVE",
"490 134 OFFCURVE",
"492 155 CURVE SMOOTH",
"500 221 OFFCURVE",
"392 231 OFFCURVE",
"364 276 CURVE SMOOTH",
"323 343 OFFCURVE",
"493 388 OFFCURVE",
"502 417 CURVE SMOOTH",
"512 448 OFFCURVE",
"427 442 OFFCURVE",
"429 486 CURVE SMOOTH",
"431 524 OFFCURVE",
"500 518 OFFCURVE",
"508 561 CURVE SMOOTH",
"517 619 OFFCURVE",
"510 663 OFFCURVE",
"501 678 CURVE SMOOTH",
"495 688 OFFCURVE",
"457 725 OFFCURVE",
"449 733 CURVE SMOOTH",
"427 756 OFFCURVE",
"408 771 OFFCURVE",
"385 780 CURVE SMOOTH",
"319 806 OFFCURVE",
"280 804 OFFCURVE",
"200 800 CURVE SMOOTH",
"103 797 OFFCURVE",
"21 708 OFFCURVE",
"74 627 CURVE SMOOTH",
"93 597 OFFCURVE",
"171 596 OFFCURVE",
"175 554 CURVE SMOOTH"
);
}
);
width = 634;
}
);
unicode = 004F;
},
{
glyphname = OE;
lastChange = "2025-03-20 13:56:46 +0000";
layers = (
{
layerId = "A0C7B77B-63B8-469F-86AF-83BC364D87BB";
paths = (
{
closed = 1;
nodes = (
"761 81 OFFCURVE",
"426 20 OFFCURVE",
"433 57 CURVE",
"434 67 OFFCURVE",
"440 73 OFFCURVE",
"447 81 CURVE",
"477 124 OFFCURVE",
"570 129 OFFCURVE",
"490 193 CURVE",
"485 197 OFFCURVE",
"480 201 OFFCURVE",
"474 205 CURVE",
"474 205 OFFCURVE",
"473 205 OFFCURVE",
"473 205 CURVE",
"448 221 OFFCURVE",
"418 239 OFFCURVE",
"408 272 CURVE",
"405 279 OFFCURVE",
"405 283 OFFCURVE",
"409 289 CURVE",
"423 307 OFFCURVE",
"459 309 OFFCURVE",
"463 334 CURVE",
"465 347 OFFCURVE",
"458 358 OFFCURVE",
"446 363 CURVE",
"444 365 OFFCURVE",
"441 366 OFFCURVE",
"440 366 CURVE",
"439 366 OFFCURVE",
"439 366 OFFCURVE",
"437 366 CURVE",
"415 373 OFFCURVE",
"380 403 OFFCURVE",
"390 424 CURVE",
"394 429 OFFCURVE",
"418 443 OFFCURVE",
"451 441 CURVE",
"498 436 OFFCURVE",
"633 429 OFFCURVE",
"634 506 CURVE",
"636 561 OFFCURVE",
"549 539 OFFCURVE",
"467 534 CURVE",
"455 532 OFFCURVE",
"394 536 OFFCURVE",
"390 564 CURVE",
"386 597 OFFCURVE",
"389 679 OFFCURVE",
"401 708 CURVE",
"401 711 OFFCURVE",
"402 712 OFFCURVE",
"402 715 CURVE",
"404 715 OFFCURVE",
"405 716 OFFCURVE",
"406 719 CURVE",
"413 728 OFFCURVE",
"425 735 OFFCURVE",
"436 740 CURVE",
"439 741 OFFCURVE",
"443 742 OFFCURVE",
"446 742 CURVE",
"458 747 OFFCURVE",
"469 748 OFFCURVE",
"484 749 CURVE",
"548 755 OFFCURVE",
"718 721 OFFCURVE",
"750 744 CURVE",
"768 755 OFFCURVE",
"769 778 OFFCURVE",
"751 788 CURVE",
"724 802 OFFCURVE",
"585 769 OFFCURVE",
"534 773 CURVE",
"506 773 OFFCURVE",
"406 792 OFFCURVE",
"366 788 CURVE SMOOTH",
"342 785 OFFCURVE",
"312 772 OFFCURVE",
"279 773 CURVE",
"267 773 OFFCURVE",
"242 777 OFFCURVE",
"229 780 CURVE",
"209 785 OFFCURVE",
"171 799 OFFCURVE",
"149 795 CURVE",
"117 789 OFFCURVE",
"88 731 OFFCURVE",
"66 708 CURVE",
"43 682 OFFCURVE",
"-34 657 OFFCURVE",
"-17 609 CURVE",
"-6 578 OFFCURVE",
"51 576 OFFCURVE",
"67 569 CURVE",
"76 565 OFFCURVE",
"108 544 OFFCURVE",
"109 524 CURVE",
"110 473 OFFCURVE",
"-15 436 OFFCURVE",
"-20 398 CURVE",
"-22 366 OFFCURVE",
"46 371 OFFCURVE",
"52 341 CURVE",
"56 320 OFFCURVE",
"13 305 OFFCURVE",
"-5 276 CURVE",
"-22 247 OFFCURVE",
"-22 174 OFFCURVE",
"-18 148 CURVE",
"-14 121 OFFCURVE",
"-1 108 OFFCURVE",
"12 103 CURVE",
"22 97 OFFCURVE",
"59 94 OFFCURVE",
"73 81 CURVE",
"101 57 OFFCURVE",
"99 9 OFFCURVE",
"144 1 CURVE",
"212 -12 OFFCURVE",
"315 18 OFFCURVE",
"350 17 CURVE",
"400 16 OFFCURVE",
"477 29 OFFCURVE",
"516 25 CURVE",
"569 20 OFFCURVE",
"649 6 OFFCURVE",
"697 6 CURVE",
"719 6 OFFCURVE",
"778 5 OFFCURVE",
"769 43 CURVE"
);
},
{
closed = 1;
nodes = (
"343 41 OFFCURVE",
"343 41 OFFCURVE",
"340 39 CURVE SMOOTH",
"326 36 OFFCURVE",
"168 17 OFFCURVE",
"76 104 CURVE SMOOTH",
"59 120 OFFCURVE",
"18 139 OFFCURVE",
"25 263 CURVE SMOOTH",
"26 304 OFFCURVE",
"110 302 OFFCURVE",
"110 337 CURVE SMOOTH",
"110 385 OFFCURVE",
"40 366 OFFCURVE",
"47 409 CURVE SMOOTH",
"53 464 OFFCURVE",
"179 477 OFFCURVE",
"174 524 CURVE SMOOTH",
"170 562 OFFCURVE",
"97 564 OFFCURVE",
"78 593 CURVE SMOOTH",
"29 669 OFFCURVE",
"106 755 OFFCURVE",
"199 758 CURVE SMOOTH",
"263 761 OFFCURVE",
"303 772 OFFCURVE",
"344 748 CURVE SMOOTH",
"354 742 OFFCURVE",
"376 650 OFFCURVE",
"375 619 CURVE SMOOTH",
"371 572 OFFCURVE",
"359 504 OFFCURVE",
"383 506 CURVE",
"383 506 LINE",
"387 506 OFFCURVE",
"390 506 OFFCURVE",
"394 507 CURVE SMOOTH",
"441 510 OFFCURVE",
"494 508 OFFCURVE",
"535 504 CURVE SMOOTH",
"552 503 OFFCURVE",
"556 476 OFFCURVE",
"537 473 CURVE SMOOTH",
"497 464 OFFCURVE",
"394 466 OFFCURVE",
"387 466 CURVE SMOOTH",
"322 457 OFFCURVE",
"373 436 OFFCURVE",
"371 422 CURVE SMOOTH",
"369 408 OFFCURVE",
"358 389 OFFCURVE",
"362 377 CURVE SMOOTH",
"368 358 OFFCURVE",
"411 363 OFFCURVE",
"413 347 CURVE SMOOTH",
"416 323 OFFCURVE",
"373 321 OFFCURVE",
"361 308 CURVE",
"361 308 OFFCURVE",
"361 308 OFFCURVE",
"361 308 CURVE",
"347 294 OFFCURVE",
"343 277 OFFCURVE",
"354 259 CURVE SMOOTH",
"362 247 OFFCURVE",
"379 236 OFFCURVE",
"397 226 CURVE SMOOTH",
"434 205 OFFCURVE",
"481 188 OFFCURVE",
"476 143 CURVE SMOOTH",
"476 141 OFFCURVE",
"476 140 OFFCURVE",
"476 139 CURVE SMOOTH",
"473 134 OFFCURVE",
"472 132 OFFCURVE",
"467 128 CURVE",
"467 128 OFFCURVE",
"467 128 OFFCURVE",
"467 128 CURVE",
"457 111 OFFCURVE",
"433 94 OFFCURVE",
"425 89 CURVE SMOOTH",
"412 78 OFFCURVE",
"382 57 OFFCURVE",
"357 46 CURVE SMOOTH",
"352 45 OFFCURVE",
"350 43 OFFCURVE",
"345 42 CURVE SMOOTH"
);
}
);
width = 830;
}
);
unicode = "0152,0153";
},
{
glyphname = P;
lastChange = "2025-03-21 16:54:04 +0000";
layers = (
{
layerId = "A0C7B77B-63B8-469F-86AF-83BC364D87BB";
paths = (
{
closed = 1;
nodes = (
"562 670 OFFCURVE",
"534 653 OFFCURVE",
"540 611 CURVE",
"543 590 OFFCURVE",
"560 579 OFFCURVE",
"554 552 CURVE",
"544 504 OFFCURVE",
"485 507 OFFCURVE",
"465 484 CURVE",
"435 450 OFFCURVE",
"421 387 OFFCURVE",
"345 382 CURVE",
"299 379 OFFCURVE",
"245 410 OFFCURVE",
"197 410 CURVE",
"158 411 OFFCURVE",
"116 384 OFFCURVE",
"82 420 CURVE",
"57 447 OFFCURVE",
"43 534 OFFCURVE",
"18 502 CURVE",
"10 492 OFFCURVE",
"25 437 OFFCURVE",
"29 427 CURVE",
"39 408 OFFCURVE",
"50 383 OFFCURVE",
"80 372 CURVE",
"110 361 OFFCURVE",
"161 390 OFFCURVE",
"197 374 CURVE",
"210 368 OFFCURVE",
"221 338 OFFCURVE",
"233 327 CURVE",
"246 315 OFFCURVE",
"270 316 OFFCURVE",
"270 291 CURVE",
"271 254 OFFCURVE",
"239 271 OFFCURVE",
"231 242 CURVE",
"226 223 OFFCURVE",
"224 201 OFFCURVE",
"197 193 CURVE",
"151 179 OFFCURVE",
"129 216 OFFCURVE",
"88 217 CURVE",
"-20 220 OFFCURVE",
"0 154 OFFCURVE",
"76 120 CURVE",
"110 106 OFFCURVE",
"84 82 OFFCURVE",
"55 70 CURVE",
"28 57 OFFCURVE",
"35 -1 OFFCURVE",
"-2 0 CURVE",
"-32 0 OFFCURVE",
"-36 33 OFFCURVE",
"-23 53 CURVE",
"1 86 OFFCURVE",
"59 79 OFFCURVE",
"38 109 CURVE",
"24 131 OFFCURVE",
"-22 124 OFFCURVE",
"-28 145 CURVE",
"-35 169 OFFCURVE",
"-6 178 OFFCURVE",
"-3 194 CURVE",
"-1 202 OFFCURVE",
"-21 215 OFFCURVE",
"-6 240 CURVE",
"12 270 OFFCURVE",
"74 240 OFFCURVE",
"102 235 CURVE",
"138 230 OFFCURVE",
"222 238 OFFCURVE",
"227 282 CURVE",
"235 347 OFFCURVE",
"147 344 OFFCURVE",
"133 344 CURVE",
"103 346 OFFCURVE",
"78 307 OFFCURVE",
"39 336 CURVE",
"23 350 OFFCURVE",
"29 372 OFFCURVE",
"23 380 CURVE",
"18 388 OFFCURVE",
"-20 391 OFFCURVE",
"-28 426 CURVE",
"-32 445 OFFCURVE",
"-10 506 OFFCURVE",
"-8 536 CURVE",
"-6 560 OFFCURVE",
"0 584 OFFCURVE",
"-6 634 CURVE",
"-13 680 OFFCURVE",
"-60 811 OFFCURVE",
"0 836 CURVE",
"34 850 OFFCURVE",
"131 818 OFFCURVE",
"175 814 CURVE",
"239 808 OFFCURVE",
"329 839 OFFCURVE",
"380 830 CURVE",
"431 820 OFFCURVE",
"443 772 OFFCURVE",
"470 742 CURVE",
"479 731 OFFCURVE",
"516 717 OFFCURVE",
"526 707 CURVE"
);
},
{
closed = 1;
nodes = (
"469 513 OFFCURVE",
"509 584 OFFCURVE",
"511 608 CURVE SMOOTH",
"512 630 OFFCURVE",
"504 654 OFFCURVE",
"497 671 CURVE SMOOTH",
"486 693 OFFCURVE",
"432 771 OFFCURVE",
"370 786 CURVE SMOOTH",
"292 806 OFFCURVE",
"259 753 OFFCURVE",
"216 772 CURVE SMOOTH",
"148 800 OFFCURVE",
"92 808 OFFCURVE",
"50 777 CURVE SMOOTH",
"23 757 OFFCURVE",
"14 731 OFFCURVE",
"14 698 CURVE SMOOTH",
"15 638 OFFCURVE",
"21 550 OFFCURVE",
"76 491 CURVE SMOOTH",
"107 457 OFFCURVE",
"120 457 OFFCURVE",
"157 443 CURVE SMOOTH",
"178 435 OFFCURVE",
"212 427 OFFCURVE",
"236 427 CURVE SMOOTH",
"329 428 OFFCURVE",
"400 447 OFFCURVE",
"450 495 CURVE SMOOTH"
);
}
);
width = 635;
}
);
unicode = 0050;
},
{
glyphname = Q;
lastChange = "2025-03-21 16:54:26 +0000";
layers = (
{
layerId = "A0C7B77B-63B8-469F-86AF-83BC364D87BB";
paths = (
{
closed = 1;
nodes = (
"556 680 OFFCURVE",
"527 657 OFFCURVE",
"530 626 CURVE SMOOTH",
"534 604 OFFCURVE",
"559 589 OFFCURVE",
"556 558 CURVE SMOOTH",
"551 523 OFFCURVE",
"475 522 OFFCURVE",
"482 479 CURVE SMOOTH",
"485 460 OFFCURVE",
"535 458 OFFCURVE",
"546 440 CURVE",
"556 408 OFFCURVE",
"529 382 OFFCURVE",
"530 356 CURVE SMOOTH",
"531 326 OFFCURVE",
"572 292 OFFCURVE",
"545 261 CURVE SMOOTH",
"536 248 OFFCURVE",
"500 257 OFFCURVE",
"491 248 CURVE SMOOTH",
"475 233 OFFCURVE",
"477 182 OFFCURVE",
"441 203 CURVE",
"421 236 OFFCURVE",
"470 243 OFFCURVE",
"480 264 CURVE SMOOTH",
"485 272 OFFCURVE",
"513 313 OFFCURVE",
"514 351 CURVE SMOOTH",
"515 364 OFFCURVE",
"513 418 OFFCURVE",
"489 440 CURVE SMOOTH",
"474 453 OFFCURVE",
"436 448 OFFCURVE",
"431 477 CURVE SMOOTH",
"425 513 OFFCURVE",
"506 532 OFFCURVE",
"512 586 CURVE SMOOTH",
"524 712 OFFCURVE",
"387 808 OFFCURVE",
"283 800 CURVE SMOOTH",
"230 794 OFFCURVE",
"177 804 OFFCURVE",
"144 795 CURVE SMOOTH",
"117 787 OFFCURVE",
"101 767 OFFCURVE",
"79 729 CURVE SMOOTH",
"69 713 OFFCURVE",
"10 687 OFFCURVE",
"16 598 CURVE SMOOTH",
"18 561 OFFCURVE",
"54 495 OFFCURVE",
"98 469 CURVE SMOOTH",
"118 457 OFFCURVE",
"155 449 OFFCURVE",
"160 420 CURVE SMOOTH",
"169 364 OFFCURVE",
"47 350 OFFCURVE",
"42 290 CURVE SMOOTH",
"38 248 OFFCURVE",
"99 248 OFFCURVE",
"106 230 CURVE SMOOTH",
"121 182 OFFCURVE",
"2 200 OFFCURVE",
"38 141 CURVE SMOOTH",
"51 119 OFFCURVE",
"142 53 OFFCURVE",
"159 47 CURVE SMOOTH",
"263 9 OFFCURVE",
"303 80 OFFCURVE",
"328 117 CURVE SMOOTH",
"339 132 OFFCURVE",
"354 196 OFFCURVE",
"399 191 CURVE SMOOTH",
"438 187 OFFCURVE",
"444 120 OFFCURVE",
"467 96 CURVE SMOOTH",
"481 79 OFFCURVE",
"587 19 OFFCURVE",
"546 -1 CURVE SMOOTH",
"503 -24 OFFCURVE",
"457 127 OFFCURVE",
"394 121 CURVE SMOOTH",
"334 115 OFFCURVE",
"328 25 OFFCURVE",
"296 9 CURVE SMOOTH",
"260 -8 OFFCURVE",
"234 23 OFFCURVE",
"198 20 CURVE SMOOTH",
"169 18 OFFCURVE",
"138 -10 OFFCURVE",
"109 4 CURVE SMOOTH",
"85 17 OFFCURVE",
"87 64 OFFCURVE",
"62 89 CURVE SMOOTH",
"42 109 OFFCURVE",
"-25 112 OFFCURVE",
"-28 142 CURVE SMOOTH",
"-34 193 OFFCURVE",
"47 182 OFFCURVE",
"46 224 CURVE SMOOTH",
"46 265 OFFCURVE",
"-56 250 OFFCURVE",
"-23 314 CURVE SMOOTH",
"0 356 OFFCURVE",
"97 394 OFFCURVE",
"102 406 CURVE SMOOTH",
"126 463 OFFCURVE",
"-40 470 OFFCURVE",
"-28 566 CURVE SMOOTH",
"-27 578 OFFCURVE",
"-7 600 OFFCURVE",
"-6 613 CURVE SMOOTH",
"-3 645 OFFCURVE",
"-27 661 OFFCURVE",
"-11 698 CURVE SMOOTH",
"2 727 OFFCURVE",
"39 729 OFFCURVE",
"55 747 CURVE SMOOTH",
"77 768 OFFCURVE",
"71 807 OFFCURVE",
"105 826 CURVE SMOOTH",
"148 849 OFFCURVE",
"271 842 OFFCURVE",
"306 838 CURVE SMOOTH",
"379 830 OFFCURVE",
"416 804 OFFCURVE",
"445 764 CURVE SMOOTH",
"470 732 OFFCURVE",
"512 742 OFFCURVE",
"530 716 CURVE SMOOTH"
);
}
);
width = 636;
}
);
unicode = 0051;
},
{
glyphname = R;
lastChange = "2025-03-21 16:59:23 +0000";
layers = (
{
layerId = "A0C7B77B-63B8-469F-86AF-83BC364D87BB";
paths = (
{
closed = 1;
nodes = (
"556 683 OFFCURVE",
"557 656 OFFCURVE",
"548 634 CURVE",
"544 622 OFFCURVE",
"532 610 OFFCURVE",
"530 595 CURVE",
"526 564 OFFCURVE",
"540 538 OFFCURVE",
"528 500 CURVE",
"518 471 OFFCURVE",
"490 442 OFFCURVE",
"437 413 CURVE",
"370 374 OFFCURVE",
"192 444 OFFCURVE",
"182 392 CURVE",
"177 368 OFFCURVE",
"267 344 OFFCURVE",
"282 311 CURVE",
"304 264 OFFCURVE",
"262 214 OFFCURVE",
"279 188 CURVE",
"300 155 OFFCURVE",
"354 206 OFFCURVE",
"402 194 CURVE",
"452 181 OFFCURVE",
"458 100 OFFCURVE",
"486 76 CURVE",
"507 59 OFFCURVE",
"552 67 OFFCURVE",
"554 33 CURVE",
"556 -3 OFFCURVE",
"515 -8 OFFCURVE",
"498 14 CURVE",
"483 33 OFFCURVE",
"490 46 OFFCURVE",
"468 72 CURVE",
"451 95 OFFCURVE",
"400 153 OFFCURVE",
"367 155 CURVE",
"329 157 OFFCURVE",
"286 119 OFFCURVE",
"254 135 CURVE",
"220 152 OFFCURVE",
"253 198 OFFCURVE",
"255 234 CURVE",
"257 283 OFFCURVE",
"212 333 OFFCURVE",
"167 376 CURVE",
"148 394 OFFCURVE",
"117 403 OFFCURVE",
"110 414 CURVE",
"87 447 OFFCURVE",
"130 511 OFFCURVE",
"121 542 CURVE",
"113 570 OFFCURVE",
"39 636 OFFCURVE",
"27 630 CURVE",
"11 623 OFFCURVE",
"14 568 OFFCURVE",
"21 555 CURVE",
"31 534 OFFCURVE",
"90 510 OFFCURVE",
"93 485 CURVE",
"98 446 OFFCURVE",
"35 458 OFFCURVE",
"27 424 CURVE",
"17 384 OFFCURVE",
"182 348 OFFCURVE",
"153 279 CURVE",
"143 258 OFFCURVE",
"54 217 OFFCURVE",
"30 175 CURVE",
"-14 99 OFFCURVE",
"42 87 OFFCURVE",
"30 30 CURVE",
"20 -13 OFFCURVE",
"-31 -6 OFFCURVE",
"-29 34 CURVE",
"-27 58 OFFCURVE",
"-2 90 OFFCURVE",
"-2 106 CURVE",
"-2 140 OFFCURVE",
"-67 166 OFFCURVE",
"1 210 CURVE",
"31 229 OFFCURVE",
"80 240 OFFCURVE",
"102 274 CURVE",
"142 339 OFFCURVE",
"-15 349 OFFCURVE",
"-26 400 CURVE",
"-37 446 OFFCURVE",
"32 456 OFFCURVE",
"43 479 CURVE",
"58 507 OFFCURVE",
"-19 497 OFFCURVE",
"-27 538 CURVE",
"-32 566 OFFCURVE",
"-3 618 OFFCURVE",
"-2 657 CURVE",
"0 699 OFFCURVE",
"-50 799 OFFCURVE",
"-14 834 CURVE",
"21 867 OFFCURVE",
"129 812 OFFCURVE",
"170 812 CURVE",
"242 812 OFFCURVE",
"380 869 OFFCURVE",
"426 820 CURVE",
"455 789 OFFCURVE",
"463 758 OFFCURVE",
"489 737 CURVE",
"506 725 OFFCURVE",
"526 714 OFFCURVE",
"539 701 CURVE"
);
},
{
closed = 1;
nodes = (
"-1 800 OFFCURVE",
"8 735 OFFCURVE",
"22 687 CURVE SMOOTH",
"41 617 OFFCURVE",
"137 607 OFFCURVE",
"160 571 CURVE SMOOTH",
"185 530 OFFCURVE",
"118 459 OFFCURVE",
"172 436 CURVE SMOOTH",
"233 410 OFFCURVE",
"395 438 OFFCURVE",
"445 485 CURVE SMOOTH",
"489 527 OFFCURVE",
"509 555 OFFCURVE",
"512 583 CURVE SMOOTH",
"516 626 OFFCURVE",
"485 684 OFFCURVE",
"472 707 CURVE SMOOTH",
"457 733 OFFCURVE",
"419 774 OFFCURVE",
"390 786 CURVE SMOOTH",
"310 819 OFFCURVE",
"254 787 OFFCURVE",
"171 793 CURVE SMOOTH",
"141 796 OFFCURVE",
"91 799 OFFCURVE",
"64 799 CURVE SMOOTH"
);
}
);
width = 634;
}
);
unicode = 0052;
},
{
glyphname = S;
lastChange = "2025-03-21 16:59:36 +0000";
layers = (
{
layerId = "A0C7B77B-63B8-469F-86AF-83BC364D87BB";
paths = (
{
closed = 1;
nodes = (
"416 806 OFFCURVE",
"434 772 OFFCURVE",
"442 762 CURVE SMOOTH",
"475 722 OFFCURVE",
"514 732 OFFCURVE",
"534 688 CURVE SMOOTH",
"543 668 OFFCURVE",
"525 652 OFFCURVE",
"526 621 CURVE SMOOTH",
"528 598 OFFCURVE",
"581 524 OFFCURVE",
"527 520 CURVE SMOOTH",
"487 516 OFFCURVE",
"505 579 OFFCURVE",
"510 611 CURVE SMOOTH",
"514 636 OFFCURVE",
"508 673 OFFCURVE",
"499 684 CURVE SMOOTH",
"488 697 OFFCURVE",
"439 742 OFFCURVE",
"429 752 CURVE SMOOTH",
"417 764 OFFCURVE",
"400 785 OFFCURVE",
"374 792 CURVE SMOOTH",
"325 804 OFFCURVE",
"172 799 OFFCURVE",
"139 788 CURVE SMOOTH",
"90 770 OFFCURVE",
"37 696 OFFCURVE",
"35 682 CURVE SMOOTH",
"28 636 OFFCURVE",
"101 619 OFFCURVE",
"144 620 CURVE SMOOTH",
"182 620 OFFCURVE",
"213 640 OFFCURVE",
"251 646 CURVE SMOOTH",
"297 652 OFFCURVE",
"362 652 OFFCURVE",
"345 588 CURVE SMOOTH",
"328 527 OFFCURVE",
"154 464 OFFCURVE",
"182 432 CURVE SMOOTH",
"202 409 OFFCURVE",
"270 475 OFFCURVE",
"293 441 CURVE SMOOTH",
"312 412 OFFCURVE",
"222 382 OFFCURVE",
"228 370 CURVE SMOOTH",
"235 356 OFFCURVE",
"310 365 OFFCURVE",
"336 370 CURVE SMOOTH",
"363 376 OFFCURVE",
"388 399 OFFCURVE",
"420 376 CURVE SMOOTH",
"437 364 OFFCURVE",
"431 332 OFFCURVE",
"432 303 CURVE SMOOTH",
"432 285 OFFCURVE",
"444 238 OFFCURVE",
"480 214 CURVE SMOOTH",
"502 199 OFFCURVE",
"548 192 OFFCURVE",
"551 161 CURVE SMOOTH",
"555 120 OFFCURVE",
"505 16 OFFCURVE",
"390 23 CURVE SMOOTH",
"345 25 OFFCURVE",
"309 2 OFFCURVE",
"252 1 CURVE SMOOTH",
"220 0 OFFCURVE",
"125 4 OFFCURVE",
"89 59 CURVE SMOOTH",
"60 103 OFFCURVE",
"29 83 OFFCURVE",
"-1 119 CURVE SMOOTH",
"-12 131 OFFCURVE",
"-10 154 OFFCURVE",
"-4 191 CURVE SMOOTH",
"0 216 OFFCURVE",
"-27 241 OFFCURVE",
"-30 267 CURVE SMOOTH",
"-35 309 OFFCURVE",
"8 328 OFFCURVE",
"22 298 CURVE SMOOTH",
"38 264 OFFCURVE",
"4 206 OFFCURVE",
"15 174 CURVE SMOOTH",
"25 145 OFFCURVE",
"75 98 OFFCURVE",
"111 69 CURVE SMOOTH",
"152 36 OFFCURVE",
"213 51 OFFCURVE",
"258 51 CURVE SMOOTH",
"310 51 OFFCURVE",
"359 29 OFFCURVE",
"385 44 CURVE SMOOTH",
"400 53 OFFCURVE",
"482 134 OFFCURVE",
"482 161 CURVE SMOOTH",
"482 198 OFFCURVE",
"392 244 OFFCURVE",
"374 274 CURVE SMOOTH",
"364 290 OFFCURVE",
"388 313 OFFCURVE",
"376 334 CURVE SMOOTH",
"353 370 OFFCURVE",
"181 324 OFFCURVE",
"172 346 CURVE SMOOTH",
"165 368 OFFCURVE",
"200 373 OFFCURVE",
"218 391 CURVE SMOOTH",
"231 407 OFFCURVE",
"213 414 OFFCURVE",
"197 409 CURVE SMOOTH",
"177 402 OFFCURVE",
"137 367 OFFCURVE",
"115 402 CURVE SMOOTH",
"93 434 OFFCURVE",
"158 483 OFFCURVE",
"183 501 CURVE SMOOTH",
"215 528 OFFCURVE",
"280 559 OFFCURVE",
"271 585 CURVE SMOOTH",
"260 620 OFFCURVE",
"124 598 OFFCURVE",
"81 592 CURVE SMOOTH",
"11 582 OFFCURVE",
"-28 607 OFFCURVE",
"-27 652 CURVE SMOOTH",
"-26 706 OFFCURVE",
"25 710 OFFCURVE",
"52 750 CURVE SMOOTH",
"72 778 OFFCURVE",
"61 815 OFFCURVE",
"87 833 CURVE SMOOTH",
"123 857 OFFCURVE",
"235 810 OFFCURVE",
"261 812 CURVE SMOOTH",
"317 818 OFFCURVE",
"361 858 OFFCURVE",
"404 817 CURVE SMOOTH"
);
}
);
width = 631;
}
);
unicode = 0053;
},
{
glyphname = T;
lastChange = "2025-03-21 16:59:54 +0000";
layers = (
{
layerId = "A0C7B77B-63B8-469F-86AF-83BC364D87BB";
paths = (
{
closed = 1;
nodes = (
"554 823 OFFCURVE",
"556 812 OFFCURVE",
"555 806 CURVE SMOOTH",
"553 748 OFFCURVE",
"379 800 OFFCURVE",
"326 799 CURVE SMOOTH",
"250 798 OFFCURVE",
"131 787 OFFCURVE",
"74 737 CURVE SMOOTH",
"63 725 OFFCURVE",
"47 703 OFFCURVE",
"70 689 CURVE SMOOTH",
"83 681 OFFCURVE",
"150 683 OFFCURVE",
"171 688 CURVE SMOOTH",
"222 699 OFFCURVE",
"303 720 OFFCURVE",
"336 667 CURVE SMOOTH",
"386 590 OFFCURVE",
"299 592 OFFCURVE",
"280 542 CURVE SMOOTH",
"254 475 OFFCURVE",
"289 465 OFFCURVE",
"285 428 CURVE SMOOTH",
"279 386 OFFCURVE",
"209 389 OFFCURVE",
"225 345 CURVE SMOOTH",
"244 293 OFFCURVE",
"362 288 OFFCURVE",
"346 222 CURVE SMOOTH",
"337 181 OFFCURVE",
"273 193 OFFCURVE",
"274 109 CURVE SMOOTH",
"274 69 OFFCURVE",
"305 36 OFFCURVE",
"282 9 CURVE SMOOTH",
"263 -12 OFFCURVE",
"241 9 OFFCURVE",
"238 33 CURVE SMOOTH",
"234 65 OFFCURVE",
"256 90 OFFCURVE",
"254 113 CURVE SMOOTH",
"253 132 OFFCURVE",
"225 142 OFFCURVE",
"235 171 CURVE SMOOTH",
"244 194 OFFCURVE",
"264 180 OFFCURVE",
"286 198 CURVE SMOOTH",
"314 222 OFFCURVE",
"294 259 OFFCURVE",
"248 288 CURVE SMOOTH",
"219 306 OFFCURVE",
"166 317 OFFCURVE",
"179 361 CURVE SMOOTH",
"186 379 OFFCURVE",
"211 375 OFFCURVE",
"221 390 CURVE SMOOTH",
"228 399 OFFCURVE",
"221 422 OFFCURVE",
"227 435 CURVE SMOOTH",
"230 450 OFFCURVE",
"252 458 OFFCURVE",
"254 475 CURVE SMOOTH",
"256 499 OFFCURVE",
"225 512 OFFCURVE",
"221 537 CURVE SMOOTH",
"216 577 OFFCURVE",
"280 570 OFFCURVE",
"299 603 CURVE SMOOTH",
"305 615 OFFCURVE",
"287 644 OFFCURVE",
"275 652 CURVE SMOOTH",
"266 658 OFFCURVE",
"228 678 OFFCURVE",
"160 669 CURVE SMOOTH",
"117 663 OFFCURVE",
"15 630 OFFCURVE",
"-12 644 CURVE SMOOTH",
"-42 660 OFFCURVE",
"-31 704 OFFCURVE",
"2 721 CURVE SMOOTH",
"90 767 OFFCURVE",
"76 793 OFFCURVE",
"103 811 CURVE SMOOTH",
"183 867 OFFCURVE",
"258 822 OFFCURVE",
"338 814 CURVE SMOOTH",
"353 813 OFFCURVE",
"385 816 OFFCURVE",
"400 818 CURVE SMOOTH",
"431 821 OFFCURVE",
"524 853 OFFCURVE",
"549 827 CURVE SMOOTH"
);
}
);
width = 635;
}
);
unicode = 0054;
},
{
glyphname = U;
lastChange = "2025-03-20 13:24:34 +0000";
layers = (
{
layerId = "A0C7B77B-63B8-469F-86AF-83BC364D87BB";
paths = (
{
closed = 1;
nodes = (
"190 787 OFFCURVE",
"85 749 OFFCURVE",
"72 728 CURVE SMOOTH",
"54 697 OFFCURVE",
"39 709 OFFCURVE",
"18 666 CURVE SMOOTH",
"4 638 OFFCURVE",
"8 555 OFFCURVE",
"34 526 CURVE SMOOTH",
"68 486 OFFCURVE",
"140 462 OFFCURVE",
"155 441 CURVE SMOOTH",
"200 375 OFFCURVE",
"30 340 OFFCURVE",
"27 291 CURVE SMOOTH",
"25 264 OFFCURVE",
"106 255 OFFCURVE",
"103 218 CURVE SMOOTH",
"98 170 OFFCURVE",
"21 197 OFFCURVE",
"25 163 CURVE SMOOTH",
"30 125 OFFCURVE",
"148 41 OFFCURVE",
"232 48 CURVE SMOOTH",
"303 54 OFFCURVE",
"392 49 OFFCURVE",
"441 102 CURVE SMOOTH",
"458 120 OFFCURVE",
"456 145 OFFCURVE",
"466 169 CURVE SMOOTH",
"477 193 OFFCURVE",
"505 208 OFFCURVE",
"506 238 CURVE SMOOTH",
"507 261 OFFCURVE",
"469 318 OFFCURVE",
"454 336 CURVE SMOOTH",
"426 367 OFFCURVE",
"365 364 OFFCURVE",
"362 405 CURVE SMOOTH",
"355 485 OFFCURVE",
"490 484 OFFCURVE",
"486 552 CURVE SMOOTH",
"485 582 OFFCURVE",
"437 577 OFFCURVE",
"425 600 CURVE SMOOTH",
"406 634 OFFCURVE",
"545 668 OFFCURVE",
"489 684 CURVE SMOOTH",
"456 693 OFFCURVE",
"411 704 OFFCURVE",
"424 744 CURVE SMOOTH",
"431 766 OFFCURVE",
"483 773 OFFCURVE",
"492 793 CURVE SMOOTH",
"507 828 OFFCURVE",
"522 844 OFFCURVE",
"542 831 CURVE SMOOTH",
"553 824 OFFCURVE",
"545 801 OFFCURVE",
"505 778 CURVE SMOOTH",
"488 769 OFFCURVE",
"453 735 OFFCURVE",
"480 719 CURVE SMOOTH",
"503 705 OFFCURVE",
"547 702 OFFCURVE",
"549 677 CURVE SMOOTH",
"551 638 OFFCURVE",
"470 645 OFFCURVE",
"468 609 CURVE",
"471 577 OFFCURVE",
"541 593 OFFCURVE",
"534 551 CURVE SMOOTH",
"525 495 OFFCURVE",
"412 479 OFFCURVE",
"425 401 CURVE SMOOTH",
"429 379 OFFCURVE",
"459 363 OFFCURVE",
"489 346 CURVE SMOOTH",
"564 302 OFFCURVE",
"532 285 OFFCURVE",
"525 239 CURVE SMOOTH",
"521 214 OFFCURVE",
"530 201 OFFCURVE",
"525 172 CURVE SMOOTH",
"518 120 OFFCURVE",
"481 122 OFFCURVE",
"453 93 CURVE SMOOTH",
"441 81 OFFCURVE",
"438 64 OFFCURVE",
"428 48 CURVE SMOOTH",
"396 -1 OFFCURVE",
"367 -3 OFFCURVE",
"308 10 CURVE SMOOTH",
"291 14 OFFCURVE",
"263 27 OFFCURVE",
"250 27 CURVE SMOOTH",
"218 29 OFFCURVE",
"183 -4 OFFCURVE",
"139 6 CURVE SMOOTH",
"86 19 OFFCURVE",
"90 78 OFFCURVE",
"57 100 CURVE SMOOTH",
"31 117 OFFCURVE",
"-36 132 OFFCURVE",
"-22 168 CURVE SMOOTH",
"-12 192 OFFCURVE",
"50 209 OFFCURVE",
"52 223 CURVE SMOOTH",
"55 248 OFFCURVE",
"-26 242 OFFCURVE",
"-30 278 CURVE SMOOTH",
"-35 321 OFFCURVE",
"93 370 OFFCURVE",
"95 410 CURVE SMOOTH",
"100 477 OFFCURVE",
"-17 465 OFFCURVE",
"-16 533 CURVE SMOOTH",
"-16 549 OFFCURVE",
"-1 563 OFFCURVE",
"-1 579 CURVE SMOOTH",
"-1 603 OFFCURVE",
"-34 629 OFFCURVE",
"-28 664 CURVE SMOOTH",
"-17 725 OFFCURVE",
"56 722 OFFCURVE",
"74 755 CURVE SMOOTH",
"85 773 OFFCURVE",
"83 798 OFFCURVE",
"102 818 CURVE SMOOTH",
"114 831 OFFCURVE",
"136 841 OFFCURVE",
"150 827 CURVE SMOOTH"
);
}
);
width = 629;
}
);
unicode = 0055;
},
{
glyphname = V;
lastChange = "2025-03-21 17:00:19 +0000";
layers = (
{
layerId = "A0C7B77B-63B8-469F-86AF-83BC364D87BB";
paths = (
{
closed = 1;
nodes = (
"475 587 OFFCURVE",
"530 618 OFFCURVE",
"545 590 CURVE SMOOTH",
"570 540 OFFCURVE",
"408 471 OFFCURVE",
"416 417 CURVE SMOOTH",
"421 378 OFFCURVE",
"516 347 OFFCURVE",
"536 321 CURVE SMOOTH",
"607 233 OFFCURVE",
"417 184 OFFCURVE",
"378 143 CURVE SMOOTH",
"350 115 OFFCURVE",
"328 24 OFFCURVE",
"285 9 CURVE SMOOTH",
"233 -11 OFFCURVE",
"176 53 OFFCURVE",
"152 83 CURVE SMOOTH",
"122 120 OFFCURVE",
"75 222 OFFCURVE",
"43 243 CURVE SMOOTH",
"17 260 OFFCURVE",
"-30 266 OFFCURVE",
"-30 289 CURVE SMOOTH",
"-29 334 OFFCURVE",
"53 321 OFFCURVE",
"49 360 CURVE SMOOTH",
"47 380 OFFCURVE",
"-24 395 OFFCURVE",
"-13 438 CURVE SMOOTH",
"-6 467 OFFCURVE",
"28 464 OFFCURVE",
"51 482 CURVE SMOOTH",
"84 507 OFFCURVE",
"108 573 OFFCURVE",
"72 607 CURVE SMOOTH",
"52 625 OFFCURVE",
"-2 629 OFFCURVE",
"-13 659 CURVE SMOOTH",
"-22 686 OFFCURVE",
"0 710 OFFCURVE",
"-1 734 CURVE SMOOTH",
"-1 746 OFFCURVE",
"-51 832 OFFCURVE",
"-14 840 CURVE SMOOTH",
"37 851 OFFCURVE",
"15 753 OFFCURVE",
"13 725 CURVE SMOOTH",
"7 677 OFFCURVE",
"39 653 OFFCURVE",
"61 635 CURVE SMOOTH",
"96 607 OFFCURVE",
"153 603 OFFCURVE",
"142 542 CURVE SMOOTH",
"133 493 OFFCURVE",
"40 444 OFFCURVE",
"34 431 CURVE SMOOTH",
"25 415 OFFCURVE",
"56 404 OFFCURVE",
"75 381 CURVE SMOOTH",
"109 338 OFFCURVE",
"39 326 OFFCURVE",
"30 309 CURVE SMOOTH",
"12 267 OFFCURVE",
"98 226 OFFCURVE",
"130 195 CURVE SMOOTH",
"167 160 OFFCURVE",
"212 73 OFFCURVE",
"258 77 CURVE SMOOTH",
"321 82 OFFCURVE",
"329 139 OFFCURVE",
"380 175 CURVE SMOOTH",
"427 208 OFFCURVE",
"485 267 OFFCURVE",
"483 299 CURVE SMOOTH",
"477 364 OFFCURVE",
"367 359 OFFCURVE",
"363 414 CURVE SMOOTH",
"358 491 OFFCURVE",
"500 515 OFFCURVE",
"500 550 CURVE SMOOTH",
"499 584 OFFCURVE",
"425 574 OFFCURVE",
"425 614 CURVE SMOOTH",
"425 644 OFFCURVE",
"475 643 OFFCURVE",
"481 654 CURVE SMOOTH",
"486 665 OFFCURVE",
"478 691 OFFCURVE",
"483 705 CURVE SMOOTH",
"487 719 OFFCURVE",
"508 727 OFFCURVE",
"510 745 CURVE SMOOTH",
"515 776 OFFCURVE",
"497 850 OFFCURVE",
"541 840 CURVE SMOOTH",
"576 831 OFFCURVE",
"524 786 OFFCURVE",
"527 751 CURVE SMOOTH",
"528 728 OFFCURVE",
"538 718 OFFCURVE",
"535 694 CURVE SMOOTH",
"532 657 OFFCURVE",
"466 640 OFFCURVE",
"471 610 CURVE SMOOTH"
);
}
);
width = 633;
}
);
unicode = 0056;
},
{
glyphname = W;
lastChange = "2025-03-21 17:00:55 +0000";
layers = (
{
layerId = "A0C7B77B-63B8-469F-86AF-83BC364D87BB";
paths = (
{
closed = 1;
nodes = (
"532 633 OFFCURVE",
"492 638 OFFCURVE",
"472 618 CURVE SMOOTH",
"435 583 OFFCURVE",
"410 550 OFFCURVE",
"447 508 CURVE SMOOTH",
"470 482 OFFCURVE",
"531 495 OFFCURVE",
"551 465 CURVE SMOOTH",
"583 413 OFFCURVE",
"493 387 OFFCURVE",
"486 363 CURVE SMOOTH",
"479 343 OFFCURVE",
"499 348 OFFCURVE",
"525 340 CURVE SMOOTH",
"596 320 OFFCURVE",
"534 235 OFFCURVE",
"530 194 CURVE SMOOTH",
"527 165 OFFCURVE",
"548 148 OFFCURVE",
"552 123 CURVE SMOOTH",
"559 80 OFFCURVE",
"568 -11 OFFCURVE",
"499 2 CURVE SMOOTH",
"451 12 OFFCURVE",
"445 79 OFFCURVE",
"420 114 CURVE SMOOTH",
"388 163 OFFCURVE",
"294 269 OFFCURVE",
"227 241 CURVE SMOOTH",
"200 230 OFFCURVE",
"141 130 OFFCURVE",
"125 103 CURVE SMOOTH",
"106 72 OFFCURVE",
"55 1 OFFCURVE",
"6 1 CURVE SMOOTH",
"-68 1 OFFCURVE",
"1 130 OFFCURVE",
"-2 168 CURVE SMOOTH",
"-4 210 OFFCURVE",
"-37 277 OFFCURVE",
"7 310 CURVE SMOOTH",
"24 323 OFFCURVE",
"47 338 OFFCURVE",
"46 362 CURVE SMOOTH",
"45 400 OFFCURVE",
"-15 371 OFFCURVE",
"-17 412 CURVE SMOOTH",
"-20 457 OFFCURVE",
"99 477 OFFCURVE",
"40 502 CURVE SMOOTH",
"-33 533 OFFCURVE",
"-58 585 OFFCURVE",
"11 597 CURVE SMOOTH",
"52 605 OFFCURVE",
"118 639 OFFCURVE",
"80 716 CURVE SMOOTH",
"54 773 OFFCURVE",
"9 750 OFFCURVE",
"-17 780 CURVE SMOOTH",
"-36 801 OFFCURVE",
"-30 836 OFFCURVE",
"-3 843 CURVE SMOOTH",
"22 847 OFFCURVE",
"43 786 OFFCURVE",
"57 769 CURVE SMOOTH",
"85 735 OFFCURVE",
"116 734 OFFCURVE",
"143 711 CURVE SMOOTH",
"228 638 OFFCURVE",
"29 609 OFFCURVE",
"27 553 CURVE SMOOTH",
"26 515 OFFCURVE",
"107 523 OFFCURVE",
"106 486 CURVE SMOOTH",
"104 446 OFFCURVE",
"18 464 OFFCURVE",
"31 414 CURVE SMOOTH",
"42 370 OFFCURVE",
"116 377 OFFCURVE",
"93 338 CURVE SMOOTH",
"84 323 OFFCURVE",
"56 325 OFFCURVE",
"42 317 CURVE SMOOTH",
"14 300 OFFCURVE",
"38 274 OFFCURVE",
"37 253 CURVE SMOOTH",
"36 235 OFFCURVE",
"19 200 OFFCURVE",
"17 172 CURVE SMOOTH",
"14 131 OFFCURVE",
"-4 31 OFFCURVE",
"66 102 CURVE SMOOTH",
"111 148 OFFCURVE",
"177 212 OFFCURVE",
"211 258 CURVE SMOOTH",
"287 360 OFFCURVE",
"334 292 OFFCURVE",
"362 224 CURVE SMOOTH",
"383 172 OFFCURVE",
"435 137 OFFCURVE",
"475 94 CURVE SMOOTH",
"504 63 OFFCURVE",
"518 71 OFFCURVE",
"519 129 CURVE SMOOTH",
"519 154 OFFCURVE",
"514 168 OFFCURVE",
"514 192 CURVE SMOOTH",
"514 225 OFFCURVE",
"527 277 OFFCURVE",
"514 292 CURVE SMOOTH",
"498 315 OFFCURVE",
"420 316 OFFCURVE",
"425 357 CURVE SMOOTH",
"431 403 OFFCURVE",
"535 385 OFFCURVE",
"500 434 CURVE SMOOTH",
"463 483 OFFCURVE",
"346 497 OFFCURVE",
"375 559 CURVE SMOOTH",
"405 627 OFFCURVE",
"529 638 OFFCURVE",
"516 732 CURVE SMOOTH",
"510 774 OFFCURVE",
"504 863 OFFCURVE",
"545 839 CURVE SMOOTH",
"579 822 OFFCURVE",
"528 780 OFFCURVE",
"531 749 CURVE SMOOTH",
"534 716 OFFCURVE",
"573 708 OFFCURVE",
"547 661 CURVE SMOOTH"
);
}
);
width = 639;
}
);
unicode = 0057;
},
{
glyphname = X;
lastChange = "2025-03-21 17:01:01 +0000";
layers = (
{
layerId = "A0C7B77B-63B8-469F-86AF-83BC364D87BB";
paths = (
{
closed = 1;
nodes = (
"569 812 OFFCURVE",
"476 746 OFFCURVE",
"463 736 CURVE SMOOTH",
"449 724 OFFCURVE",
"418 674 OFFCURVE",
"405 663 CURVE SMOOTH",
"394 653 OFFCURVE",
"350 667 OFFCURVE",
"342 654 CURVE SMOOTH",
"328 634 OFFCURVE",
"354 615 OFFCURVE",
"341 598 CURVE SMOOTH",
"324 580 OFFCURVE",
"278 562 OFFCURVE",
"276 538 CURVE SMOOTH",
"271 485 OFFCURVE",
"268 435 OFFCURVE",
"282 414 CURVE SMOOTH",
"300 391 OFFCURVE",
"315 375 OFFCURVE",
"347 355 CURVE SMOOTH",
"379 335 OFFCURVE",
"505 276 OFFCURVE",
"474 198 CURVE SMOOTH",
"461 168 OFFCURVE",
"417 180 OFFCURVE",
"410 168 CURVE SMOOTH",
"391 136 OFFCURVE",
"544 91 OFFCURVE",
"553 39 CURVE SMOOTH",
"557 19 OFFCURVE",
"550 2 OFFCURVE",
"524 1 CURVE SMOOTH",
"468 0 OFFCURVE",
"457 82 OFFCURVE",
"433 110 CURVE SMOOTH",
"411 134 OFFCURVE",
"348 145 OFFCURVE",
"357 175 CURVE SMOOTH",
"368 214 OFFCURVE",
"432 174 OFFCURVE",
"432 231 CURVE SMOOTH",
"431 262 OFFCURVE",
"326 340 OFFCURVE",
"308 357 CURVE SMOOTH",
"278 385 OFFCURVE",
"236 378 OFFCURVE",
"239 422 CURVE SMOOTH",
"240 438 OFFCURVE",
"263 476 OFFCURVE",
"250 491 CURVE SMOOTH",
"236 506 OFFCURVE",
"139 442 OFFCURVE",
"153 412 CURVE SMOOTH",
"159 397 OFFCURVE",
"206 393 OFFCURVE",
"214 366 CURVE SMOOTH",
"227 321 OFFCURVE",
"159 321 OFFCURVE",
"152 295 CURVE SMOOTH",
"144 268 OFFCURVE",
"217 276 OFFCURVE",
"216 232 CURVE SMOOTH",
"216 184 OFFCURVE",
"137 160 OFFCURVE",
"111 128 CURVE SMOOTH",
"85 97 OFFCURVE",
"40 6 OFFCURVE",
"3 0 CURVE SMOOTH",
"-36 -5 OFFCURVE",
"-38 38 OFFCURVE",
"-16 59 CURVE SMOOTH",
"26 102 OFFCURVE",
"194 180 OFFCURVE",
"161 252 CURVE SMOOTH",
"147 280 OFFCURVE",
"107 271 OFFCURVE",
"108 294 CURVE SMOOTH",
"111 336 OFFCURVE",
"174 307 OFFCURVE",
"173 359 CURVE SMOOTH",
"172 399 OFFCURVE",
"107 400 OFFCURVE",
"115 442 CURVE SMOOTH",
"121 476 OFFCURVE",
"214 484 OFFCURVE",
"219 527 CURVE",
"220 554 OFFCURVE",
"162 529 OFFCURVE",
"136 532 CURVE SMOOTH",
"91 536 OFFCURVE",
"127 595 OFFCURVE",
"126 626 CURVE SMOOTH",
"125 670 OFFCURVE",
"90 711 OFFCURVE",
"65 734 CURVE SMOOTH",
"42 755 OFFCURVE",
"-45 779 OFFCURVE",
"-23 822 CURVE SMOOTH",
"-14 840 OFFCURVE",
"7 839 OFFCURVE",
"23 830 CURVE SMOOTH",
"49 815 OFFCURVE",
"48 770 OFFCURVE",
"70 751 CURVE SMOOTH",
"92 730 OFFCURVE",
"147 740 OFFCURVE",
"154 693 CURVE SMOOTH",
"160 649 OFFCURVE",
"132 587 OFFCURVE",
"147 565 CURVE SMOOTH",
"161 548 OFFCURVE",
"240 553 OFFCURVE",
"268 569 CURVE SMOOTH",
"278 574 OFFCURVE",
"303 596 OFFCURVE",
"311 609 CURVE SMOOTH",
"327 636 OFFCURVE",
"289 670 OFFCURVE",
"308 687 CURVE SMOOTH",
"320 698 OFFCURVE",
"405 703 OFFCURVE",
"427 723 CURVE SMOOTH",
"461 755 OFFCURVE",
"440 771 OFFCURVE",
"485 813 CURVE SMOOTH",
"503 829 OFFCURVE",
"538 851 OFFCURVE",
"552 832 CURVE SMOOTH"
);
}
);
width = 634;
}
);
unicode = 0058;
},
{
glyphname = Y;
lastChange = "2025-03-21 17:06:56 +0000";
layers = (
{
layerId = "A0C7B77B-63B8-469F-86AF-83BC364D87BB";
paths = (
{
closed = 1;
nodes = (
"54 778 OFFCURVE",
"75 776 OFFCURVE",
"90 758 CURVE SMOOTH",
"128 712 OFFCURVE",
"51 688 OFFCURVE",
"90 641 CURVE SMOOTH",
"95 633 OFFCURVE",
"108 631 OFFCURVE",
"117 634 CURVE SMOOTH",
"142 643 OFFCURVE",
"186 675 OFFCURVE",
"221 628 CURVE SMOOTH",
"243 599 OFFCURVE",
"239 580 OFFCURVE",
"259 572 CURVE SMOOTH",
"273 565 OFFCURVE",
"311 607 OFFCURVE",
"319 629 CURVE SMOOTH",
"327 655 OFFCURVE",
"308 664 OFFCURVE",
"306 679 CURVE SMOOTH",
"304 706 OFFCURVE",
"344 698 OFFCURVE",
"363 700 CURVE SMOOTH",
"413 705 OFFCURVE",
"437 739 OFFCURVE",
"446 747 CURVE SMOOTH",
"469 770 OFFCURVE",
"520 866 OFFCURVE",
"551 840 CURVE SMOOTH",
"591 807 OFFCURVE",
"489 766 OFFCURVE",
"463 739 CURVE SMOOTH",
"442 720 OFFCURVE",
"432 675 OFFCURVE",
"400 665 CURVE SMOOTH",
"380 659 OFFCURVE",
"339 689 OFFCURVE",
"340 662 CURVE SMOOTH",
"340 652 OFFCURVE",
"356 650 OFFCURVE",
"359 630 CURVE SMOOTH",
"362 587 OFFCURVE",
"321 585 OFFCURVE",
"296 572 CURVE SMOOTH",
"275 559 OFFCURVE",
"278 535 OFFCURVE",
"279 506 CURVE SMOOTH",
"281 477 OFFCURVE",
"269 439 OFFCURVE",
"275 431 CURVE SMOOTH",
"302 396 OFFCURVE",
"354 397 OFFCURVE",
"351 351 CURVE SMOOTH",
"349 316 OFFCURVE",
"284 314 OFFCURVE",
"278 281 CURVE SMOOTH",
"263 205 OFFCURVE",
"295 129 OFFCURVE",
"294 52 CURVE SMOOTH",
"293 27 OFFCURVE",
"281 -8 OFFCURVE",
"254 2 CURVE SMOOTH",
"230 10 OFFCURVE",
"228 34 OFFCURVE",
"230 56 CURVE SMOOTH",
"232 93 OFFCURVE",
"255 152 OFFCURVE",
"255 189 CURVE SMOOTH",
"254 227 OFFCURVE",
"200 284 OFFCURVE",
"229 314 CURVE SMOOTH",
"248 335 OFFCURVE",
"311 327 OFFCURVE",
"311 358 CURVE SMOOTH",
"312 387 OFFCURVE",
"249 384 OFFCURVE",
"242 411 CURVE SMOOTH",
"235 436 OFFCURVE",
"250 445 OFFCURVE",
"255 481 CURVE SMOOTH",
"261 513 OFFCURVE",
"247 553 OFFCURVE",
"229 569 CURVE SMOOTH",
"157 633 OFFCURVE",
"126 588 OFFCURVE",
"86 586 CURVE SMOOTH",
"39 584 OFFCURVE",
"40 628 OFFCURVE",
"51 659 CURVE SMOOTH",
"62 686 OFFCURVE",
"69 716 OFFCURVE",
"57 744 CURVE SMOOTH",
"43 775 OFFCURVE",
"-54 814 OFFCURVE",
"-24 839 CURVE SMOOTH",
"6 865 OFFCURVE",
"30 797 OFFCURVE",
"45 786 CURVE SMOOTH"
);
}
);
width = 550;
}
);
unicode = 0059;
},
{
glyphname = Z;
lastChange = "2025-03-21 17:06:20 +0000";
layers = (
{
layerId = "A0C7B77B-63B8-469F-86AF-83BC364D87BB";
paths = (
{
closed = 1;
nodes = (
"405 647 OFFCURVE",
"463 648 OFFCURVE",
"457 610 CURVE SMOOTH",
"454 578 OFFCURVE",
"414 582 OFFCURVE",
"377 547 CURVE SMOOTH",
"333 505 OFFCURVE",
"208 386 OFFCURVE",
"210 351 CURVE SMOOTH",
"212 322 OFFCURVE",
"262 326 OFFCURVE",
"262 293 CURVE SMOOTH",
"261 263 OFFCURVE",
"230 271 OFFCURVE",
"216 256 CURVE SMOOTH",
"207 244 OFFCURVE",
"213 220 OFFCURVE",
"187 213 CURVE SMOOTH",
"157 206 OFFCURVE",
"138 224 OFFCURVE",
"113 224 CURVE SMOOTH",
"81 226 OFFCURVE",
"59 207 OFFCURVE",
"61 174 CURVE SMOOTH",
"62 160 OFFCURVE",
"76 133 OFFCURVE",
"78 118 CURVE SMOOTH",
"82 87 OFFCURVE",
"49 96 OFFCURVE",
"29 72 CURVE SMOOTH",
"21 61 OFFCURVE",
"28 48 OFFCURVE",
"52 45 CURVE SMOOTH",
"97 41 OFFCURVE",
"165 54 OFFCURVE",
"212 56 CURVE SMOOTH",
"274 58 OFFCURVE",
"318 31 OFFCURVE",
"376 63 CURVE SMOOTH",
"417 87 OFFCURVE",
"453 155 OFFCURVE",
"475 189 CURVE SMOOTH",
"517 252 OFFCURVE",
"563 183 OFFCURVE",
"499 130 CURVE SMOOTH",
"490 121 OFFCURVE",
"451 111 OFFCURVE",
"445 102 CURVE SMOOTH",
"434 87 OFFCURVE",
"420 40 OFFCURVE",
"401 23 CURVE SMOOTH",
"355 -18 OFFCURVE",
"284 28 OFFCURVE",
"231 34 CURVE SMOOTH",
"193 39 OFFCURVE",
"155 33 OFFCURVE",
"118 25 CURVE SMOOTH",
"80 18 OFFCURVE",
"-37 -24 OFFCURVE",
"-48 27 CURVE SMOOTH",
"-59 75 OFFCURVE",
"37 87 OFFCURVE",
"43 144 CURVE SMOOTH",
"47 173 OFFCURVE",
"14 223 OFFCURVE",
"39 247 CURVE SMOOTH",
"78 283 OFFCURVE",
"141 219 OFFCURVE",
"177 242 CURVE SMOOTH",
"185 248 OFFCURVE",
"219 270 OFFCURVE",
"220 298 CURVE SMOOTH",
"221 331 OFFCURVE",
"148 314 OFFCURVE",
"148 358 CURVE SMOOTH",
"148 403 OFFCURVE",
"214 426 OFFCURVE",
"244 447 CURVE SMOOTH",
"297 486 OFFCURVE",
"353 546 OFFCURVE",
"397 596 CURVE SMOOTH",
"429 632 OFFCURVE",
"379 628 OFFCURVE",
"350 659 CURVE SMOOTH",
"300 712 OFFCURVE",
"453 756 OFFCURVE",
"460 784 CURVE SMOOTH",
"468 810 OFFCURVE",
"386 797 OFFCURVE",
"333 797 CURVE SMOOTH",
"227 796 OFFCURVE",
"97 805 OFFCURVE",
"46 725 CURVE SMOOTH",
"26 696 OFFCURVE",
"-24 629 OFFCURVE",
"-44 654 CURVE SMOOTH",
"-63 678 OFFCURVE",
"-33 703 OFFCURVE",
"29 736 CURVE SMOOTH",
"65 756 OFFCURVE",
"58 824 OFFCURVE",
"103 836 CURVE SMOOTH",
"152 849 OFFCURVE",
"293 816 OFFCURVE",
"340 814 CURVE SMOOTH",
"393 812 OFFCURVE",
"450 846 OFFCURVE",
"500 837 CURVE SMOOTH",
"569 826 OFFCURVE",
"512 758 OFFCURVE",
"480 736 CURVE SMOOTH",
"445 711 OFFCURVE",
"368 699 OFFCURVE",
"390 667 CURVE SMOOTH"
);
}
);
width = 599;
}
);
unicode = 005A;
},
{
glyphname = zero;
lastChange = "2025-03-21 17:47:05 +0000";
layers = (
{
layerId = "A0C7B77B-63B8-469F-86AF-83BC364D87BB";
paths = (
{
closed = 1;
nodes = (
"472 238 OFFCURVE",
"412 261 OFFCURVE",
"414 293 CURVE",
"416 338 OFFCURVE",
"541 356 OFFCURVE",
"553 408 CURVE",
"566 470 OFFCURVE",
"472 463 OFFCURVE",
"470 484 CURVE",
"468 505 OFFCURVE",
"535 504 OFFCURVE",
"540 540 CURVE",
"546 564 OFFCURVE",
"528 591 OFFCURVE",
"525 612 CURVE",
"523 643 OFFCURVE",
"545 659 OFFCURVE",
"538 691 CURVE",
"531 732 OFFCURVE",
"484 719 OFFCURVE",
"466 740 CURVE",
"446 763 OFFCURVE",
"457 820 OFFCURVE",
"424 832 CURVE",
"372 852 OFFCURVE",
"309 806 OFFCURVE",
"259 811 CURVE",
"247 811 OFFCURVE",
"222 815 OFFCURVE",
"210 817 CURVE",
"186 822 OFFCURVE",
"154 843 OFFCURVE",
"131 840 CURVE",
"97 834 OFFCURVE",
"90 771 OFFCURVE",
"66 747 CURVE",
"42 719 OFFCURVE",
"-60 691 OFFCURVE",
"-16 644 CURVE",
"7 618 OFFCURVE",
"55 612 OFFCURVE",
"73 600 CURVE",
"110 574 OFFCURVE",
"102 547 OFFCURVE",
"95 529 CURVE",
"56 451 OFFCURVE",
"-28 462 OFFCURVE",
"-30 421 CURVE",
"-32 374 OFFCURVE",
"53 390 OFFCURVE",
"54 357 CURVE",
"54 329 OFFCURVE",
"-17 342 OFFCURVE",
"-28 294 CURVE",
"-34 264 OFFCURVE",
"-1 243 OFFCURVE",
"1 214 CURVE",
"3 182 OFFCURVE",
"-30 158 OFFCURVE",
"-6 126 CURVE",
"6 112 OFFCURVE",
"48 107 OFFCURVE",
"63 93 CURVE",
"91 67 OFFCURVE",
"80 11 OFFCURVE",
"128 3 CURVE",
"198 -10 OFFCURVE",
"232 49 OFFCURVE",
"304 25 CURVE",
"344 11 OFFCURVE",
"371 -11 OFFCURVE",
"403 12 CURVE",
"435 35 OFFCURVE",
"422 62 OFFCURVE",
"447 80 CURVE",
"502 118 OFFCURVE",
"616 164 OFFCURVE",
"512 219 CURVE"
);
},
{
closed = 1;
nodes = (
"52 130 OFFCURVE",
"52 130 OFFCURVE",
"52 130 CURVE",
"27 161 OFFCURVE",
"7 249 OFFCURVE",
"19 287 CURVE",
"30 324 OFFCURVE",
"94 315 OFFCURVE",
"100 363 CURVE",
"92 413 OFFCURVE",
"26 377 OFFCURVE",
"29 421 CURVE",
"33 464 OFFCURVE",
"155 500 OFFCURVE",
"152 551 CURVE",
"146 612 OFFCURVE",
"79 607 OFFCURVE",
"58 635 CURVE",
"12 699 OFFCURVE",
"110 779 OFFCURVE",
"174 793 CURVE",
"253 811 OFFCURVE",
"272 780 OFFCURVE",
"339 759 CURVE",
"377 747 OFFCURVE",
"410 754 OFFCURVE",
"430 751 CURVE",
"441 750 OFFCURVE",
"444 739 OFFCURVE",
"437 732 CURVE",
"416 714 OFFCURVE",
"374 680 OFFCURVE",
"320 669 CURVE",
"287 661 OFFCURVE",
"304 620 OFFCURVE",
"307 605 CURVE",
"334 520 OFFCURVE",
"319 479 OFFCURVE",
"299 540 CURVE",
"275 609 OFFCURVE",
"218 586 OFFCURVE",
"228 552 CURVE",
"249 476 OFFCURVE",
"265 421 OFFCURVE",
"249 338 CURVE",
"246 318 OFFCURVE",
"250 293 OFFCURVE",
"206 315 CURVE",
"183 328 OFFCURVE",
"143 350 OFFCURVE",
"116 329 CURVE",
"90 308 OFFCURVE",
"79 270 OFFCURVE",
"135 256 CURVE",
"188 243 OFFCURVE",
"141 167 OFFCURVE",
"88 126 CURVE",
"77 118 OFFCURVE",
"60 119 OFFCURVE",
"53 129 CURVE"
);
},
{
closed = 1;
nodes = (
"335 42 OFFCURVE",
"320 93 OFFCURVE",
"273 75 CURVE SMOOTH",
"202 47 OFFCURVE",
"145 56 OFFCURVE",
"100 85 CURVE SMOOTH",
"93 91 OFFCURVE",
"92 101 OFFCURVE",
"97 108 CURVE SMOOTH",
"113 129 OFFCURVE",
"145 167 OFFCURVE",
"200 206 CURVE SMOOTH",
"212 215 OFFCURVE",
"252 233 OFFCURVE",
"213 248 CURVE SMOOTH",
"135 277 OFFCURVE",
"158 293 OFFCURVE",
"178 286 CURVE SMOOTH",
"196 278 OFFCURVE",
"277 246 OFFCURVE",
"293 278 CURVE SMOOTH",
"309 313 OFFCURVE",
"278 331 OFFCURVE",
"272 370 CURVE SMOOTH",
"267 405 OFFCURVE",
"264 499 OFFCURVE",
"281 504 CURVE SMOOTH",
"297 510 OFFCURVE",
"305 442 OFFCURVE",
"336 455 CURVE SMOOTH",
"378 476 OFFCURVE",
"342 561 OFFCURVE",
"339 593 CURVE SMOOTH",
"335 625 OFFCURVE",
"404 675 OFFCURVE",
"441 714 CURVE SMOOTH",
"449 724 OFFCURVE",
"466 724 OFFCURVE",
"472 712 CURVE SMOOTH",
"505 667 OFFCURVE",
"524 594 OFFCURVE",
"507 552 CURVE SMOOTH",
"492 513 OFFCURVE",
"410 521 OFFCURVE",
"408 484 CURVE SMOOTH",
"406 441 OFFCURVE",
"503 451 OFFCURVE",
"501 427 CURVE SMOOTH",
"496 372 OFFCURVE",
"349 344 OFFCURVE",
"348 294 CURVE SMOOTH",
"347 233 OFFCURVE",
"457 242 OFFCURVE",
"486 184 CURVE SMOOTH",
"500 158 OFFCURVE",
"401 52 OFFCURVE",
"384 49 CURVE SMOOTH"
);
}
);
width = 664;
}
);
unicode = 0030;
},
{
glyphname = one;
lastChange = "2025-03-21 17:34:57 +0000";
layers = (
{
layerId = "A0C7B77B-63B8-469F-86AF-83BC364D87BB";
paths = (
{
closed = 1;
nodes = (
"306 809 OFFCURVE",
"304 771 OFFCURVE",
"301 745 CURVE SMOOTH",
"298 719 OFFCURVE",
"276 690 OFFCURVE",
"274 670 CURVE SMOOTH",
"272 655 OFFCURVE",
"279 635 OFFCURVE",
"277 614 CURVE SMOOTH",
"276 591 OFFCURVE",
"255 560 OFFCURVE",
"283 542 CURVE SMOOTH",
"301 530 OFFCURVE",
"347 528 OFFCURVE",
"347 495 CURVE SMOOTH",
"349 461 OFFCURVE",
"314 468 OFFCURVE",
"301 449 CURVE SMOOTH",
"291 434 OFFCURVE",
"303 377 OFFCURVE",
"242 385 CURVE SMOOTH",
"221 389 OFFCURVE",
"166 435 OFFCURVE",
"163 405 CURVE SMOOTH",
"162 378 OFFCURVE",
"297 345 OFFCURVE",
"291 291 CURVE SMOOTH",
"286 273 OFFCURVE",
"267 265 OFFCURVE",
"275 249 CURVE",
"291 227 OFFCURVE",
"338 270 OFFCURVE",
"351 233 CURVE SMOOTH",
"359 210 OFFCURVE",
"286 177 OFFCURVE",
"277 151 CURVE SMOOTH",
"242 64 OFFCURVE",
"322 1 OFFCURVE",
"270 1 CURVE SMOOTH",
"224 0 OFFCURVE",
"252 53 OFFCURVE",
"249 75 CURVE SMOOTH",
"247 103 OFFCURVE",
"210 124 OFFCURVE",
"234 164 CURVE SMOOTH",
"241 178 OFFCURVE",
"297 208 OFFCURVE",
"277 212 CURVE SMOOTH",
"183 238 OFFCURVE",
"252 249 OFFCURVE",
"248 276 CURVE SMOOTH",
"247 292 OFFCURVE",
"233 310 OFFCURVE",
"222 319 CURVE SMOOTH",
"184 351 OFFCURVE",
"78 393 OFFCURVE",
"93 437 CURVE SMOOTH",
"107 474 OFFCURVE",
"172 433 OFFCURVE",
"228 429 CURVE SMOOTH",
"266 428 OFFCURVE",
"297 470 OFFCURVE",
"301 482 CURVE",
"311 525 OFFCURVE",
"236 515 OFFCURVE",
"224 537 CURVE SMOOTH",
"210 561 OFFCURVE",
"240 574 OFFCURVE",
"243 621 CURVE SMOOTH",
"244 645 OFFCURVE",
"233 663 OFFCURVE",
"233 682 CURVE SMOOTH",
"233 707 OFFCURVE",
"269 750 OFFCURVE",
"246 772 CURVE SMOOTH",
"240 778 OFFCURVE",
"231 772 OFFCURVE",
"226 762 CURVE SMOOTH",
"193 713 OFFCURVE",
"275 600 OFFCURVE",
"143 665 CURVE SMOOTH",
"129 671 OFFCURVE",
"92 677 OFFCURVE",
"82 671 CURVE",
"62 660 OFFCURVE",
"86 634 OFFCURVE",
"85 618 CURVE SMOOTH",
"82 590 OFFCURVE",
"55 598 OFFCURVE",
"44 581 CURVE SMOOTH",
"36 570 OFFCURVE",
"31 554 OFFCURVE",
"14 545 CURVE SMOOTH",
"-17 521 OFFCURVE",
"-44 551 OFFCURVE",
"-22 571 CURVE SMOOTH",
"-9 580 OFFCURVE",
"29 586 OFFCURVE",
"38 597 CURVE SMOOTH",
"63 626 OFFCURVE",
"46 665 OFFCURVE",
"46 681 CURVE SMOOTH",
"45 750 OFFCURVE",
"123 693 OFFCURVE",
"167 687 CURVE SMOOTH",
"211 679 OFFCURVE",
"182 740 OFFCURVE",
"179 756 CURVE SMOOTH",
"164 824 OFFCURVE",
"242 863 OFFCURVE",
"288 825 CURVE SMOOTH"
);
}
);
width = 502;
}
);
unicode = 0031;
},
{
glyphname = two;
lastChange = "2025-03-21 17:46:49 +0000";
layers = (
{
layerId = "A0C7B77B-63B8-469F-86AF-83BC364D87BB";
paths = (
{
closed = 1;
nodes = (
"173 297 OFFCURVE",
"91 366 OFFCURVE",
"78 336 CURVE",
"66 307 OFFCURVE",
"109 274 OFFCURVE",
"98 224 CURVE",
"93 200 OFFCURVE",
"46 208 OFFCURVE",
"38 179 CURVE",
"34 164 OFFCURVE",
"39 149 OFFCURVE",
"31 136 CURVE",
"-13 52 OFFCURVE",
"28 42 OFFCURVE",
"55 42 CURVE",
"67 42 OFFCURVE",
"100 43 OFFCURVE",
"113 46 CURVE",
"156 57 OFFCURVE",
"147 136 OFFCURVE",
"197 134 CURVE",
"245 133 OFFCURVE",
"209 65 OFFCURVE",
"249 50 CURVE",
"294 34 OFFCURVE",
"394 43 OFFCURVE",
"423 45 CURVE",
"473 49 OFFCURVE",
"504 66 OFFCURVE",
"533 56 CURVE",
"559 49 OFFCURVE",
"560 15 OFFCURVE",
"537 4 CURVE",
"497 -13 OFFCURVE",
"459 26 OFFCURVE",
"422 25 CURVE",
"403 25 OFFCURVE",
"279 17 OFFCURVE",
"256 15 CURVE",
"151 5 OFFCURVE",
"207 69 OFFCURVE",
"183 70 CURVE",
"155 72 OFFCURVE",
"169 9 OFFCURVE",
"107 25 CURVE",
"74 34 OFFCURVE",
"14 -21 OFFCURVE",
"-19 10 CURVE",
"-45 33 OFFCURVE",
"-7 70 OFFCURVE",
"-8 96 CURVE",
"-9 132 OFFCURVE",
"-47 162 OFFCURVE",
"-11 191 CURVE",
"-2 198 OFFCURVE",
"41 211 OFFCURVE",
"56 232 CURVE",
"79 261 OFFCURVE",
"14 328 OFFCURVE",
"38 376 CURVE",
"67 436 OFFCURVE",
"176 357 OFFCURVE",
"189 428 CURVE",
"196 474 OFFCURVE",
"166 497 OFFCURVE",
"172 544 CURVE",
"183 629 OFFCURVE",
"327 550 OFFCURVE",
"374 561 CURVE",
"414 570 OFFCURVE",
"471 641 OFFCURVE",
"475 659 CURVE",
"483 700 OFFCURVE",
"446 700 OFFCURVE",
"423 719 CURVE",
"398 740 OFFCURVE",
"416 792 OFFCURVE",
"371 796 CURVE",
"340 798 OFFCURVE",
"298 766 OFFCURVE",
"268 766 CURVE",
"212 766 OFFCURVE",
"182 828 OFFCURVE",
"120 766 CURVE",
"105 749 OFFCURVE",
"99 726 OFFCURVE",
"88 713 CURVE",
"72 694 OFFCURVE",
"30 697 OFFCURVE",
"18 671 CURVE",
"7 643 OFFCURVE",
"32 599 OFFCURVE",
"35 576 CURVE",
"43 517 OFFCURVE",
"-31 506 OFFCURVE",
"-30 555 CURVE",
"-30 577 OFFCURVE",
"-7 606 OFFCURVE",
"-4 619 CURVE",
"3 660 OFFCURVE",
"-18 663 OFFCURVE",
"-8 696 CURVE",
"4 739 OFFCURVE",
"61 728 OFFCURVE",
"71 755 CURVE",
"121 876 OFFCURVE",
"155 810 OFFCURVE",
"208 810 CURVE",
"268 810 OFFCURVE",
"353 876 OFFCURVE",
"403 813 CURVE",
"414 798 OFFCURVE",
"438 762 OFFCURVE",
"451 755 CURVE",
"478 736 OFFCURVE",
"539 736 OFFCURVE",
"553 684 CURVE",
"565 630 OFFCURVE",
"483 633 OFFCURVE",
"453 605 CURVE",
"432 585 OFFCURVE",
"428 526 OFFCURVE",
"405 514 CURVE",
"348 484 OFFCURVE",
"258 570 OFFCURVE",
"218 528 CURVE",
"173 483 OFFCURVE",
"250 367 OFFCURVE",
"223 344 CURVE"
);
}
);
width = 654;
}
);
unicode = 0032;
},
{
glyphname = three;
lastChange = "2025-03-21 17:36:52 +0000";
layers = (
{
layerId = "A0C7B77B-63B8-469F-86AF-83BC364D87BB";
paths = (
{
closed = 1;
nodes = (
"260 469 OFFCURVE",
"402 538 OFFCURVE",
"462 501 CURVE SMOOTH",
"473 495 OFFCURVE",
"488 458 OFFCURVE",
"496 454 CURVE SMOOTH",
"516 443 OFFCURVE",
"548 441 OFFCURVE",
"551 425 CURVE SMOOTH",
"554 396 OFFCURVE",
"524 390 OFFCURVE",
"531 342 CURVE SMOOTH",
"542 253 OFFCURVE",
"485 256 OFFCURVE",
"467 229 CURVE SMOOTH",
"459 217 OFFCURVE",
"543 219 OFFCURVE",
"544 172 CURVE SMOOTH",
"545 127 OFFCURVE",
"496 134 OFFCURVE",
"472 108 CURVE SMOOTH",
"450 85 OFFCURVE",
"449 45 OFFCURVE",
"417 19 CURVE SMOOTH",
"366 -23 OFFCURVE",
"334 26 OFFCURVE",
"281 29 CURVE SMOOTH",
"229 34 OFFCURVE",
"187 -15 OFFCURVE",
"120 7 CURVE SMOOTH",
"73 23 OFFCURVE",
"76 87 OFFCURVE",
"61 92 CURVE SMOOTH",
"-58 132 OFFCURVE",
"2 199 OFFCURVE",
"-3 232 CURVE SMOOTH",
"-9 275 OFFCURVE",
"-36 270 OFFCURVE",
"-29 302 CURVE SMOOTH",
"-26 316 OFFCURVE",
"-14 323 OFFCURVE",
"0 320 CURVE SMOOTH",
"54 307 OFFCURVE",
"13 259 OFFCURVE",
"14 226 CURVE SMOOTH",
"14 166 OFFCURVE",
"59 112 OFFCURVE",
"101 85 CURVE SMOOTH",
"144 56 OFFCURVE",
"226 47 OFFCURVE",
"277 45 CURVE SMOOTH",
"327 42 OFFCURVE",
"353 42 OFFCURVE",
"381 56 CURVE SMOOTH",
"425 78 OFFCURVE",
"482 143 OFFCURVE",
"488 154 CURVE SMOOTH",
"511 207 OFFCURVE",
"410 173 OFFCURVE",
"409 231 CURVE SMOOTH",
"407 274 OFFCURVE",
"504 266 OFFCURVE",
"509 301 CURVE SMOOTH",
"509 312 OFFCURVE",
"492 337 OFFCURVE",
"490 356 CURVE SMOOTH",
"488 388 OFFCURVE",
"535 388 OFFCURVE",
"487 439 CURVE SMOOTH",
"461 465 OFFCURVE",
"462 475 OFFCURVE",
"440 477 CURVE SMOOTH",
"389 481 OFFCURVE",
"268 451 OFFCURVE",
"213 458 CURVE SMOOTH",
"178 463 OFFCURVE",
"175 504 OFFCURVE",
"185 536 CURVE SMOOTH",
"210 622 OFFCURVE",
"373 536 OFFCURVE",
"392 567 CURVE SMOOTH",
"401 582 OFFCURVE",
"405 631 OFFCURVE",
"425 641 CURVE SMOOTH",
"450 653 OFFCURVE",
"497 596 OFFCURVE",
"508 632 CURVE SMOOTH",
"521 675 OFFCURVE",
"406 783 OFFCURVE",
"373 794 CURVE SMOOTH",
"331 807 OFFCURVE",
"277 762 OFFCURVE",
"230 763 CURVE SMOOTH",
"198 764 OFFCURVE",
"170 787 OFFCURVE",
"143 780 CURVE SMOOTH",
"69 760 OFFCURVE",
"76 697 OFFCURVE",
"29 670 CURVE SMOOTH",
"-5 650 OFFCURVE",
"-34 665 OFFCURVE",
"-28 695 CURVE SMOOTH",
"-21 728 OFFCURVE",
"55 747 OFFCURVE",
"86 770 CURVE SMOOTH",
"117 795 OFFCURVE",
"114 849 OFFCURVE",
"165 839 CURVE SMOOTH",
"188 834 OFFCURVE",
"232 812 OFFCURVE",
"253 812 CURVE SMOOTH",
"273 813 OFFCURVE",
"314 833 OFFCURVE",
"339 839 CURVE SMOOTH",
"424 854 OFFCURVE",
"417 786 OFFCURVE",
"461 741 CURVE SMOOTH",
"473 728 OFFCURVE",
"510 723 OFFCURVE",
"534 702 CURVE SMOOTH",
"570 670 OFFCURVE",
"546 579 OFFCURVE",
"500 599 CURVE SMOOTH",
"487 605 OFFCURVE",
"469 610 OFFCURVE",
"453 601 CURVE SMOOTH",
"443 594 OFFCURVE",
"431 555 OFFCURVE",
"422 545 CURVE SMOOTH",
"393 516 OFFCURVE",
"299 545 OFFCURVE",
"273 540 CURVE SMOOTH",
"252 535 OFFCURVE",
"233 515 OFFCURVE",
"241 501 CURVE SMOOTH"
);
}
);
width = 671;
}
);
unicode = 0033;
},
{
glyphname = four;
lastChange = "2025-03-21 17:46:26 +0000";
layers = (
{
layerId = "A0C7B77B-63B8-469F-86AF-83BC364D87BB";
paths = (
{
closed = 1;
nodes = (
"467 573 OFFCURVE",
"408 576 OFFCURVE",
"400 543 CURVE",
"391 506 OFFCURVE",
"455 447 OFFCURVE",
"425 401 CURVE",
"403 368 OFFCURVE",
"353 390 OFFCURVE",
"346 360 CURVE",
"342 343 OFFCURVE",
"385 327 OFFCURVE",
"400 318 CURVE",
"439 295 OFFCURVE",
"384 255 OFFCURVE",
"402 241 CURVE",
"417 229 OFFCURVE",
"558 282 OFFCURVE",
"558 236 CURVE",
"557 170 OFFCURVE",
"424 241 OFFCURVE",
"406 214 CURVE",
"376 170 OFFCURVE",
"456 -16 OFFCURVE",
"385 1 CURVE",
"334 14 OFFCURVE",
"399 182 OFFCURVE",
"379 206 CURVE",
"346 243 OFFCURVE",
"272 217 OFFCURVE",
"251 208 CURVE",
"188 182 OFFCURVE",
"156 225 OFFCURVE",
"94 203 CURVE",
"69 194 OFFCURVE",
"27 149 OFFCURVE",
"-9 183 CURVE",
"-42 215 OFFCURVE",
"-28 282 OFFCURVE",
"-23 293 CURVE",
"-8 327 OFFCURVE",
"47 331 OFFCURVE",
"58 365 CURVE",
"72 406 OFFCURVE",
"35 440 OFFCURVE",
"52 509 CURVE",
"59 540 OFFCURVE",
"82 568 OFFCURVE",
"121 587 CURVE",
"157 604 OFFCURVE",
"217 546 OFFCURVE",
"252 562 CURVE",
"265 569 OFFCURVE",
"223 641 OFFCURVE",
"220 668 CURVE",
"213 731 OFFCURVE",
"289 706 OFFCURVE",
"319 747 CURVE",
"340 776 OFFCURVE",
"352 849 OFFCURVE",
"400 844 CURVE",
"456 837 OFFCURVE",
"373 694 OFFCURVE",
"414 673 CURVE",
"424 668 OFFCURVE",
"499 662 OFFCURVE",
"477 600 CURVE"
);
},
{
closed = 1;
nodes = (
"370 787 OFFCURVE",
"349 734 OFFCURVE",
"337 720 CURVE SMOOTH",
"315 693 OFFCURVE",
"284 700 OFFCURVE",
"273 676 CURVE SMOOTH",
"261 647 OFFCURVE",
"297 600 OFFCURVE",
"294 559 CURVE SMOOTH",
"289 483 OFFCURVE",
"182 554 OFFCURVE",
"152 543 CURVE SMOOTH",
"136 538 OFFCURVE",
"81 498 OFFCURVE",
"79 472 CURVE SMOOTH",
"76 422 OFFCURVE",
"111 395 OFFCURVE",
"102 340 CURVE SMOOTH",
"93 286 OFFCURVE",
"12 333 OFFCURVE",
"14 276 CURVE SMOOTH",
"18 201 OFFCURVE",
"106 257 OFFCURVE",
"139 265 CURVE SMOOTH",
"160 270 OFFCURVE",
"197 232 OFFCURVE",
"219 242 CURVE SMOOTH",
"255 257 OFFCURVE",
"261 289 OFFCURVE",
"298 289 CURVE SMOOTH",
"336 289 OFFCURVE",
"370 223 OFFCURVE",
"382 236 CURVE SMOOTH",
"405 260 OFFCURVE",
"287 313 OFFCURVE",
"288 356 CURVE SMOOTH",
"289 409 OFFCURVE",
"362 385 OFFCURVE",
"380 420 CURVE SMOOTH",
"395 450 OFFCURVE",
"359 526 OFFCURVE",
"367 555 CURVE SMOOTH",
"372 573 OFFCURVE",
"429 587 OFFCURVE",
"433 607 CURVE SMOOTH",
"445 658 OFFCURVE",
"363 635 OFFCURVE",
"354 680 CURVE SMOOTH",
"349 708 OFFCURVE",
"401 768 OFFCURVE",
"381 781 CURVE SMOOTH"
);
}
);
width = 678;
}
);
unicode = 0034;
},
{
glyphname = five;
lastChange = "2025-03-21 17:46:18 +0000";
layers = (
{
layerId = "A0C7B77B-63B8-469F-86AF-83BC364D87BB";
paths = (
{
closed = 1;
nodes = (
"271 732 OFFCURVE",
"284 787 OFFCURVE",
"249 797 CURVE SMOOTH",
"222 805 OFFCURVE",
"206 774 OFFCURVE",
"184 764 CURVE SMOOTH",
"126 738 OFFCURVE",
"93 790 OFFCURVE",
"61 785 CURVE SMOOTH",
"10 774 OFFCURVE",
"0 639 OFFCURVE",
"37 624 CURVE SMOOTH",
"53 616 OFFCURVE",
"73 625 OFFCURVE",
"81 624 CURVE SMOOTH",
"119 622 OFFCURVE",
"105 587 OFFCURVE",
"125 568 CURVE SMOOTH",
"150 543 OFFCURVE",
"213 555 OFFCURVE",
"248 559 CURVE SMOOTH",
"461 585 OFFCURVE",
"553 501 OFFCURVE",
"552 427 CURVE SMOOTH",
"551 370 OFFCURVE",
"440 338 OFFCURVE",
"415 312 CURVE SMOOTH",
"397 290 OFFCURVE",
"390 247 OFFCURVE",
"414 239 CURVE SMOOTH",
"452 227 OFFCURVE",
"463 292 OFFCURVE",
"482 308 CURVE SMOOTH",
"508 329 OFFCURVE",
"538 315 OFFCURVE",
"540 282 CURVE SMOOTH",
"541 269 OFFCURVE",
"530 255 OFFCURVE",
"529 239 CURVE SMOOTH",
"527 211 OFFCURVE",
"536 136 OFFCURVE",
"522 117 CURVE SMOOTH",
"505 97 OFFCURVE",
"455 88 OFFCURVE",
"443 76 CURVE SMOOTH",
"425 57 OFFCURVE",
"434 -6 OFFCURVE",
"379 1 CURVE SMOOTH",
"338 6 OFFCURVE",
"346 82 OFFCURVE",
"328 84 CURVE SMOOTH",
"308 87 OFFCURVE",
"303 33 OFFCURVE",
"271 23 CURVE SMOOTH",
"246 15 OFFCURVE",
"235 32 OFFCURVE",
"209 27 CURVE SMOOTH",
"198 25 OFFCURVE",
"162 3 OFFCURVE",
"151 1 CURVE SMOOTH",
"105 -9 OFFCURVE",
"93 63 OFFCURVE",
"60 85 CURVE SMOOTH",
"35 103 OFFCURVE",
"-4 88 OFFCURVE",
"-17 125 CURVE SMOOTH",
"-30 168 OFFCURVE",
"1 183 OFFCURVE",
"-1 216 CURVE SMOOTH",
"-2 239 OFFCURVE",
"-52 332 OFFCURVE",
"-16 340 CURVE SMOOTH",
"55 354 OFFCURVE",
"16 240 OFFCURVE",
"14 207 CURVE SMOOTH",
"12 169 OFFCURVE",
"92 90 OFFCURVE",
"102 79 CURVE SMOOTH",
"161 18 OFFCURVE",
"176 68 OFFCURVE",
"214 72 CURVE SMOOTH",
"236 74 OFFCURVE",
"248 47 OFFCURVE",
"271 58 CURVE SMOOTH",
"302 71 OFFCURVE",
"285 143 OFFCURVE",
"337 136 CURVE SMOOTH",
"368 130 OFFCURVE",
"365 65 OFFCURVE",
"383 53 CURVE SMOOTH",
"400 42 OFFCURVE",
"411 73 OFFCURVE",
"424 85 CURVE SMOOTH",
"434 95 OFFCURVE",
"446 96 OFFCURVE",
"454 106 CURVE SMOOTH",
"469 125 OFFCURVE",
"470 157 OFFCURVE",
"479 180 CURVE SMOOTH",
"485 196 OFFCURVE",
"522 237 OFFCURVE",
"509 251 CURVE SMOOTH",
"493 271 OFFCURVE",
"457 200 OFFCURVE",
"424 190 CURVE SMOOTH",
"350 165 OFFCURVE",
"311 230 OFFCURVE",
"354 293 CURVE SMOOTH",
"399 359 OFFCURVE",
"540 349 OFFCURVE",
"443 484 CURVE SMOOTH",
"392 554 OFFCURVE",
"220 545 OFFCURVE",
"204 542 CURVE SMOOTH",
"182 539 OFFCURVE",
"152 508 OFFCURVE",
"125 512 CURVE SMOOTH",
"95 516 OFFCURVE",
"88 572 OFFCURVE",
"74 580 CURVE SMOOTH",
"48 592 OFFCURVE",
"10 552 OFFCURVE",
"-20 574 CURVE SMOOTH",
"-47 595 OFFCURVE",
"5 676 OFFCURVE",
"2 711 CURVE SMOOTH",
"-1 747 OFFCURVE",
"-54 805 OFFCURVE",
"-16 834 CURVE SMOOTH",
"11 853 OFFCURVE",
"81 822 OFFCURVE",
"118 813 CURVE SMOOTH",
"182 799 OFFCURVE",
"207 846 OFFCURVE",
"246 840 CURVE SMOOTH",
"282 834 OFFCURVE",
"294 759 OFFCURVE",
"326 759 CURVE SMOOTH",
"351 759 OFFCURVE",
"363 807 OFFCURVE",
"381 815 CURVE SMOOTH",
"410 827 OFFCURVE",
"545 855 OFFCURVE",
"551 816 CURVE SMOOTH",
"562 748 OFFCURVE",
"440 801 OFFCURVE",
"403 797 CURVE SMOOTH",
"354 793 OFFCURVE",
"385 726 OFFCURVE",
"344 704 CURVE SMOOTH",
"330 696 OFFCURVE",
"303 702 OFFCURVE",
"292 713 CURVE SMOOTH"
);
}
);
width = 712;
}
);
unicode = 0035;
},
{
glyphname = six;
lastChange = "2025-03-21 17:44:08 +0000";
layers = (
{
layerId = "A0C7B77B-63B8-469F-86AF-83BC364D87BB";
paths = (
{
closed = 1;
nodes = (
"426 806 OFFCURVE",
"426 771 OFFCURVE",
"443 761 CURVE",
"464 748 OFFCURVE",
"512 741 OFFCURVE",
"522 709 CURVE",
"534 672 OFFCURVE",
"523 669 OFFCURVE",
"524 647 CURVE",
"524 628 OFFCURVE",
"537 587 OFFCURVE",
"546 565 CURVE",
"568 516 OFFCURVE",
"489 508 OFFCURVE",
"497 567 CURVE",
"501 597 OFFCURVE",
"507 605 OFFCURVE",
"509 642 CURVE",
"510 681 OFFCURVE",
"398 786 OFFCURVE",
"385 792 CURVE",
"350 808 OFFCURVE",
"296 766 OFFCURVE",
"269 764 CURVE",
"231 761 OFFCURVE",
"176 807 OFFCURVE",
"128 784 CURVE",
"100 771 OFFCURVE",
"92 749 OFFCURVE",
"74 729 CURVE",
"61 714 OFFCURVE",
"29 698 OFFCURVE",
"30 674 CURVE",
"31 635 OFFCURVE",
"126 620 OFFCURVE",
"151 575 CURVE",
"189 506 OFFCURVE",
"132 408 OFFCURVE",
"69 464 CURVE",
"58 474 OFFCURVE",
"32 519 OFFCURVE",
"19 509 CURVE",
"0 495 OFFCURVE",
"14 395 OFFCURVE",
"60 378 CURVE",
"94 365 OFFCURVE",
"95 449 OFFCURVE",
"162 441 CURVE",
"191 438 OFFCURVE",
"230 425 OFFCURVE",
"262 425 CURVE",
"309 425 OFFCURVE",
"377 459 OFFCURVE",
"412 444 CURVE",
"432 436 OFFCURVE",
"435 405 OFFCURVE",
"445 390 CURVE",
"468 357 OFFCURVE",
"553 331 OFFCURVE",
"554 290 CURVE",
"556 259 OFFCURVE",
"512 220 OFFCURVE",
"485 209 CURVE",
"464 202 OFFCURVE",
"419 204 OFFCURVE",
"428 177 CURVE",
"437 150 OFFCURVE",
"544 216 OFFCURVE",
"543 157 CURVE",
"543 113 OFFCURVE",
"468 104 OFFCURVE",
"447 78 CURVE",
"432 60 OFFCURVE",
"440 -47 OFFCURVE",
"313 23 CURVE",
"259 53 OFFCURVE",
"170 -42 OFFCURVE",
"104 31 CURVE",
"88 48 OFFCURVE",
"80 76 OFFCURVE",
"65 92 CURVE",
"24 139 OFFCURVE",
"-14 111 OFFCURVE",
"-14 165 CURVE",
"-14 209 OFFCURVE",
"-29 233 OFFCURVE",
"-29 265 CURVE",
"-29 316 OFFCURVE",
"38 315 OFFCURVE",
"46 350 CURVE",
"57 396 OFFCURVE",
"-32 356 OFFCURVE",
"-30 540 CURVE",
"-29 589 OFFCURVE",
"0 616 OFFCURVE",
"36 578 CURVE",
"54 558 OFFCURVE",
"57 495 OFFCURVE",
"89 489 CURVE",
"119 484 OFFCURVE",
"130 524 OFFCURVE",
"120 543 CURVE",
"90 595 OFFCURVE",
"-29 611 OFFCURVE",
"-9 687 CURVE",
"-1 720 OFFCURVE",
"42 725 OFFCURVE",
"63 744 CURVE",
"81 758 OFFCURVE",
"86 820 OFFCURVE",
"119 834 CURVE",
"156 849 OFFCURVE",
"234 810 OFFCURVE",
"269 810 CURVE",
"331 812 OFFCURVE",
"376 849 OFFCURVE",
"410 820 CURVE"
);
},
{
closed = 1;
nodes = (
"395 202 OFFCURVE",
"462 217 OFFCURVE",
"475 278 CURVE SMOOTH",
"480 301 OFFCURVE",
"424 398 OFFCURVE",
"364 409 CURVE SMOOTH",
"293 421 OFFCURVE",
"262 388 OFFCURVE",
"158 407 CURVE SMOOTH",
"107 417 OFFCURVE",
"133 354 OFFCURVE",
"100 332 CURVE SMOOTH",
"69 312 OFFCURVE",
"10 296 OFFCURVE",
"22 245 CURVE SMOOTH",
"26 230 OFFCURVE",
"52 216 OFFCURVE",
"56 201 CURVE SMOOTH",
"66 168 OFFCURVE",
"52 137 OFFCURVE",
"73 106 CURVE SMOOTH",
"109 57 OFFCURVE",
"199 35 OFFCURVE",
"256 52 CURVE SMOOTH",
"274 56 OFFCURVE",
"290 70 OFFCURVE",
"309 72 CURVE SMOOTH",
"332 74 OFFCURVE",
"352 61 OFFCURVE",
"375 61 CURVE SMOOTH",
"417 61 OFFCURVE",
"487 136 OFFCURVE",
"480 146 CURVE SMOOTH",
"465 166 OFFCURVE",
"390 123 OFFCURVE",
"367 152 CURVE SMOOTH",
"357 165 OFFCURVE",
"362 183 OFFCURVE",
"374 190 CURVE SMOOTH"
);
}
);
width = 674;
}
);
unicode = 0036;
},
{
glyphname = seven;
lastChange = "2025-03-21 17:44:36 +0000";
layers = (
{
layerId = "A0C7B77B-63B8-469F-86AF-83BC364D87BB";
paths = (
{
closed = 1;
nodes = (
"267 490 OFFCURVE",
"284 515 OFFCURVE",
"319 502 CURVE SMOOTH",
"368 483 OFFCURVE",
"417 503 OFFCURVE",
"465 499 CURVE SMOOTH",
"496 496 OFFCURVE",
"519 483 OFFCURVE",
"520 454 CURVE SMOOTH",
"523 398 OFFCURVE",
"441 386 OFFCURVE",
"440 357 CURVE SMOOTH",
"440 338 OFFCURVE",
"479 319 OFFCURVE",
"492 313 CURVE SMOOTH",
"529 296 OFFCURVE",
"526 258 OFFCURVE",
"486 254 CURVE SMOOTH",
"461 252 OFFCURVE",
"414 304 OFFCURVE",
"397 276 CURVE SMOOTH",
"382 252 OFFCURVE",
"460 220 OFFCURVE",
"475 214 CURVE SMOOTH",
"532 188 OFFCURVE",
"490 134 OFFCURVE",
"493 106 CURVE SMOOTH",
"497 68 OFFCURVE",
"537 51 OFFCURVE",
"516 16 CURVE SMOOTH",
"501 -9 OFFCURVE",
"460 -3 OFFCURVE",
"453 32 CURVE SMOOTH",
"444 76 OFFCURVE",
"505 133 OFFCURVE",
"463 172 CURVE SMOOTH",
"450 185 OFFCURVE",
"418 205 OFFCURVE",
"400 210 CURVE SMOOTH",
"355 222 OFFCURVE",
"297 276 OFFCURVE",
"336 312 CURVE SMOOTH",
"366 339 OFFCURVE",
"454 284 OFFCURVE",
"457 306 CURVE SMOOTH",
"460 324 OFFCURVE",
"393 318 OFFCURVE",
"389 351 CURVE SMOOTH",
"383 399 OFFCURVE",
"457 398 OFFCURVE",
"471 413 CURVE SMOOTH",
"488 435 OFFCURVE",
"481 474 OFFCURVE",
"449 478 CURVE SMOOTH",
"413 483 OFFCURVE",
"401 452 OFFCURVE",
"379 452 CURVE SMOOTH",
"351 453 OFFCURVE",
"317 471 OFFCURVE",
"288 469 CURVE SMOOTH",
"246 467 OFFCURVE",
"168 407 OFFCURVE",
"140 454 CURVE SMOOTH",
"119 491 OFFCURVE",
"178 500 OFFCURVE",
"186 522 CURVE SMOOTH",
"192 541 OFFCURVE",
"182 568 OFFCURVE",
"210 582 CURVE SMOOTH",
"248 602 OFFCURVE",
"351 546 OFFCURVE",
"426 566 CURVE SMOOTH",
"520 590 OFFCURVE",
"471 699 OFFCURVE",
"411 745 CURVE SMOOTH",
"346 795 OFFCURVE",
"302 824 OFFCURVE",
"233 797 CURVE SMOOTH",
"186 779 OFFCURVE",
"216 703 OFFCURVE",
"156 701 CURVE SMOOTH",
"88 699 OFFCURVE",
"101 814 OFFCURVE",
"40 802 CURVE SMOOTH",
"23 799 OFFCURVE",
"-65 749 OFFCURVE",
"-70 802 CURVE SMOOTH",
"-75 858 OFFCURVE",
"63 846 OFFCURVE",
"97 831 CURVE SMOOTH",
"128 819 OFFCURVE",
"139 762 OFFCURVE",
"162 765 CURVE SMOOTH",
"191 769 OFFCURVE",
"195 846 OFFCURVE",
"297 839 CURVE SMOOTH",
"425 831 OFFCURVE",
"393 774 OFFCURVE",
"428 751 CURVE SMOOTH",
"529 689 OFFCURVE",
"491 658 OFFCURVE",
"493 621 CURVE SMOOTH",
"495 583 OFFCURVE",
"533 568 OFFCURVE",
"517 535 CURVE SMOOTH",
"490 477 OFFCURVE",
"418 545 OFFCURVE",
"378 543 CURVE SMOOTH",
"362 542 OFFCURVE",
"328 526 OFFCURVE",
"314 525 CURVE SMOOTH",
"291 524 OFFCURVE",
"268 542 OFFCURVE",
"245 543 CURVE SMOOTH",
"192 544 OFFCURVE",
"204 497 OFFCURVE",
"227 495 CURVE SMOOTH"
);
}
);
width = 662;
}
);
unicode = 0037;
},
{
glyphname = eight;
lastChange = "2025-03-21 17:39:57 +0000";
layers = (
{
layerId = "A0C7B77B-63B8-469F-86AF-83BC364D87BB";
paths = (
{
closed = 1;
nodes = (
"422 806 OFFCURVE",
"443 763 OFFCURVE",
"461 744 CURVE",
"484 720 OFFCURVE",
"534 713 OFFCURVE",
"542 684 CURVE",
"554 644 OFFCURVE",
"532 632 OFFCURVE",
"528 604 CURVE",
"523 577 OFFCURVE",
"563 537 OFFCURVE",
"533 514 CURVE",
"507 494 OFFCURVE",
"427 551 OFFCURVE",
"421 537 CURVE",
"412 517 OFFCURVE",
"476 501 OFFCURVE",
"481 483 CURVE",
"497 429 OFFCURVE",
"380 473 OFFCURVE",
"362 474 CURVE",
"300 478 OFFCURVE",
"319 428 OFFCURVE",
"290 400 CURVE",
"282 391 OFFCURVE",
"225 379 OFFCURVE",
"227 368 CURVE",
"231 349 OFFCURVE",
"302 378 OFFCURVE",
"315 379 CURVE",
"397 387 OFFCURVE",
"352 288 OFFCURVE",
"419 299 CURVE",
"442 302 OFFCURVE",
"459 328 OFFCURVE",
"478 305 CURVE",
"498 282 OFFCURVE",
"455 258 OFFCURVE",
"465 229 CURVE",
"477 192 OFFCURVE",
"576 199 OFFCURVE",
"553 131 CURVE",
"542 103 OFFCURVE",
"481 105 OFFCURVE",
"469 96 CURVE",
"438 76 OFFCURVE",
"471 42 OFFCURVE",
"446 19 CURVE",
"388 -31 OFFCURVE",
"329 26 OFFCURVE",
"269 24 CURVE",
"205 23 OFFCURVE",
"175 -20 OFFCURVE",
"121 16 CURVE",
"91 35 OFFCURVE",
"79 77 OFFCURVE",
"70 83 CURVE",
"38 106 OFFCURVE",
"-23 100 OFFCURVE",
"-29 135 CURVE",
"-32 157 OFFCURVE",
"-7 190 OFFCURVE",
"-4 211 CURVE",
"2 249 OFFCURVE",
"-40 286 OFFCURVE",
"-10 323 CURVE",
"9 347 OFFCURVE",
"66 364 OFFCURVE",
"81 377 CURVE",
"101 393 OFFCURVE",
"87 440 OFFCURVE",
"133 440 CURVE",
"150 440 OFFCURVE",
"201 413 OFFCURVE",
"208 433 CURVE",
"218 463 OFFCURVE",
"139 534 OFFCURVE",
"123 536 CURVE",
"88 541 OFFCURVE",
"26 486 OFFCURVE",
"-5 514 CURVE",
"-25 532 OFFCURVE",
"-2 567 OFFCURVE",
"-6 587 CURVE",
"-12 617 OFFCURVE",
"-35 644 OFFCURVE",
"-29 677 CURVE",
"-21 719 OFFCURVE",
"47 719 OFFCURVE",
"71 752 CURVE",
"82 767 OFFCURVE",
"81 793 OFFCURVE",
"87 804 CURVE",
"123 868 OFFCURVE",
"181 818 OFFCURVE",
"241 814 CURVE",
"290 811 OFFCURVE",
"355 867 OFFCURVE",
"406 821 CURVE"
);
},
{
closed = 1;
nodes = (
"380 801 OFFCURVE",
"351 761 OFFCURVE",
"307 766 CURVE",
"231 774 OFFCURVE",
"213 826 OFFCURVE",
"117 767 CURVE",
"47 723 OFFCURVE",
"75 708 OFFCURVE",
"53 663 CURVE",
"36 630 OFFCURVE",
"-7 579 OFFCURVE",
"23 559 CURVE",
"48 541 OFFCURVE",
"94 605 OFFCURVE",
"150 574 CURVE",
"199 549 OFFCURVE",
"207 453 OFFCURVE",
"259 444 CURVE",
"288 438 OFFCURVE",
"288 469 OFFCURVE",
"303 486 CURVE",
"335 524 OFFCURVE",
"407 481 OFFCURVE",
"421 494 CURVE",
"441 513 OFFCURVE",
"346 525 OFFCURVE",
"363 564 CURVE",
"379 600 OFFCURVE",
"441 556 OFFCURVE",
"476 553 CURVE",
"519 550 OFFCURVE",
"512 602 OFFCURVE",
"512 639 CURVE",
"512 686 OFFCURVE",
"470 674 OFFCURVE",
"451 703 CURVE",
"438 721 OFFCURVE",
"436 743 OFFCURVE",
"417 763 CURVE"
);
},
{
closed = 1;
nodes = (
"224 417 OFFCURVE",
"189 409 OFFCURVE",
"146 402 CURVE SMOOTH",
"103 396 OFFCURVE",
"121 368 OFFCURVE",
"96 336 CURVE SMOOTH",
"71 308 OFFCURVE",
"23 312 OFFCURVE",
"15 274 CURVE SMOOTH",
"6 238 OFFCURVE",
"26 203 OFFCURVE",
"31 180 CURVE SMOOTH",
"51 92 OFFCURVE",
"156 41 OFFCURVE",
"177 39 CURVE SMOOTH",
"203 35 OFFCURVE",
"244 64 OFFCURVE",
"263 63 CURVE SMOOTH",
"282 63 OFFCURVE",
"320 40 OFFCURVE",
"344 39 CURVE SMOOTH",
"371 39 OFFCURVE",
"392 68 OFFCURVE",
"416 81 CURVE SMOOTH",
"435 93 OFFCURVE",
"511 148 OFFCURVE",
"490 178 CURVE SMOOTH",
"478 197 OFFCURVE",
"458 191 OFFCURVE",
"441 208 CURVE SMOOTH",
"407 243 OFFCURVE",
"454 270 OFFCURVE",
"445 280 CURVE SMOOTH",
"433 290 OFFCURVE",
"411 242 OFFCURVE",
"379 254 CURVE SMOOTH",
"332 270 OFFCURVE",
"346 316 OFFCURVE",
"333 333 CURVE SMOOTH",
"305 372 OFFCURVE",
"278 307 OFFCURVE",
"238 307 CURVE SMOOTH",
"205 307 OFFCURVE",
"170 327 OFFCURVE",
"170 354 CURVE SMOOTH",
"170 377 OFFCURVE",
"244 390 OFFCURVE",
"232 406 CURVE SMOOTH"
);
}
);
width = 676;
}
);
unicode = 0038;
},
{
glyphname = nine;
lastChange = "2025-03-21 17:47:07 +0000";
layers = (
{
layerId = "A0C7B77B-63B8-469F-86AF-83BC364D87BB";
paths = (
{
closed = 1;
nodes = (
"99 32 OFFCURVE",
"99 67 OFFCURVE",
"82 77 CURVE",
"61 89 OFFCURVE",
"13 97 OFFCURVE",
"3 129 CURVE",
"-9 165 OFFCURVE",
"2 169 OFFCURVE",
"1 191 CURVE",
"1 209 OFFCURVE",
"-12 251 OFFCURVE",
"-22 272 CURVE",
"-43 321 OFFCURVE",
"36 329 OFFCURVE",
"28 271 CURVE",
"24 241 OFFCURVE",
"18 232 OFFCURVE",
"16 196 CURVE",
"15 156 OFFCURVE",
"126 52 OFFCURVE",
"140 45 CURVE",
"175 29 OFFCURVE",
"229 72 OFFCURVE",
"256 74 CURVE",
"294 77 OFFCURVE",
"349 30 OFFCURVE",
"397 53 CURVE",
"425 67 OFFCURVE",
"433 88 OFFCURVE",
"451 108 CURVE",
"464 124 OFFCURVE",
"496 139 OFFCURVE",
"495 163 CURVE",
"494 203 OFFCURVE",
"399 217 OFFCURVE",
"374 262 CURVE",
"336 332 OFFCURVE",
"393 430 OFFCURVE",
"456 373 CURVE",
"467 364 OFFCURVE",
"493 319 OFFCURVE",
"506 328 CURVE",
"525 343 OFFCURVE",
"511 443 OFFCURVE",
"465 460 CURVE",
"431 473 OFFCURVE",
"430 389 OFFCURVE",
"363 396 CURVE",
"334 400 OFFCURVE",
"295 412 OFFCURVE",
"263 412 CURVE",
"216 412 OFFCURVE",
"148 379 OFFCURVE",
"113 393 CURVE",
"93 402 OFFCURVE",
"90 433 OFFCURVE",
"79 448 CURVE",
"57 480 OFFCURVE",
"-28 506 OFFCURVE",
"-30 548 CURVE",
"-31 578 OFFCURVE",
"13 618 OFFCURVE",
"40 628 CURVE",
"61 636 OFFCURVE",
"106 633 OFFCURVE",
"97 661 CURVE",
"88 687 OFFCURVE",
"-19 622 OFFCURVE",
"-19 680 CURVE",
"-18 725 OFFCURVE",
"57 734 OFFCURVE",
"78 759 CURVE",
"93 777 OFFCURVE",
"85 885 OFFCURVE",
"212 814 CURVE",
"266 784 OFFCURVE",
"355 880 OFFCURVE",
"421 807 CURVE",
"437 789 OFFCURVE",
"445 762 OFFCURVE",
"460 745 CURVE",
"501 698 OFFCURVE",
"538 727 OFFCURVE",
"539 672 CURVE",
"539 629 OFFCURVE",
"554 604 OFFCURVE",
"554 572 CURVE",
"554 521 OFFCURVE",
"487 523 OFFCURVE",
"479 487 CURVE",
"468 442 OFFCURVE",
"557 481 OFFCURVE",
"555 297 CURVE",
"554 249 OFFCURVE",
"525 222 OFFCURVE",
"489 259 CURVE",
"471 279 OFFCURVE",
"468 343 OFFCURVE",
"436 348 CURVE",
"406 354 OFFCURVE",
"395 314 OFFCURVE",
"405 295 CURVE",
"435 242 OFFCURVE",
"554 227 OFFCURVE",
"534 151 CURVE",
"525 118 OFFCURVE",
"483 112 OFFCURVE",
"462 94 CURVE",
"444 79 OFFCURVE",
"439 17 OFFCURVE",
"406 4 CURVE",
"369 -11 OFFCURVE",
"291 28 OFFCURVE",
"256 27 CURVE",
"194 26 OFFCURVE",
"149 -11 OFFCURVE",
"115 17 CURVE"
);
},
{
closed = 1;
nodes = (
"130 636 OFFCURVE",
"63 620 OFFCURVE",
"50 559 CURVE SMOOTH",
"45 536 OFFCURVE",
"101 439 OFFCURVE",
"161 429 CURVE SMOOTH",
"232 416 OFFCURVE",
"263 450 OFFCURVE",
"367 430 CURVE SMOOTH",
"418 421 OFFCURVE",
"392 484 OFFCURVE",
"425 506 CURVE SMOOTH",
"456 526 OFFCURVE",
"515 541 OFFCURVE",
"503 592 CURVE SMOOTH",
"499 607 OFFCURVE",
"473 622 OFFCURVE",
"469 637 CURVE SMOOTH",
"459 670 OFFCURVE",
"473 701 OFFCURVE",
"452 731 CURVE SMOOTH",
"416 781 OFFCURVE",
"326 802 OFFCURVE",
"269 786 CURVE SMOOTH",
"251 781 OFFCURVE",
"235 767 OFFCURVE",
"216 765 CURVE SMOOTH",
"193 763 OFFCURVE",
"173 777 OFFCURVE",
"150 777 CURVE SMOOTH",
"108 777 OFFCURVE",
"38 702 OFFCURVE",
"45 692 CURVE SMOOTH",
"60 672 OFFCURVE",
"135 715 OFFCURVE",
"158 686 CURVE SMOOTH",
"168 673 OFFCURVE",
"163 655 OFFCURVE",
"150 648 CURVE SMOOTH"
);
}
);
width = 675;
}
);
unicode = 0039;
},
{
glyphname = bar;
lastChange = "2025-03-20 14:09:22 +0000";
layers = (
{
layerId = "A0C7B77B-63B8-469F-86AF-83BC364D87BB";
paths = (
{
closed = 1;
nodes = (
"772 76 OFFCURVE",
"649 52 OFFCURVE",
"610 46 CURVE SMOOTH",
"584 42 OFFCURVE",
"560 39 OFFCURVE",
"536 39 CURVE SMOOTH",
"509 38 OFFCURVE",
"483 38 OFFCURVE",
"456 38 CURVE SMOOTH",
"424 38 OFFCURVE",
"372 34 OFFCURVE",
"331 41 CURVE SMOOTH",
"309 45 OFFCURVE",
"290 50 OFFCURVE",
"277 62 CURVE SMOOTH",
"250 84 OFFCURVE",
"258 131 OFFCURVE",
"259 154 CURVE SMOOTH",
"259 173 OFFCURVE",
"259 246 OFFCURVE",
"262 261 CURVE SMOOTH",
"267 286 OFFCURVE",
"277 290 OFFCURVE",
"283 296 CURVE SMOOTH",
"291 302 OFFCURVE",
"340 320 OFFCURVE",
"333 347 CURVE SMOOTH",
"331 360 OFFCURVE",
"298 360 OFFCURVE",
"282 374 CURVE SMOOTH",
"250 401 OFFCURVE",
"297 432 OFFCURVE",
"313 447 CURVE SMOOTH",
"329 460 OFFCURVE",
"387 489 OFFCURVE",
"391 513 CURVE SMOOTH",
"401 560 OFFCURVE",
"317 583 OFFCURVE",
"287 615 CURVE SMOOTH",
"273 630 OFFCURVE",
"283 664 OFFCURVE",
"304 680 CURVE SMOOTH",
"328 699 OFFCURVE",
"354 713 OFFCURVE",
"376 733 CURVE SMOOTH",
"401 752 OFFCURVE",
"393 777 OFFCURVE",
"378 785 CURVE SMOOTH",
"345 802 OFFCURVE",
"321 721 OFFCURVE",
"302 702 CURVE SMOOTH",
"277 676 OFFCURVE",
"220 669 OFFCURVE",
"217 632 CURVE SMOOTH",
"213 578 OFFCURVE",
"327 590 OFFCURVE",
"331 518 CURVE SMOOTH",
"337 425 OFFCURVE",
"200 439 OFFCURVE",
"221 383 CURVE SMOOTH",
"232 356 OFFCURVE",
"283 366 OFFCURVE",
"289 338 CURVE SMOOTH",
"293 309 OFFCURVE",
"219 325 OFFCURVE",
"220 273 CURVE SMOOTH",
"220 261 OFFCURVE",
"235 236 OFFCURVE",
"240 224 CURVE SMOOTH",
"247 207 OFFCURVE",
"243 165 OFFCURVE",
"240 145 CURVE SMOOTH",
"236 124 OFFCURVE",
"229 83 OFFCURVE",
"224 58 CURVE SMOOTH",
"223 46 OFFCURVE",
"212 38 OFFCURVE",
"200 38 CURVE SMOOTH",
"148 37 OFFCURVE",
"74 33 OFFCURVE",
"40 62 CURVE SMOOTH",
"15 84 OFFCURVE",
"22 131 OFFCURVE",
"23 154 CURVE SMOOTH",
"24 173 OFFCURVE",
"23 246 OFFCURVE",
"27 261 CURVE SMOOTH",
"32 286 OFFCURVE",
"40 290 OFFCURVE",
"47 296 CURVE SMOOTH",
"55 302 OFFCURVE",
"104 320 OFFCURVE",
"97 347 CURVE SMOOTH",
"94 360 OFFCURVE",
"62 360 OFFCURVE",
"46 374 CURVE SMOOTH",
"15 401 OFFCURVE",
"61 432 OFFCURVE",
"78 447 CURVE SMOOTH",
"93 460 OFFCURVE",
"151 489 OFFCURVE",
"157 513 CURVE SMOOTH",
"166 560 OFFCURVE",
"81 583 OFFCURVE",
"53 615 CURVE SMOOTH",
"38 630 OFFCURVE",
"47 664 OFFCURVE",
"67 680 CURVE SMOOTH",
"92 699 OFFCURVE",
"117 713 OFFCURVE",
"142 733 CURVE SMOOTH",
"165 752 OFFCURVE",
"157 777 OFFCURVE",
"142 785 CURVE SMOOTH",
"109 802 OFFCURVE",
"85 721 OFFCURVE",
"66 702 CURVE SMOOTH",
"40 676 OFFCURVE",
"-15 669 OFFCURVE",
"-19 632 CURVE SMOOTH",
"-23 578 OFFCURVE",
"90 590 OFFCURVE",
"94 518 CURVE SMOOTH",
"101 425 OFFCURVE",
"-36 439 OFFCURVE",
"-15 383 CURVE SMOOTH",
"-4 356 OFFCURVE",
"49 366 OFFCURVE",
"53 338 CURVE SMOOTH",
"57 309 OFFCURVE",
"-18 325 OFFCURVE",
"-16 273 CURVE SMOOTH",
"-16 261 OFFCURVE",
"0 236 OFFCURVE",
"4 224 CURVE SMOOTH",
"11 207 OFFCURVE",
"8 165 OFFCURVE",
"4 145 CURVE SMOOTH",
"-1 108 OFFCURVE",
"-38 39 OFFCURVE",
"-8 8 CURVE SMOOTH",
"19 -17 OFFCURVE",
"444 20 OFFCURVE",
"617 3 CURVE SMOOTH",
"660 -2 OFFCURVE",
"772 -20 OFFCURVE",
"772 35 CURVE"
);
}
);
width = 832;
}
);
unicode = 007C;
},
{
glyphname = dagger;
lastChange = "2025-03-21 13:25:48 +0000";
layers = (
{
layerId = "A0C7B77B-63B8-469F-86AF-83BC364D87BB";
paths = (
{
closed = 1;
nodes = (
"656 732 OFFCURVE",
"668 758 OFFCURVE",
"643 775 CURVE SMOOTH",
"598 807 OFFCURVE",
"552 804 OFFCURVE",
"508 795 CURVE",
"508 795 LINE",
"478 789 OFFCURVE",
"450 781 OFFCURVE",
"419 777 CURVE SMOOTH",
"408 777 OFFCURVE",
"325 777 OFFCURVE",
"314 777 CURVE SMOOTH",
"283 781 OFFCURVE",
"255 789 OFFCURVE",
"225 795 CURVE",
"225 795 LINE",
"181 804 OFFCURVE",
"135 807 OFFCURVE",
"89 775 CURVE SMOOTH",
"65 758 OFFCURVE",
"77 732 OFFCURVE",
"-7 688 CURVE SMOOTH",
"-43 671 OFFCURVE",
"-52 631 OFFCURVE",
"-21 616 CURVE SMOOTH",
"6 601 OFFCURVE",
"104 634 OFFCURVE",
"144 639 CURVE SMOOTH",
"209 647 OFFCURVE",
"244 627 OFFCURVE",
"253 623 CURVE SMOOTH",
"265 616 OFFCURVE",
"281 587 OFFCURVE",
"275 576 CURVE SMOOTH",
"258 545 OFFCURVE",
"197 552 OFFCURVE",
"203 513 CURVE SMOOTH",
"206 489 OFFCURVE",
"235 477 OFFCURVE",
"233 455 CURVE SMOOTH",
"231 439 OFFCURVE",
"210 431 OFFCURVE",
"206 418 CURVE SMOOTH",
"203 403 OFFCURVE",
"207 382 OFFCURVE",
"203 374 CURVE SMOOTH",
"192 360 OFFCURVE",
"167 363 OFFCURVE",
"162 344 CURVE SMOOTH",
"148 304 OFFCURVE",
"201 294 OFFCURVE",
"226 276 CURVE SMOOTH",
"271 249 OFFCURVE",
"290 214 OFFCURVE",
"264 191 CURVE SMOOTH",
"242 173 OFFCURVE",
"223 188 OFFCURVE",
"216 164 CURVE SMOOTH",
"206 137 OFFCURVE",
"232 127 OFFCURVE",
"233 110 CURVE SMOOTH",
"235 86 OFFCURVE",
"214 64 OFFCURVE",
"219 34 CURVE SMOOTH",
"222 10 OFFCURVE",
"241 -9 OFFCURVE",
"260 10 CURVE SMOOTH",
"281 37 OFFCURVE",
"252 67 OFFCURVE",
"252 105 CURVE SMOOTH",
"252 185 OFFCURVE",
"313 175 OFFCURVE",
"320 214 CURVE SMOOTH",
"336 276 OFFCURVE",
"223 280 OFFCURVE",
"206 330 CURVE SMOOTH",
"189 373 OFFCURVE",
"258 369 OFFCURVE",
"262 410 CURVE SMOOTH",
"267 443 OFFCURVE",
"233 455 OFFCURVE",
"258 518 CURVE SMOOTH",
"277 565 OFFCURVE",
"359 564 OFFCURVE",
"311 636 CURVE SMOOTH",
"279 686 OFFCURVE",
"203 667 OFFCURVE",
"155 658 CURVE SMOOTH",
"134 654 OFFCURVE",
"70 651 OFFCURVE",
"58 659 CURVE SMOOTH",
"35 671 OFFCURVE",
"51 693 OFFCURVE",
"62 704 CURVE SMOOTH",
"98 735 OFFCURVE",
"159 750 OFFCURVE",
"217 758 CURVE",
"217 758 LINE",
"248 760 OFFCURVE",
"278 762 OFFCURVE",
"303 762 CURVE SMOOTH",
"317 762 OFFCURVE",
"416 762 OFFCURVE",
"430 762 CURVE SMOOTH",
"455 762 OFFCURVE",
"486 760 OFFCURVE",
"516 758 CURVE SMOOTH",
"573 750 OFFCURVE",
"635 735 OFFCURVE",
"670 704 CURVE SMOOTH",
"682 693 OFFCURVE",
"698 671 OFFCURVE",
"675 659 CURVE SMOOTH",
"662 651 OFFCURVE",
"599 654 OFFCURVE",
"578 658 CURVE SMOOTH",
"529 667 OFFCURVE",
"453 686 OFFCURVE",
"422 636 CURVE SMOOTH",
"374 564 OFFCURVE",
"456 565 OFFCURVE",
"475 518 CURVE SMOOTH",
"499 455 OFFCURVE",
"466 443 OFFCURVE",
"470 410 CURVE SMOOTH",
"475 369 OFFCURVE",
"544 373 OFFCURVE",
"527 330 CURVE SMOOTH",
"508 280 OFFCURVE",
"397 276 OFFCURVE",
"413 214 CURVE SMOOTH",
"420 175 OFFCURVE",
"481 185 OFFCURVE",
"481 105 CURVE SMOOTH",
"481 67 OFFCURVE",
"451 37 OFFCURVE",
"472 10 CURVE SMOOTH",
"491 -9 OFFCURVE",
"511 10 OFFCURVE",
"514 34 CURVE SMOOTH",
"518 64 OFFCURVE",
"498 86 OFFCURVE",
"499 110 CURVE SMOOTH",
"501 127 OFFCURVE",
"527 137 OFFCURVE",
"517 164 CURVE SMOOTH",
"508 188 OFFCURVE",
"489 173 OFFCURVE",
"469 191 CURVE SMOOTH",
"443 214 OFFCURVE",
"462 249 OFFCURVE",
"507 276 CURVE SMOOTH",
"533 294 OFFCURVE",
"584 304 OFFCURVE",
"571 344 CURVE SMOOTH",
"565 363 OFFCURVE",
"541 360 OFFCURVE",
"530 374 CURVE SMOOTH",
"526 382 OFFCURVE",
"530 403 OFFCURVE",
"527 418 CURVE SMOOTH",
"521 431 OFFCURVE",
"501 439 OFFCURVE",
"499 455 CURVE SMOOTH",
"498 477 OFFCURVE",
"527 489 OFFCURVE",
"529 513 CURVE SMOOTH",
"536 552 OFFCURVE",
"475 545 OFFCURVE",
"458 576 CURVE SMOOTH",
"451 587 OFFCURVE",
"468 616 OFFCURVE",
"479 623 CURVE SMOOTH",
"489 627 OFFCURVE",
"524 647 OFFCURVE",
"589 639 CURVE SMOOTH",
"630 634 OFFCURVE",
"726 601 OFFCURVE",
"753 616 CURVE SMOOTH",
"782 629 OFFCURVE",
"773 673 OFFCURVE",
"740 688 CURVE SMOOTH"
);
}
